Merritest-Italic.ufo
<glyph name="exclam" format="1">
  <advance width="686"/>
  <unicode hex="0021"/>
  <outline>
    <contour>
      <point x="255" y="488" type="line"/>
      <point x="391" y="1778" type="line"/>
      <point x="636" y="1778" type="line"/>
      <point x="393" y="488" type="line"/>
    </contour>
    <contour>
      <point x="138" y="103" type="curve" smooth="yes"/>
      <point x="149" y="186"/>
      <point x="221" y="250"/>
      <point x="296" y="250" type="curve" smooth="yes"/>
      <point x="391" y="250"/>
      <point x="425" y="193"/>
      <point x="416" y="125" type="curve" smooth="yes"/>
      <point x="404" y="36"/>
      <point x="327" y="-22"/>
      <point x="248" y="-22" type="curve" smooth="yes"/>
      <point x="177" y="-22"/>
      <point x="128" y="25"/>
    </contour>
  </outline>
</glyph>
<glyph name="numbersign" format="1">
  <advance width="1405"/>
  <unicode hex="0023"/>
  <outline>
    <contour>
      <point x="267" y="0" type="line"/>
      <point x="325" y="365" type="line"/>
      <point x="111" y="365" type="line"/>
      <point x="119" y="493" type="line"/>
      <point x="345" y="493" type="line"/>
      <point x="409" y="898" type="line"/>
      <point x="189" y="898" type="line"/>
      <point x="197" y="1025" type="line"/>
      <point x="429" y="1025" type="line"/>
      <point x="482" y="1357" type="line"/>
      <point x="647" y="1357" type="line"/>
      <point x="596" y="1025" type="line"/>
      <point x="907" y="1025" type="line"/>
      <point x="963" y="1357" type="line"/>
      <point x="1128" y="1357" type="line"/>
      <point x="1074" y="1025" type="line"/>
      <point x="1306" y="1025" type="line"/>
      <point x="1298" y="898" type="line"/>
      <point x="1054" y="898" type="line"/>
      <point x="989" y="493" type="line"/>
      <point x="1216" y="493" type="line"/>
      <point x="1208" y="365" type="line"/>
      <point x="969" y="365" type="line"/>
      <point x="912" y="0" type="line"/>
      <point x="752" y="0" type="line"/>
      <point x="803" y="365" type="line"/>
      <point x="491" y="365" type="line"/>
      <point x="429" y="0" type="line"/>
    </contour>
    <contour>
      <point x="511" y="493" type="line"/>
      <point x="823" y="493" type="line"/>
      <point x="887" y="898" type="line"/>
      <point x="576" y="898" type="line"/>
    </contour>
  </outline>
</glyph>
<glyph name="percent" format="1">
  <advance width="1911"/>
  <unicode hex="0025"/>
  <outline>
    <contour>
      <point x="395" y="0" type="line"/>
      <point x="1342" y="1530" type="line"/>
      <point x="1501" y="1530" type="line"/>
      <point x="554" y="0" type="line"/>
    </contour>
    <contour>
      <point x="478" y="745" type="curve" smooth="yes"/>
      <point x="295" y="745"/>
      <point x="200" y="879"/>
      <point x="200" y="1055" type="curve" smooth="yes"/>
      <point x="200" y="1267"/>
      <point x="374" y="1480"/>
      <point x="613" y="1480" type="curve" smooth="yes"/>
      <point x="811" y="1480"/>
      <point x="890" y="1357"/>
      <point x="890" y="1185" type="curve" smooth="yes"/>
      <point x="890" y="966"/>
      <point x="730" y="745"/>
    </contour>
    <contour>
      <point x="507" y="848" type="curve" smooth="yes"/>
      <point x="656" y="848"/>
      <point x="710" y="1055"/>
      <point x="710" y="1177" type="curve" smooth="yes"/>
      <point x="710" y="1300"/>
      <point x="671" y="1378"/>
      <point x="585" y="1378" type="curve" smooth="yes"/>
      <point x="434" y="1378"/>
      <point x="371" y="1183"/>
      <point x="371" y="1057" type="curve" smooth="yes"/>
      <point x="371" y="933"/>
      <point x="414" y="848"/>
    </contour>
    <contour>
      <point x="1036" y="374" type="curve" smooth="yes"/>
      <point x="1036" y="586"/>
      <point x="1210" y="799"/>
      <point x="1449" y="799" type="curve" smooth="yes"/>
      <point x="1647" y="799"/>
      <point x="1726" y="676"/>
      <point x="1726" y="504" type="curve" smooth="yes"/>
      <point x="1726" y="285"/>
      <point x="1566" y="64"/>
      <point x="1314" y="64" type="curve" smooth="yes"/>
      <point x="1131" y="64"/>
      <point x="1036" y="198"/>
    </contour>
    <contour>
      <point x="1207" y="376" type="curve" smooth="yes"/>
      <point x="1207" y="252"/>
      <point x="1250" y="167"/>
      <point x="1343" y="167" type="curve" smooth="yes"/>
      <point x="1492" y="167"/>
      <point x="1546" y="374"/>
      <point x="1546" y="496" type="curve" smooth="yes"/>
      <point x="1546" y="619"/>
      <point x="1507" y="697"/>
      <point x="1421" y="697" type="curve" smooth="yes"/>
      <point x="1270" y="697"/>
      <point x="1207" y="502"/>
    </contour>
  </outline>
</glyph>
<glyph name="ampersand" format="1">
  <advance width="1534"/>
  <unicode hex="0026"/>
  <outline>
    <contour>
      <point x="49" y="368" type="curve" smooth="yes"/>
      <point x="49" y="572"/>
      <point x="215" y="682"/>
      <point x="399" y="780" type="curve"/>
      <point x="351" y="891"/>
      <point x="310" y="1040"/>
      <point x="310" y="1151" type="curve" smooth="yes"/>
      <point x="310" y="1392"/>
      <point x="510" y="1549"/>
      <point x="763" y="1549" type="curve" smooth="yes"/>
      <point x="1012" y="1549"/>
      <point x="1090" y="1406"/>
      <point x="1090" y="1270" type="curve" smooth="yes"/>
      <point x="1090" y="1031"/>
      <point x="833" y="912"/>
      <point x="604" y="781" type="curve"/>
      <point x="722" y="571"/>
      <point x="859" y="385"/>
      <point x="1020" y="244" type="curve"/>
      <point x="1070" y="319"/>
      <point x="1084" y="420"/>
      <point x="1084" y="542" type="curve" smooth="yes"/>
      <point x="1084" y="599"/>
      <point x="1074" y="647"/>
      <point x="1061" y="684" type="curve"/>
      <point x="1048" y="684"/>
      <point x="1035" y="685"/>
      <point x="1021" y="685" type="curve" smooth="yes"/>
      <point x="959" y="685"/>
      <point x="901" y="661"/>
      <point x="872" y="647" type="curve"/>
      <point x="872" y="781" type="line"/>
      <point x="890" y="799"/>
      <point x="939" y="830"/>
      <point x="1027" y="830" type="curve" smooth="yes"/>
      <point x="1102" y="830"/>
      <point x="1184" y="806"/>
      <point x="1276" y="806" type="curve" smooth="yes"/>
      <point x="1377" y="806"/>
      <point x="1445" y="845"/>
      <point x="1464" y="968" type="curve"/>
      <point x="1540" y="968" type="line"/>
      <point x="1538" y="778"/>
      <point x="1474" y="654"/>
      <point x="1315" y="654" type="curve" smooth="yes"/>
      <point x="1296" y="654"/>
      <point x="1277" y="655"/>
      <point x="1259" y="658" type="curve"/>
      <point x="1263" y="637"/>
      <point x="1265" y="613"/>
      <point x="1265" y="586" type="curve" smooth="yes"/>
      <point x="1265" y="415"/>
      <point x="1206" y="276"/>
      <point x="1104" y="175" type="curve"/>
      <point x="1133" y="153"/>
      <point x="1164" y="134"/>
      <point x="1195" y="119" type="curve"/>
      <point x="1248" y="99"/>
      <point x="1317" y="85"/>
      <point x="1371" y="84" type="curve"/>
      <point x="1360" y="-1" type="line"/>
      <point x="1278" y="-20"/>
      <point x="1221" y="-20"/>
      <point x="1183" y="-20" type="curve" smooth="yes"/>
      <point x="1102" y="-20"/>
      <point x="1015" y="7"/>
      <point x="944" y="63" type="curve"/>
      <point x="837" y="11"/>
      <point x="707" y="-17"/>
      <point x="564" y="-17" type="curve" smooth="yes"/>
      <point x="309" y="-17"/>
      <point x="49" y="95"/>
    </contour>
    <contour>
      <point x="561" y="863" type="curve"/>
      <point x="739" y="957"/>
      <point x="894" y="1061"/>
      <point x="894" y="1249" type="curve" smooth="yes"/>
      <point x="894" y="1339"/>
      <point x="868" y="1446"/>
      <point x="737" y="1446" type="curve" smooth="yes"/>
      <point x="582" y="1446"/>
      <point x="490" y="1328"/>
      <point x="490" y="1177" type="curve" smooth="yes"/>
      <point x="490" y="1051"/>
      <point x="527" y="938"/>
    </contour>
    <contour>
      <point x="253" y="372" type="curve" smooth="yes"/>
      <point x="253" y="177"/>
      <point x="411" y="93"/>
      <point x="582" y="93" type="curve" smooth="yes"/>
      <point x="703" y="93"/>
      <point x="796" y="106"/>
      <point x="867" y="131" type="curve"/>
      <point x="650" y="332"/>
      <point x="564" y="489"/>
      <point x="449" y="683" type="curve"/>
      <point x="336" y="601"/>
      <point x="253" y="505"/>
    </contour>
  </outline>
</glyph>
<glyph name="parenleft" format="1">
  <advance width="854"/>
  <unicode hex="0028"/>
  <outline>
    <contour>
      <point x="203" y="505" type="curve" smooth="yes"/>
      <point x="203" y="574"/>
      <point x="208" y="647"/>
      <point x="218" y="724" type="curve" smooth="yes"/>
      <point x="296" y="1301"/>
      <point x="729" y="1688"/>
      <point x="827" y="1741" type="curve"/>
      <point x="914" y="1682" type="line"/>
      <point x="830" y="1628"/>
      <point x="523" y="1299"/>
      <point x="431" y="773" type="curve"/>
      <point x="420" y="690"/>
      <point x="411" y="586"/>
      <point x="411" y="512" type="curve" smooth="yes"/>
      <point x="411" y="71"/>
      <point x="597" y="-195"/>
      <point x="668" y="-255" type="curve"/>
      <point x="560" y="-319" type="line"/>
      <point x="543" y="-319" type="line"/>
      <point x="469" y="-269"/>
      <point x="203" y="-8"/>
    </contour>
  </outline>
</glyph>
<glyph name="plus" format="1">
  <advance width="1366"/>
  <unicode hex="002B"/>
  <outline>
    <contour>
      <point x="565" y="295" type="line"/>
      <point x="592" y="536" type="line"/>
      <point x="618" y="700" type="line"/>
      <point x="477" y="693" type="line"/>
      <point x="252" y="693" type="line"/>
      <point x="270" y="851" type="line"/>
      <point x="496" y="851" type="line"/>
      <point x="634" y="840" type="line"/>
      <point x="647" y="1005" type="line"/>
      <point x="674" y="1235" type="line"/>
      <point x="852" y="1235" type="line"/>
      <point x="826" y="1005" type="line"/>
      <point x="797" y="841" type="line"/>
      <point x="912" y="851" type="line"/>
      <point x="1167" y="851" type="line"/>
      <point x="1149" y="693" type="line"/>
      <point x="894" y="693" type="line"/>
      <point x="782" y="700" type="line"/>
      <point x="780" y="645"/>
      <point x="775" y="591"/>
      <point x="772" y="536" type="curve"/>
      <point x="744" y="295" type="line"/>
    </contour>
  </outline>
</glyph>
<glyph name="comma" format="1">
  <advance width="526"/>
  <unicode hex="002C"/>
  <outline>
    <contour>
      <point x="65" y="78" type="curve"/>
      <point x="72" y="132" type="line"/>
      <point x="186" y="265" type="line"/>
      <point x="339" y="227"/>
      <point x="378" y="98"/>
      <point x="378" y="-4" type="curve" smooth="yes"/>
      <point x="378" y="-228"/>
      <point x="221" y="-417"/>
      <point x="5" y="-501" type="curve"/>
      <point x="-38" y="-432" type="line"/>
      <point x="-35" y="-411" type="line"/>
      <point x="75" y="-362"/>
      <point x="176" y="-213"/>
      <point x="176" y="-88" type="curve" smooth="yes"/>
      <point x="176" y="0"/>
      <point x="123" y="80"/>
    </contour>
  </outline>
</glyph>
<glyph name="hyphen" format="1">
  <advance width="1266"/>
  <unicode hex="002D"/>
  <outline>
    <contour>
      <point x="232" y="693" type="line"/>
      <point x="250" y="851" type="line"/>
      <point x="1087" y="851" type="line"/>
      <point x="1069" y="693" type="line"/>
    </contour>
  </outline>
</glyph>
<glyph name="zero" format="1">
  <advance width="1278"/>
  <unicode hex="0030"/>
  <outline>
    <contour>
      <point x="113" y="450" type="curve" smooth="yes"/>
      <point x="113" y="853"/>
      <point x="402" y="1162"/>
      <point x="744" y="1162" type="curve" smooth="yes"/>
      <point x="1061" y="1162"/>
      <point x="1175" y="971"/>
      <point x="1175" y="697" type="curve" smooth="yes"/>
      <point x="1175" y="321"/>
      <point x="909" y="-16"/>
      <point x="549" y="-16" type="curve" smooth="yes"/>
      <point x="234" y="-16"/>
      <point x="113" y="198"/>
    </contour>
    <contour>
      <point x="340" y="466" type="curve" smooth="yes"/>
      <point x="340" y="266"/>
      <point x="408" y="98"/>
      <point x="571" y="94" type="curve"/>
      <point x="829" y="57"/>
      <point x="948" y="406"/>
      <point x="948" y="677" type="curve" smooth="yes"/>
      <point x="948" y="900"/>
      <point x="880" y="1050"/>
      <point x="717" y="1053" type="curve" smooth="yes"/>
      <point x="419" y="1059"/>
      <point x="340" y="694"/>
    </contour>
  </outline>
</glyph>
<glyph name="one" format="1">
  <advance width="930"/>
  <unicode hex="0031"/>
  <outline>
    <contour>
      <point x="111" y="0" type="line"/>
      <point x="121" y="87" type="line"/>
      <point x="319" y="112" type="line"/>
      <point x="430" y="916" type="line"/>
      <point x="353" y="897"/>
      <point x="266" y="879"/>
      <point x="179" y="864" type="curve"/>
      <point x="165" y="960" type="line"/>
      <point x="305" y="991"/>
      <point x="475" y="1089"/>
      <point x="581" y="1162" type="curve"/>
      <point x="665" y="1142" type="line"/>
      <point x="521" y="113" type="line"/>
      <point x="734" y="87" type="line"/>
      <point x="724" y="0" type="line"/>
    </contour>
  </outline>
</glyph>
<glyph name="five" format="1">
  <advance width="1116"/>
  <unicode hex="0035"/>
  <outline>
    <contour>
      <point x="59" y="-239" type="line"/>
      <point x="90" y="-244"/>
      <point x="115" y="-245"/>
      <point x="138" y="-245" type="curve" smooth="yes"/>
      <point x="437" y="-245"/>
      <point x="726" y="-79"/>
      <point x="726" y="170" type="curve" smooth="yes"/>
      <point x="726" y="379"/>
      <point x="617" y="463"/>
      <point x="463" y="463" type="curve" smooth="yes"/>
      <point x="391" y="463"/>
      <point x="300" y="443"/>
      <point x="201" y="410" type="curve"/>
      <point x="153" y="448" type="line"/>
      <point x="324" y="1146" type="line"/>
      <point x="861" y="1146" type="line"/>
      <point x="883" y="1162" type="line"/>
      <point x="1051" y="1162" type="line"/>
      <point x="993" y="977" type="line"/>
      <point x="457" y="977" type="line"/>
      <point x="341" y="551" type="line"/>
      <point x="407" y="569"/>
      <point x="496" y="580"/>
      <point x="559" y="580" type="curve" smooth="yes"/>
      <point x="803" y="580"/>
      <point x="957" y="445"/>
      <point x="957" y="188" type="curve" smooth="yes"/>
      <point x="957" y="-106"/>
      <point x="541" y="-346"/>
      <point x="176" y="-346" type="curve" smooth="yes"/>
      <point x="143" y="-346"/>
      <point x="86" y="-343"/>
      <point x="46" y="-329" type="curve"/>
    </contour>
  </outline>
</glyph>
<glyph name="six" format="1">
  <advance width="1268"/>
  <unicode hex="0036"/>
  <outline>
    <contour>
      <point x="142" y="469" type="curve" smooth="yes"/>
      <point x="142" y="953"/>
      <point x="506" y="1434"/>
      <point x="999" y="1571" type="curve"/>
      <point x="1028" y="1486" type="line"/>
      <point x="727" y="1371"/>
      <point x="511" y="1128"/>
      <point x="417" y="865" type="curve"/>
      <point x="485" y="921"/>
      <point x="592" y="975"/>
      <point x="758" y="975" type="curve" smooth="yes"/>
      <point x="1013" y="975"/>
      <point x="1117" y="791"/>
      <point x="1117" y="601" type="curve" smooth="yes"/>
      <point x="1117" y="309"/>
      <point x="894" y="-20"/>
      <point x="555" y="-20" type="curve" smooth="yes"/>
      <point x="281" y="-20"/>
      <point x="142" y="196"/>
    </contour>
    <contour>
      <point x="349" y="450" type="curve" smooth="yes"/>
      <point x="349" y="253"/>
      <point x="408" y="88"/>
      <point x="601" y="88" type="curve" smooth="yes"/>
      <point x="824" y="88"/>
      <point x="908" y="361"/>
      <point x="908" y="552" type="curve" smooth="yes"/>
      <point x="908" y="751"/>
      <point x="819" y="852"/>
      <point x="710" y="852" type="curve" smooth="yes"/>
      <point x="511" y="852"/>
      <point x="419" y="736"/>
      <point x="376" y="683" type="curve"/>
      <point x="357" y="598"/>
      <point x="349" y="522"/>
    </contour>
  </outline>
</glyph>
<glyph name="eight" format="1">
  <advance width="1270"/>
  <unicode hex="0038"/>
  <outline>
    <contour>
      <point x="123" y="333" type="curve" smooth="yes"/>
      <point x="123" y="547"/>
      <point x="307" y="705"/>
      <point x="500" y="807" type="curve"/>
      <point x="391" y="895"/>
      <point x="298" y="1005"/>
      <point x="298" y="1158" type="curve" smooth="yes"/>
      <point x="298" y="1420"/>
      <point x="497" y="1550"/>
      <point x="764" y="1550" type="curve" smooth="yes"/>
      <point x="980" y="1550"/>
      <point x="1138" y="1429"/>
      <point x="1138" y="1227" type="curve" smooth="yes"/>
      <point x="1138" y="1034"/>
      <point x="971" y="892"/>
      <point x="801" y="797" type="curve"/>
      <point x="947" y="695"/>
      <point x="1071" y="556"/>
      <point x="1071" y="388" type="curve" smooth="yes"/>
      <point x="1071" y="122"/>
      <point x="817" y="-20"/>
      <point x="555" y="-20" type="curve" smooth="yes"/>
      <point x="349" y="-20"/>
      <point x="123" y="86"/>
    </contour>
    <contour>
      <point x="708" y="863" type="curve"/>
      <point x="845" y="924"/>
      <point x="941" y="1054"/>
      <point x="941" y="1212" type="curve" smooth="yes"/>
      <point x="941" y="1374"/>
      <point x="853" y="1451"/>
      <point x="742" y="1451" type="curve" smooth="yes"/>
      <point x="601" y="1451"/>
      <point x="488" y="1334"/>
      <point x="488" y="1184" type="curve" smooth="yes"/>
      <point x="488" y="1046"/>
      <point x="585" y="951"/>
    </contour>
    <contour>
      <point x="335" y="368" type="curve"/>
      <point x="335" y="199"/>
      <point x="429" y="86"/>
      <point x="585" y="86" type="curve" smooth="yes"/>
      <point x="744" y="86"/>
      <point x="868" y="198"/>
      <point x="868" y="360" type="curve" smooth="yes"/>
      <point x="868" y="508"/>
      <point x="759" y="629"/>
      <point x="586" y="744" type="curve"/>
      <point x="446" y="675"/>
      <point x="339" y="531"/>
    </contour>
  </outline>
</glyph>
<glyph name="nine" format="1">
  <advance width="1247"/>
  <unicode hex="0039"/>
  <outline>
    <contour>
      <point x="212" y="-345" type="line"/>
      <point x="510" y="-232"/>
      <point x="728" y="16"/>
      <point x="824" y="277" type="curve"/>
      <point x="757" y="217"/>
      <point x="642" y="166"/>
      <point x="482" y="166" type="curve" smooth="yes"/>
      <point x="222" y="166"/>
      <point x="122" y="355"/>
      <point x="122" y="550" type="curve" smooth="yes"/>
      <point x="122" y="824"/>
      <point x="344" y="1161"/>
      <point x="685" y="1162" type="curve" smooth="yes"/>
      <point x="959" y="1162"/>
      <point x="1098" y="949"/>
      <point x="1098" y="686" type="curve" smooth="yes"/>
      <point x="1098" y="178"/>
      <point x="732" y="-294"/>
      <point x="241" y="-431" type="curve"/>
    </contour>
    <contour>
      <point x="530" y="289" type="curve" smooth="yes"/>
      <point x="717" y="289"/>
      <point x="818" y="403"/>
      <point x="864" y="459" type="curve"/>
      <point x="883" y="534"/>
      <point x="891" y="630"/>
      <point x="891" y="705" type="curve" smooth="yes"/>
      <point x="891" y="882"/>
      <point x="832" y="1054"/>
      <point x="639" y="1054" type="curve" smooth="yes"/>
      <point x="418" y="1054"/>
      <point x="332" y="784"/>
      <point x="332" y="604" type="curve" smooth="yes"/>
      <point x="332" y="397"/>
      <point x="421" y="289"/>
    </contour>
  </outline>
</glyph>
<glyph name="equal" format="1">
  <advance width="1063"/>
  <unicode hex="003D"/>
  <outline>
    <contour>
      <point x="150" y="848" type="line"/>
      <point x="168" y="1005" type="line"/>
      <point x="983" y="1005" type="line"/>
      <point x="965" y="848" type="line"/>
    </contour>
    <contour>
      <point x="80" y="339" type="line"/>
      <point x="98" y="496" type="line"/>
      <point x="913" y="496" type="line"/>
      <point x="895" y="339" type="line"/>
    </contour>
  </outline>
</glyph>
<glyph name="question" format="1">
  <advance width="1020"/>
  <unicode hex="003F"/>
  <outline>
    <contour>
      <point x="360" y="464" type="line"/>
      <point x="312" y="509"/>
      <point x="280" y="622"/>
      <point x="280" y="722" type="curve" smooth="yes"/>
      <point x="280" y="841"/>
      <point x="403" y="927"/>
      <point x="567" y="1020" type="curve" smooth="yes"/>
      <point x="677" y="1082"/>
      <point x="812" y="1144"/>
      <point x="843" y="1217" type="curve"/>
      <point x="850" y="1246"/>
      <point x="852" y="1273"/>
      <point x="852" y="1301" type="curve" smooth="yes"/>
      <point x="852" y="1502"/>
      <point x="692" y="1653"/>
      <point x="487" y="1653" type="curve" smooth="yes"/>
      <point x="443" y="1653"/>
      <point x="367" y="1646"/>
      <point x="311" y="1620" type="curve"/>
      <point x="339" y="1760" type="line"/>
      <point x="368" y="1790"/>
      <point x="463" y="1813"/>
      <point x="542" y="1813" type="curve" smooth="yes"/>
      <point x="910" y="1813"/>
      <point x="1023" y="1605"/>
      <point x="1023" y="1392" type="curve" smooth="yes"/>
      <point x="1023" y="892"/>
      <point x="462" y="958"/>
      <point x="462" y="687" type="curve" smooth="yes"/>
      <point x="462" y="619"/>
      <point x="497" y="548"/>
      <point x="504" y="513" type="curve"/>
      <point x="377" y="463" type="line"/>
    </contour>
    <contour>
      <point x="314" y="103" type="curve" smooth="yes"/>
      <point x="325" y="186"/>
      <point x="397" y="250"/>
      <point x="472" y="250" type="curve" smooth="yes"/>
      <point x="567" y="250"/>
      <point x="601" y="193"/>
      <point x="592" y="125" type="curve" smooth="yes"/>
      <point x="580" y="36"/>
      <point x="503" y="-22"/>
      <point x="424" y="-22" type="curve" smooth="yes"/>
      <point x="353" y="-22"/>
      <point x="304" y="25"/>
    </contour>
  </outline>
</glyph>
<glyph name="at" format="1">
  <advance width="1969"/>
  <unicode hex="0040"/>
  <outline>
    <contour>
      <point x="120" y="334" type="curve" smooth="yes"/>
      <point x="120" y="1058"/>
      <point x="609" y="1545"/>
      <point x="1199" y="1545" type="curve" smooth="yes"/>
      <point x="1603" y="1545"/>
      <point x="1868" y="1309"/>
      <point x="1868" y="909" type="curve" smooth="yes"/>
      <point x="1868" y="350"/>
      <point x="1523" y="21"/>
      <point x="1256" y="21" type="curve" smooth="yes"/>
      <point x="1166" y="21"/>
      <point x="1166" y="106"/>
      <point x="1166" y="225" type="curve" smooth="yes"/>
      <point x="1166" y="272"/>
      <point x="1173" y="336"/>
      <point x="1194" y="427" type="curve"/>
      <point x="1104" y="214"/>
      <point x="958" y="7"/>
      <point x="810" y="7" type="curve" smooth="yes"/>
      <point x="675" y="7"/>
      <point x="526" y="137"/>
      <point x="532" y="434" type="curve" smooth="yes"/>
      <point x="538" y="725"/>
      <point x="702" y="1092"/>
      <point x="1072" y="1092" type="curve" smooth="yes"/>
      <point x="1127" y="1092"/>
      <point x="1236" y="1077"/>
      <point x="1292" y="1038" type="curve"/>
      <point x="1457" y="1068" type="line"/>
      <point x="1418" y="915"/>
      <point x="1367" y="601"/>
      <point x="1348" y="400" type="curve" smooth="yes"/>
      <point x="1338" y="297"/>
      <point x="1349" y="234"/>
      <point x="1349" y="193" type="curve" smooth="yes"/>
      <point x="1349" y="175"/>
      <point x="1353" y="165"/>
      <point x="1363" y="165" type="curve" smooth="yes"/>
      <point x="1531" y="165"/>
      <point x="1715" y="516"/>
      <point x="1715" y="839" type="curve" smooth="yes"/>
      <point x="1715" y="1278"/>
      <point x="1416" y="1414"/>
      <point x="1111" y="1414" type="curve" smooth="yes"/>
      <point x="570" y="1414"/>
      <point x="272" y="912"/>
      <point x="272" y="408" type="curve" smooth="yes"/>
      <point x="272" y="-100"/>
      <point x="515" y="-291"/>
      <point x="900" y="-291" type="curve" smooth="yes"/>
      <point x="1018" y="-291"/>
      <point x="1192" y="-260"/>
      <point x="1260" y="-227" type="curve"/>
      <point x="1291" y="-312" type="line"/>
      <point x="1199" y="-382"/>
      <point x="1046" y="-428"/>
      <point x="875" y="-428" type="curve" smooth="yes"/>
      <point x="406" y="-428"/>
      <point x="120" y="-183"/>
    </contour>
    <contour>
      <point x="710" y="447" type="curve" smooth="yes"/>
      <point x="710" y="290"/>
      <point x="745" y="170"/>
      <point x="846" y="170" type="curve" smooth="yes"/>
      <point x="983" y="170"/>
      <point x="1211" y="639"/>
      <point x="1241" y="879" type="curve"/>
      <point x="1206" y="940"/>
      <point x="1111" y="967"/>
      <point x="1056" y="967" type="curve" smooth="yes"/>
      <point x="778" y="967"/>
      <point x="710" y="677"/>
    </contour>
  </outline>
</glyph>
<glyph name="I" format="1">
  <advance width="706"/>
  <unicode hex="0049"/>
  <outline>
    <contour>
      <point x="30" y="0" type="line"/>
      <point x="39" y="86" type="line"/>
      <point x="187" y="116" type="line"/>
      <point x="348" y="1406" type="line"/>
      <point x="215" y="1429" type="line"/>
      <point x="227" y="1530" type="line"/>
      <point x="710" y="1530" type="line"/>
      <point x="699" y="1429" type="line"/>
      <point x="546" y="1406" type="line"/>
      <point x="385" y="116" type="line"/>
      <point x="542" y="87" type="line"/>
      <point x="534" y="0" type="line"/>
    </contour>
  </outline>
</glyph>
<glyph name="K" format="1">
  <advance width="1361"/>
  <unicode hex="004B"/>
  <outline>
    <contour>
      <point x="30" y="0" type="line"/>
      <point x="39" y="86" type="line"/>
      <point x="187" y="116" type="line"/>
      <point x="348" y="1406" type="line"/>
      <point x="215" y="1429" type="line"/>
      <point x="227" y="1530" type="line"/>
      <point x="710" y="1530" type="line"/>
      <point x="699" y="1429" type="line"/>
      <point x="546" y="1406" type="line"/>
      <point x="456" y="688" type="line"/>
      <point x="1067" y="1406" type="line"/>
      <point x="950" y="1429" type="line"/>
      <point x="962" y="1530" type="line"/>
      <point x="1395" y="1530" type="line"/>
      <point x="1384" y="1429" type="line"/>
      <point x="1261" y="1407" type="line"/>
      <point x="734" y="828" type="line"/>
      <point x="805" y="713"/>
      <point x="924" y="514"/>
      <point x="976" y="423" type="curve" smooth="yes"/>
      <point x="1089" y="221"/>
      <point x="1135" y="163"/>
      <point x="1177" y="138" type="curve"/>
      <point x="1307" y="93" type="line"/>
      <point x="1293" y="0" type="line"/>
      <point x="1022" y="0" type="line"/>
      <point x="970" y="7"/>
      <point x="863" y="236"/>
      <point x="799" y="358" type="curve" smooth="yes"/>
      <point x="749" y="453"/>
      <point x="667" y="603"/>
      <point x="614" y="697" type="curve"/>
      <point x="432" y="498" type="line"/>
      <point x="385" y="116" type="line"/>
      <point x="542" y="87" type="line"/>
      <point x="534" y="0" type="line"/>
    </contour>
  </outline>
</glyph>
<glyph name="M" format="1">
  <advance width="1870"/>
  <unicode hex="004D"/>
  <outline>
    <contour>
      <point x="-53" y="0" type="line"/>
      <point x="-43" y="87" type="line"/>
      <point x="117" y="116" type="line"/>
      <point x="434" y="1406" type="line"/>
      <point x="274" y="1429" type="line"/>
      <point x="286" y="1530" type="line"/>
      <point x="723" y="1530" type="line"/>
      <point x="890" y="470" type="line"/>
      <point x="904" y="303" type="line"/>
      <point x="970" y="470" type="line"/>
      <point x="1115" y="819"/>
      <point x="1284" y="1181"/>
      <point x="1430" y="1530" type="curve"/>
      <point x="1846" y="1530" type="line"/>
      <point x="1835" y="1429" type="line"/>
      <point x="1671" y="1406" type="line"/>
      <point x="1646" y="117" type="line"/>
      <point x="1799" y="87" type="line"/>
      <point x="1790" y="0" type="line"/>
      <point x="1265" y="0" type="line"/>
      <point x="1274" y="87" type="line"/>
      <point x="1449" y="115" type="line"/>
      <point x="1485" y="1026" type="line"/>
      <point x="1516" y="1429" type="line"/>
      <point x="1379" y="1074" type="line"/>
      <point x="907" y="-3" type="line"/>
      <point x="797" y="-18" type="line"/>
      <point x="623" y="1050" type="line"/>
      <point x="562" y="1427" type="line"/>
      <point x="491" y="1040" type="line"/>
      <point x="279" y="116" type="line"/>
      <point x="464" y="87" type="line"/>
      <point x="455" y="0" type="line"/>
    </contour>
  </outline>
</glyph>
<glyph name="P" format="1">
  <advance width="1235"/>
  <unicode hex="0050"/>
  <outline>
    <contour>
      <point x="30" y="0" type="line"/>
      <point x="39" y="86" type="line"/>
      <point x="187" y="116" type="line"/>
      <point x="348" y="1406" type="line"/>
      <point x="215" y="1429" type="line"/>
      <point x="227" y="1530" type="line"/>
      <point x="480" y="1530" type="line" smooth="yes"/>
      <point x="575" y="1530"/>
      <point x="660" y="1547"/>
      <point x="765" y="1547" type="curve" smooth="yes"/>
      <point x="1054" y="1547"/>
      <point x="1218" y="1422"/>
      <point x="1222" y="1157" type="curve" smooth="yes"/>
      <point x="1229" y="764"/>
      <point x="942" y="544"/>
      <point x="608" y="544" type="curve" smooth="yes"/>
      <point x="518" y="544"/>
      <point x="472" y="545"/>
      <point x="436" y="548" type="curve"/>
      <point x="385" y="116" type="line"/>
      <point x="581" y="87" type="line"/>
      <point x="573" y="0" type="line"/>
    </contour>
    <contour>
      <point x="451" y="678" type="line"/>
      <point x="513" y="668"/>
      <point x="568" y="664"/>
      <point x="618" y="664" type="curve" smooth="yes"/>
      <point x="909" y="667"/>
      <point x="1009" y="835"/>
      <point x="1014" y="1139" type="curve" smooth="yes"/>
      <point x="1017" y="1325"/>
      <point x="959" y="1435"/>
      <point x="733" y="1428" type="curve" smooth="yes"/>
      <point x="683" y="1427"/>
      <point x="601" y="1419"/>
      <point x="546" y="1407" type="curve"/>
    </contour>
  </outline>
</glyph>
<glyph name="X" format="1">
  <advance width="1294"/>
  <unicode hex="0058"/>
  <outline>
    <contour>
      <point x="-62" y="0" type="line"/>
      <point x="-52" y="87" type="line"/>
      <point x="70" y="115" type="line"/>
      <point x="569" y="768" type="line"/>
      <point x="268" y="1403" type="line"/>
      <point x="129" y="1429" type="line"/>
      <point x="139" y="1530" type="line"/>
      <point x="655" y="1530" type="line"/>
      <point x="644" y="1429" type="line"/>
      <point x="499" y="1407" type="line"/>
      <point x="701" y="893" type="line"/>
      <point x="1040" y="1406" type="line"/>
      <point x="900" y="1429" type="line"/>
      <point x="912" y="1530" type="line"/>
      <point x="1381" y="1530" type="line"/>
      <point x="1371" y="1429" type="line"/>
      <point x="1234" y="1407" type="line"/>
      <point x="764" y="776" type="line"/>
      <point x="1086" y="116" type="line"/>
      <point x="1240" y="87" type="line"/>
      <point x="1232" y="0" type="line"/>
      <point x="696" y="0" type="line"/>
      <point x="704" y="87" type="line"/>
      <point x="855" y="115" type="line"/>
      <point x="629" y="644" type="line"/>
      <point x="266" y="116" type="line"/>
      <point x="415" y="86" type="line"/>
      <point x="407" y="0" type="line"/>
    </contour>
  </outline>
</glyph>
<glyph name="Z" format="1">
  <advance width="1191"/>
  <unicode hex="005A"/>
  <outline>
    <contour>
      <point x="24" y="0" type="line"/>
      <point x="-3" y="89" type="line"/>
      <point x="806" y="1217" type="line"/>
      <point x="975" y="1416" type="line"/>
      <point x="399" y="1409" type="line"/>
      <point x="304" y="1162" type="line"/>
      <point x="186" y="1186" type="line"/>
      <point x="242" y="1530" type="line"/>
      <point x="1180" y="1530" type="line"/>
      <point x="1205" y="1444" type="line"/>
      <point x="394" y="303" type="line"/>
      <point x="241" y="107" type="line"/>
      <point x="882" y="132" type="line"/>
      <point x="1007" y="384" type="line"/>
      <point x="1128" y="353" type="line"/>
      <point x="1035" y="0" type="line"/>
    </contour>
  </outline>
</glyph>
<glyph name="bracketleft" format="1">
  <advance width="854"/>
  <unicode hex="005B"/>
  <outline>
    <contour>
      <point x="180" y="-47" type="curve" smooth="yes"/>
      <point x="180" y="-13"/>
      <point x="181" y="23"/>
      <point x="184" y="63" type="curve" smooth="yes"/>
      <point x="205" y="430"/>
      <point x="321" y="1028"/>
      <point x="381" y="1483" type="curve" smooth="yes"/>
      <point x="406" y="1675"/>
      <point x="453" y="1735"/>
      <point x="611" y="1735" type="curve" smooth="yes"/>
      <point x="699" y="1735"/>
      <point x="871" y="1688"/>
      <point x="871" y="1688" type="curve"/>
      <point x="858" y="1601" type="line"/>
      <point x="583" y="1601" type="line"/>
      <point x="360" y="-55" type="line"/>
      <point x="448" y="-55"/>
      <point x="548" y="-57"/>
      <point x="635" y="-57" type="curve"/>
      <point x="631" y="-86"/>
      <point x="628" y="-115"/>
      <point x="625" y="-143" type="curve"/>
      <point x="534" y="-169"/>
      <point x="461" y="-190"/>
      <point x="352" y="-190" type="curve" smooth="yes"/>
      <point x="226" y="-190"/>
      <point x="180" y="-157"/>
    </contour>
  </outline>
</glyph>
<glyph name="backslash" format="1">
  <advance width="854"/>
  <unicode hex="005C"/>
  <outline>
    <contour>
      <point x="702" y="-362" type="line"/>
      <point x="126" y="1597" type="line"/>
      <point x="299" y="1597" type="line"/>
      <point x="876" y="-362" type="line"/>
    </contour>
  </outline>
</glyph>
<glyph name="bracketright" format="1">
  <advance width="854"/>
  <unicode hex="005D"/>
  <outline>
    <contour>
      <point x="725" y="1603" type="curve" smooth="yes"/>
      <point x="725" y="1569"/>
      <point x="724" y="1533"/>
      <point x="721" y="1493" type="curve" smooth="yes"/>
      <point x="700" y="1126"/>
      <point x="584" y="528"/>
      <point x="524" y="73" type="curve" smooth="yes"/>
      <point x="499" y="-119"/>
      <point x="452" y="-179"/>
      <point x="294" y="-179" type="curve" smooth="yes"/>
      <point x="206" y="-179"/>
      <point x="34" y="-132"/>
      <point x="34" y="-132" type="curve"/>
      <point x="47" y="-45" type="line"/>
      <point x="322" y="-45" type="line"/>
      <point x="545" y="1611" type="line"/>
      <point x="457" y="1611"/>
      <point x="357" y="1613"/>
      <point x="270" y="1613" type="curve"/>
      <point x="274" y="1642"/>
      <point x="277" y="1671"/>
      <point x="280" y="1699" type="curve"/>
      <point x="371" y="1725"/>
      <point x="444" y="1746"/>
      <point x="553" y="1746" type="curve" smooth="yes"/>
      <point x="679" y="1746"/>
      <point x="725" y="1713"/>
    </contour>
  </outline>
</glyph>
<glyph name="asciicircum" format="1">
  <advance width="1364"/>
  <unicode hex="005E"/>
  <outline>
    <contour>
      <point x="177" y="510" type="line"/>
      <point x="688" y="1531" type="line"/>
      <point x="885" y="1531" type="line"/>
      <point x="1142" y="510" type="line"/>
      <point x="977" y="510" type="line"/>
      <point x="762" y="1302" type="line"/>
      <point x="342" y="510" type="line"/>
    </contour>
  </outline>
</glyph>
<glyph name="grave" format="1">
  <advance width="541"/>
  <unicode hex="0060"/>
  <outline>
    <contour>
      <point x="436" y="1251" type="line"/>
      <point x="353" y="1286"/>
      <point x="114" y="1464"/>
      <point x="50" y="1576" type="curve"/>
      <point x="203" y="1743" type="line"/>
      <point x="491" y="1311" type="line"/>
    </contour>
  </outline>
</glyph>
<glyph name="k" format="1">
  <advance width="1078"/>
  <unicode hex="006B"/>
  <outline>
    <contour>
      <point x="105" y="0" type="line"/>
      <point x="298" y="1482" type="line"/>
      <point x="181" y="1525" type="line"/>
      <point x="197" y="1608" type="line"/>
      <point x="463" y="1650" type="line"/>
      <point x="515" y="1623" type="line"/>
      <point x="299" y="0" type="line"/>
    </contour>
    <contour>
      <point x="681" y="88" type="curve" smooth="yes"/>
      <point x="396" y="610" type="line"/>
      <point x="398" y="611" type="line"/>
      <point x="396" y="611" type="line"/>
      <point x="531" y="716"/>
      <point x="637" y="777"/>
      <point x="733" y="906" type="curve" smooth="yes"/>
      <point x="776" y="964"/>
      <point x="779" y="1013"/>
      <point x="787" y="1055" type="curve" smooth="yes"/>
      <point x="801" y="1129"/>
      <point x="867" y="1163"/>
      <point x="922" y="1163" type="curve" smooth="yes"/>
      <point x="978" y="1163"/>
      <point x="1026" y="1123"/>
      <point x="1028" y="1066" type="curve" smooth="yes"/>
      <point x="1029" y="1034"/>
      <point x="1019" y="996"/>
      <point x="993" y="958" type="curve" smooth="yes"/>
      <point x="899" y="821"/>
      <point x="672" y="683"/>
      <point x="569" y="620" type="curve"/>
      <point x="831" y="216" type="line" smooth="yes"/>
      <point x="867" y="161"/>
      <point x="917" y="121"/>
      <point x="947" y="121" type="curve" smooth="yes"/>
      <point x="973" y="121"/>
      <point x="1015" y="139"/>
      <point x="1058" y="180" type="curve"/>
      <point x="1092" y="119" type="line"/>
      <point x="1054" y="57"/>
      <point x="948" y="-20"/>
      <point x="837" y="-20" type="curve" smooth="yes"/>
      <point x="783" y="-20"/>
      <point x="724" y="10"/>
    </contour>
  </outline>
</glyph>
<glyph name="n" format="1">
  <advance width="1258"/>
  <unicode hex="006E"/>
  <outline>
    <contour>
      <point x="135" y="0" type="line"/>
      <point x="265" y="963" type="line"/>
      <point x="167" y="1022" type="line"/>
      <point x="185" y="1111" type="line"/>
      <point x="427" y="1163" type="line"/>
      <point x="475" y="1139" type="line"/>
      <point x="455" y="927" type="line"/>
      <point x="563" y="1059"/>
      <point x="714" y="1163"/>
      <point x="863" y="1163" type="curve" smooth="yes"/>
      <point x="1001" y="1163"/>
      <point x="1089" y="1087"/>
      <point x="1089" y="861" type="curve" smooth="yes"/>
      <point x="1089" y="761"/>
      <point x="1058" y="617"/>
      <point x="1038" y="505" type="curve" smooth="yes"/>
      <point x="1020" y="403"/>
      <point x="999" y="289"/>
      <point x="993" y="186" type="curve" smooth="yes"/>
      <point x="990" y="138"/>
      <point x="995" y="110"/>
      <point x="1014" y="110" type="curve" smooth="yes"/>
      <point x="1031" y="110"/>
      <point x="1055" y="119"/>
      <point x="1101" y="156" type="curve"/>
      <point x="1132" y="104" type="line"/>
      <point x="1117" y="79"/>
      <point x="1018" y="-21"/>
      <point x="907" y="-21" type="curve" smooth="yes"/>
      <point x="827" y="-21"/>
      <point x="778" y="14"/>
      <point x="784" y="111" type="curve" smooth="yes"/>
      <point x="789" y="205"/>
      <point x="813" y="331"/>
      <point x="833" y="443" type="curve" smooth="yes"/>
      <point x="854" y="560"/>
      <point x="889" y="725"/>
      <point x="889" y="850" type="curve" smooth="yes"/>
      <point x="889" y="994"/>
      <point x="846" y="1005"/>
      <point x="775" y="1005" type="curve" smooth="yes"/>
      <point x="673" y="1005"/>
      <point x="533" y="896"/>
      <point x="432" y="755" type="curve"/>
      <point x="330" y="0" type="line"/>
    </contour>
  </outline>
</glyph>
<glyph name="q" format="1">
  <advance width="1155"/>
  <unicode hex="0071"/>
  <outline>
    <contour>
      <point x="413" y="-20" type="curve" smooth="yes"/>
      <point x="189" y="-20"/>
      <point x="83" y="162"/>
      <point x="83" y="412" type="curve" smooth="yes"/>
      <point x="83" y="719"/>
      <point x="320" y="1163"/>
      <point x="731" y="1163" type="curve" smooth="yes"/>
      <point x="803" y="1163"/>
      <point x="890" y="1142"/>
      <point x="946" y="1122" type="curve"/>
      <point x="1037" y="1132" type="line"/>
      <point x="847" y="-311" type="line" smooth="yes"/>
      <point x="842" y="-346"/>
      <point x="852" y="-388"/>
      <point x="868" y="-388" type="curve" smooth="yes"/>
      <point x="889" y="-388"/>
      <point x="918" y="-375"/>
      <point x="976" y="-321" type="curve"/>
      <point x="1007" y="-374" type="line"/>
      <point x="990" y="-402"/>
      <point x="880" y="-518"/>
      <point x="760" y="-518" type="curve" smooth="yes"/>
      <point x="681" y="-518"/>
      <point x="642" y="-480"/>
      <point x="646" y="-384" type="curve"/>
      <point x="712" y="128" type="line"/>
      <point x="646" y="51"/>
      <point x="541" y="-20"/>
    </contour>
    <contour>
      <point x="446" y="122" type="curve" smooth="yes"/>
      <point x="562" y="122"/>
      <point x="673" y="212"/>
      <point x="733" y="291" type="curve"/>
      <point x="827" y="1011" type="line"/>
      <point x="791" y="1033"/>
      <point x="748" y="1041"/>
      <point x="700" y="1041" type="curve" smooth="yes"/>
      <point x="414" y="1041"/>
      <point x="288" y="669"/>
      <point x="288" y="426" type="curve" smooth="yes"/>
      <point x="288" y="231"/>
      <point x="349" y="122"/>
    </contour>
  </outline>
</glyph>
<glyph name="x" format="1">
  <advance width="1008"/>
  <unicode hex="0078"/>
  <outline>
    <contour>
      <point x="-22" y="0" type="line"/>
      <point x="407" y="586" type="line"/>
      <point x="224" y="976" type="line" smooth="yes"/>
      <point x="205" y="1015"/>
      <point x="195" y="1032"/>
      <point x="175" y="1032" type="curve" smooth="yes"/>
      <point x="160" y="1032"/>
      <point x="139" y="1023"/>
      <point x="90" y="986" type="curve"/>
      <point x="56" y="1040" type="line"/>
      <point x="70" y="1064"/>
      <point x="169" y="1163"/>
      <point x="276" y="1163" type="curve" smooth="yes"/>
      <point x="366" y="1163"/>
      <point x="384" y="1126"/>
      <point x="408" y="1059" type="curve"/>
      <point x="522" y="717" type="line"/>
      <point x="814" y="1155" type="line"/>
      <point x="1026" y="1155" type="line"/>
      <point x="585" y="560" type="line"/>
      <point x="782" y="167" type="line" smooth="yes"/>
      <point x="800" y="129"/>
      <point x="812" y="111"/>
      <point x="830" y="111" type="curve" smooth="yes"/>
      <point x="850" y="111"/>
      <point x="878" y="124"/>
      <point x="935" y="177" type="curve"/>
      <point x="970" y="123" type="line"/>
      <point x="957" y="95"/>
      <point x="850" y="-20"/>
      <point x="735" y="-20" type="curve" smooth="yes"/>
      <point x="648" y="-20"/>
      <point x="627" y="22"/>
      <point x="604" y="85" type="curve"/>
      <point x="471" y="432" type="line"/>
      <point x="187" y="0" type="line"/>
    </contour>
  </outline>
</glyph>
<glyph name="braceleft" format="1">
  <advance width="1019"/>
  <unicode hex="007B"/>
  <outline>
    <contour>
      <point x="281" y="-47" type="curve" smooth="yes"/>
      <point x="282" y="-18"/>
      <point x="371" y="579"/>
      <point x="371" y="579" type="curve"/>
      <point x="371" y="601"/>
      <point x="351" y="625"/>
      <point x="319" y="646" type="curve" smooth="yes"/>
      <point x="276" y="675"/>
      <point x="213" y="700"/>
      <point x="154" y="714" type="curve"/>
      <point x="172" y="838" type="line"/>
      <point x="237" y="854"/>
      <point x="312" y="876"/>
      <point x="364" y="903" type="curve" smooth="yes"/>
      <point x="400" y="922"/>
      <point x="425" y="943"/>
      <point x="429" y="966" type="curve" smooth="yes"/>
      <point x="506" y="1483" type="line"/>
      <point x="537" y="1681"/>
      <point x="584" y="1735"/>
      <point x="741" y="1735" type="curve" smooth="yes"/>
      <point x="830" y="1735"/>
      <point x="1001" y="1688"/>
      <point x="1001" y="1688" type="curve"/>
      <point x="1001" y="1688"/>
      <point x="989" y="1620"/>
      <point x="988" y="1601" type="curve"/>
      <point x="712" y="1601" type="line"/>
      <point x="616" y="970" type="line" smooth="yes"/>
      <point x="608" y="916"/>
      <point x="571" y="879"/>
      <point x="518" y="846" type="curve" smooth="yes"/>
      <point x="489" y="829"/>
      <point x="373" y="776"/>
      <point x="373" y="776" type="curve"/>
      <point x="432" y="745"/>
      <point x="486" y="714"/>
      <point x="515" y="684" type="curve" smooth="yes"/>
      <point x="545" y="653"/>
      <point x="562" y="616"/>
      <point x="556" y="575" type="curve" smooth="yes"/>
      <point x="461" y="-55" type="line"/>
      <point x="736" y="-55" type="line"/>
      <point x="733" y="-70"/>
      <point x="724" y="-143"/>
      <point x="724" y="-143" type="curve"/>
      <point x="633" y="-169"/>
      <point x="559" y="-190"/>
      <point x="449" y="-190" type="curve" smooth="yes"/>
      <point x="324" y="-190"/>
      <point x="280" y="-157"/>
    </contour>
  </outline>
</glyph>
<glyph name="bar" format="1">
  <advance width="854"/>
  <unicode hex="007C"/>
  <outline>
    <contour>
      <point x="360" y="-186" type="line"/>
      <point x="360" y="1780" type="line"/>
      <point x="533" y="1780" type="line"/>
      <point x="533" y="-186" type="line"/>
    </contour>
  </outline>
</glyph>
<glyph name="braceright" format="1">
  <advance width="1019"/>
  <unicode hex="007D"/>
  <outline>
    <contour>
      <point x="777" y="1593" type="curve" smooth="yes"/>
      <point x="776" y="1564"/>
      <point x="687" y="967"/>
      <point x="687" y="967" type="curve"/>
      <point x="687" y="945"/>
      <point x="707" y="921"/>
      <point x="739" y="900" type="curve" smooth="yes"/>
      <point x="782" y="871"/>
      <point x="845" y="846"/>
      <point x="904" y="832" type="curve"/>
      <point x="886" y="708" type="line"/>
      <point x="821" y="692"/>
      <point x="746" y="670"/>
      <point x="694" y="643" type="curve" smooth="yes"/>
      <point x="658" y="624"/>
      <point x="633" y="603"/>
      <point x="629" y="580" type="curve" smooth="yes"/>
      <point x="552" y="63" type="line"/>
      <point x="521" y="-135"/>
      <point x="474" y="-189"/>
      <point x="317" y="-189" type="curve" smooth="yes"/>
      <point x="228" y="-189"/>
      <point x="57" y="-142"/>
      <point x="57" y="-142" type="curve"/>
      <point x="57" y="-142"/>
      <point x="69" y="-74"/>
      <point x="70" y="-55" type="curve"/>
      <point x="346" y="-55" type="line"/>
      <point x="442" y="576" type="line" smooth="yes"/>
      <point x="450" y="630"/>
      <point x="487" y="667"/>
      <point x="540" y="700" type="curve" smooth="yes"/>
      <point x="569" y="717"/>
      <point x="685" y="770"/>
      <point x="685" y="770" type="curve"/>
      <point x="626" y="801"/>
      <point x="572" y="832"/>
      <point x="543" y="862" type="curve" smooth="yes"/>
      <point x="513" y="893"/>
      <point x="496" y="930"/>
      <point x="502" y="971" type="curve" smooth="yes"/>
      <point x="597" y="1601" type="line"/>
      <point x="322" y="1601" type="line"/>
      <point x="325" y="1616"/>
      <point x="334" y="1689"/>
      <point x="334" y="1689" type="curve"/>
      <point x="425" y="1715"/>
      <point x="499" y="1736"/>
      <point x="609" y="1736" type="curve" smooth="yes"/>
      <point x="734" y="1736"/>
      <point x="778" y="1703"/>
    </contour>
  </outline>
</glyph>
<glyph name="exclamdown" format="1">
  <advance width="686"/>
  <unicode hex="00A1"/>
  <outline>
    <contour>
      <point x="464" y="856" type="line"/>
      <point x="328" y="-434" type="line"/>
      <point x="83" y="-434" type="line"/>
      <point x="326" y="856" type="line"/>
    </contour>
    <contour>
      <point x="581" y="1241" type="curve" smooth="yes"/>
      <point x="570" y="1158"/>
      <point x="498" y="1094"/>
      <point x="423" y="1094" type="curve" smooth="yes"/>
      <point x="328" y="1094"/>
      <point x="294" y="1151"/>
      <point x="303" y="1219" type="curve" smooth="yes"/>
      <point x="315" y="1308"/>
      <point x="392" y="1366"/>
      <point x="471" y="1366" type="curve" smooth="yes"/>
      <point x="542" y="1366"/>
      <point x="591" y="1319"/>
    </contour>
  </outline>
</glyph>
<glyph name="currency" format="1">
  <advance width="1540"/>
  <unicode hex="00A4"/>
  <outline>
    <contour>
      <point x="232" y="243" type="line"/>
      <point x="424" y="435" type="line"/>
      <point x="372" y="506"/>
      <point x="342" y="594"/>
      <point x="342" y="690" type="curve" smooth="yes"/>
      <point x="342" y="784"/>
      <point x="371" y="871"/>
      <point x="422" y="942" type="curve"/>
      <point x="229" y="1135" type="line"/>
      <point x="342" y="1249" type="line"/>
      <point x="536" y="1053" type="line"/>
      <point x="606" y="1100"/>
      <point x="691" y="1128"/>
      <point x="782" y="1128" type="curve" smooth="yes"/>
      <point x="877" y="1128"/>
      <point x="966" y="1098"/>
      <point x="1038" y="1047" type="curve"/>
      <point x="1228" y="1236" type="line"/>
      <point x="1341" y="1122" type="line"/>
      <point x="1150" y="931" type="line"/>
      <point x="1195" y="862"/>
      <point x="1222" y="779"/>
      <point x="1222" y="690" type="curve" smooth="yes"/>
      <point x="1222" y="597"/>
      <point x="1193" y="512"/>
      <point x="1145" y="442" type="curve"/>
      <point x="1339" y="248" type="line"/>
      <point x="1225" y="135" type="line"/>
      <point x="1031" y="328" type="line"/>
      <point x="960" y="280"/>
      <point x="874" y="252"/>
      <point x="782" y="252" type="curve" smooth="yes"/>
      <point x="692" y="252"/>
      <point x="609" y="278"/>
      <point x="540" y="324" type="curve"/>
      <point x="346" y="130" type="line"/>
    </contour>
    <contour>
      <point x="490" y="690" type="curve" smooth="yes"/>
      <point x="490" y="523"/>
      <point x="620" y="385"/>
      <point x="782" y="385" type="curve" smooth="yes"/>
      <point x="944" y="385"/>
      <point x="1074" y="523"/>
      <point x="1074" y="690" type="curve" smooth="yes"/>
      <point x="1074" y="857"/>
      <point x="944" y="995"/>
      <point x="782" y="995" type="curve" smooth="yes"/>
      <point x="620" y="995"/>
      <point x="490" y="857"/>
    </contour>
  </outline>
</glyph>
<glyph name="dieresis" format="1">
  <advance width="809"/>
  <unicode hex="00A8"/>
  <outline>
    <contour>
      <point x="596" y="1388" type="curve" smooth="yes"/>
      <point x="531" y="1388"/>
      <point x="478" y="1443"/>
      <point x="481" y="1508" type="curve" smooth="yes"/>
      <point x="484" y="1584"/>
      <point x="553" y="1651"/>
      <point x="626" y="1651" type="curve" smooth="yes"/>
      <point x="702" y="1651"/>
      <point x="751" y="1598"/>
      <point x="748" y="1536" type="curve" smooth="yes"/>
      <point x="745" y="1458"/>
      <point x="676" y="1388"/>
    </contour>
    <contour>
      <point x="176" y="1388" type="curve" smooth="yes"/>
      <point x="111" y="1388"/>
      <point x="58" y="1443"/>
      <point x="61" y="1508" type="curve" smooth="yes"/>
      <point x="64" y="1584"/>
      <point x="133" y="1651"/>
      <point x="206" y="1651" type="curve" smooth="yes"/>
      <point x="282" y="1651"/>
      <point x="331" y="1598"/>
      <point x="328" y="1536" type="curve" smooth="yes"/>
      <point x="325" y="1458"/>
      <point x="256" y="1388"/>
    </contour>
  </outline>
</glyph>
<glyph name="copyright" format="1">
  <advance width="1768"/>
  <unicode hex="00A9"/>
  <outline>
    <contour>
      <point x="178" y="806" type="curve" smooth="yes"/>
      <point x="178" y="1224"/>
      <point x="517" y="1559"/>
      <point x="933" y="1559" type="curve" smooth="yes"/>
      <point x="1349" y="1559"/>
      <point x="1689" y="1224"/>
      <point x="1689" y="806" type="curve" smooth="yes"/>
      <point x="1689" y="387"/>
      <point x="1349" y="52"/>
      <point x="933" y="52" type="curve" smooth="yes"/>
      <point x="517" y="52"/>
      <point x="178" y="387"/>
    </contour>
    <contour>
      <point x="297" y="806" type="curve" smooth="yes"/>
      <point x="297" y="449"/>
      <point x="577" y="158"/>
      <point x="933" y="158" type="curve" smooth="yes"/>
      <point x="1290" y="158"/>
      <point x="1570" y="449"/>
      <point x="1570" y="806" type="curve" smooth="yes"/>
      <point x="1570" y="1162"/>
      <point x="1290" y="1454"/>
      <point x="933" y="1454" type="curve" smooth="yes"/>
      <point x="577" y="1454"/>
      <point x="297" y="1162"/>
    </contour>
    <contour>
      <point x="542" y="802" type="curve" smooth="yes"/>
      <point x="540" y="1042"/>
      <point x="701" y="1247"/>
      <point x="969" y="1247" type="curve" smooth="yes"/>
      <point x="1059" y="1247"/>
      <point x="1162" y="1231"/>
      <point x="1203" y="1209" type="curve"/>
      <point x="1203" y="1004" type="line"/>
      <point x="1129" y="1004" type="line"/>
      <point x="1075" y="1124" type="line"/>
      <point x="1046" y="1150"/>
      <point x="994" y="1163"/>
      <point x="928" y="1163" type="curve" smooth="yes"/>
      <point x="808" y="1163"/>
      <point x="697" y="1067"/>
      <point x="696" y="861" type="curve" smooth="yes"/>
      <point x="694" y="582"/>
      <point x="843" y="465"/>
      <point x="965" y="465" type="curve" smooth="yes"/>
      <point x="1061" y="465"/>
      <point x="1141" y="500"/>
      <point x="1185" y="525" type="curve"/>
      <point x="1213" y="458" type="line"/>
      <point x="1156" y="411"/>
      <point x="1039" y="366"/>
      <point x="920" y="366" type="curve" smooth="yes"/>
      <point x="681" y="366"/>
      <point x="543" y="563"/>
    </contour>
  </outline>
</glyph>
<glyph name="guillemotleft" format="1">
  <advance width="1878"/>
  <unicode hex="00AB"/>
  <outline>
    <contour>
      <point x="223" y="530" type="line"/>
      <point x="245" y="690" type="line"/>
      <point x="937" y="1086" type="line"/>
      <point x="975" y="971" type="line"/>
      <point x="465" y="615" type="line"/>
      <point x="879" y="264" type="line"/>
      <point x="809" y="152" type="line"/>
    </contour>
    <contour>
      <point x="899" y="530" type="line"/>
      <point x="921" y="690" type="line"/>
      <point x="1613" y="1086" type="line"/>
      <point x="1651" y="971" type="line"/>
      <point x="1141" y="615" type="line"/>
      <point x="1555" y="264" type="line"/>
      <point x="1485" y="152" type="line"/>
    </contour>
  </outline>
</glyph>
<glyph name="logicalnot" format="1">
  <advance width="1370"/>
  <unicode hex="00AC"/>
  <outline>
    <contour>
      <point x="213" y="721" type="line"/>
      <point x="228" y="853" type="line"/>
      <point x="1188" y="853" type="line"/>
      <point x="1126" y="322" type="line"/>
      <point x="949" y="322" type="line"/>
      <point x="996" y="721" type="line"/>
    </contour>
  </outline>
</glyph>
<glyph name="plusminus" format="1">
  <advance width="1370"/>
  <unicode hex="00B1"/>
  <outline>
    <contour>
      <point x="562" y="295" type="line"/>
      <point x="589" y="536" type="line"/>
      <point x="615" y="700" type="line"/>
      <point x="474" y="693" type="line"/>
      <point x="249" y="693" type="line"/>
      <point x="267" y="851" type="line"/>
      <point x="492" y="851" type="line"/>
      <point x="631" y="840" type="line"/>
      <point x="635" y="895"/>
      <point x="641" y="951"/>
      <point x="645" y="1005" type="curve"/>
      <point x="671" y="1235" type="line"/>
      <point x="849" y="1235" type="line"/>
      <point x="823" y="1005" type="line"/>
      <point x="794" y="841" type="line"/>
      <point x="909" y="851" type="line"/>
      <point x="1164" y="851" type="line"/>
      <point x="1146" y="693" type="line"/>
      <point x="891" y="693" type="line"/>
      <point x="779" y="700" type="line"/>
      <point x="776" y="645"/>
      <point x="771" y="591"/>
      <point x="768" y="536" type="curve"/>
      <point x="741" y="295" type="line"/>
    </contour>
    <contour>
      <point x="180" y="30" type="line"/>
      <point x="197" y="180" type="line"/>
      <point x="1066" y="180" type="line"/>
      <point x="1049" y="30" type="line"/>
    </contour>
  </outline>
</glyph>
<glyph name="twosuperior" format="1">
  <advance width="1163"/>
  <unicode hex="00B2"/>
  <outline>
    <contour>
      <point x="235" y="637" type="line"/>
      <point x="190" y="733" type="line"/>
      <point x="356" y="823"/>
      <point x="834" y="1117"/>
      <point x="834" y="1353" type="curve" smooth="yes"/>
      <point x="834" y="1456"/>
      <point x="754" y="1494"/>
      <point x="650" y="1494" type="curve" smooth="yes"/>
      <point x="537" y="1494"/>
      <point x="428" y="1447"/>
      <point x="339" y="1356" type="curve"/>
      <point x="269" y="1450" type="line"/>
      <point x="330" y="1530"/>
      <point x="515" y="1644"/>
      <point x="720" y="1647" type="curve" smooth="yes"/>
      <point x="940" y="1650"/>
      <point x="1036" y="1522"/>
      <point x="1036" y="1418" type="curve" smooth="yes"/>
      <point x="1036" y="1162"/>
      <point x="767" y="963"/>
      <point x="458" y="763" type="curve"/>
      <point x="910" y="788" type="line"/>
      <point x="995" y="923" type="line"/>
      <point x="1098" y="894" type="line"/>
      <point x="1013" y="637" type="line"/>
    </contour>
  </outline>
</glyph>
<glyph name="acute" format="1">
  <advance width="559"/>
  <unicode hex="00B4"/>
  <outline>
    <contour>
      <point x="103" y="1251" type="curve"/>
      <point x="50" y="1312" type="line"/>
      <point x="367" y="1743" type="line"/>
      <point x="509" y="1576" type="line"/>
      <point x="473" y="1508"/>
      <point x="222" y="1297"/>
    </contour>
  </outline>
</glyph>
<glyph name="threequarters" format="1">
  <advance width="2560"/>
  <unicode hex="00BE"/>
  <outline>
    <contour>
      <point x="863" y="0" type="line"/>
      <point x="1544" y="1530" type="line"/>
      <point x="1703" y="1530" type="line"/>
      <point x="1022" y="0" type="line"/>
    </contour>
    <contour>
      <point x="262" y="606" type="curve"/>
      <point x="279" y="714" type="line"/>
      <point x="350" y="679"/>
      <point x="455" y="662"/>
      <point x="520" y="663" type="curve" smooth="yes"/>
      <point x="653" y="664"/>
      <point x="836" y="734"/>
      <point x="841" y="896" type="curve"/>
      <point x="847" y="992"/>
      <point x="773" y="1043"/>
      <point x="666" y="1046" type="curve"/>
      <point x="462" y="1001" type="line"/>
      <point x="483" y="1126" type="line"/>
      <point x="624" y="1154"/>
      <point x="828" y="1223"/>
      <point x="849" y="1400" type="curve" smooth="yes"/>
      <point x="858" y="1478"/>
      <point x="800" y="1515"/>
      <point x="692" y="1512" type="curve" smooth="yes"/>
      <point x="600" y="1510"/>
      <point x="487" y="1474"/>
      <point x="403" y="1418" type="curve"/>
      <point x="367" y="1520" type="line"/>
      <point x="481" y="1599"/>
      <point x="632" y="1644"/>
      <point x="776" y="1644" type="curve" smooth="yes"/>
      <point x="970" y="1644"/>
      <point x="1065" y="1546"/>
      <point x="1061" y="1428" type="curve" smooth="yes"/>
      <point x="1057" y="1281"/>
      <point x="939" y="1187"/>
      <point x="798" y="1134" type="curve"/>
      <point x="1005" y="1135"/>
      <point x="1051" y="997"/>
      <point x="1048" y="904" type="curve" smooth="yes"/>
      <point x="1040" y="662"/>
      <point x="776" y="534"/>
      <point x="542" y="534" type="curve" smooth="yes"/>
      <point x="471" y="534"/>
      <point x="339" y="557"/>
    </contour>
    <contour>
      <point x="1828" y="-177" type="line"/>
      <point x="1876" y="166" type="line"/>
      <point x="1384" y="166" type="line"/>
      <point x="1347" y="261" type="line"/>
      <point x="1953" y="1112" type="line"/>
      <point x="2041" y="1113" type="line"/>
      <point x="2134" y="1009" type="line"/>
      <point x="1616" y="366" type="line"/>
      <point x="1537" y="274" type="line"/>
      <point x="1895" y="303" type="line"/>
      <point x="1933" y="575" type="line"/>
      <point x="2135" y="598" type="line"/>
      <point x="2097" y="319" type="line"/>
      <point x="2361" y="341" type="line"/>
      <point x="2341" y="166" type="line"/>
      <point x="2077" y="166" type="line"/>
      <point x="2031" y="-177" type="line"/>
    </contour>
  </outline>
</glyph>
<glyph name="Aacute" format="1">
  <advance width="1342"/>
  <unicode hex="00C1"/>
  <outline>
    <contour>
      <point x="-3" y="115" type="line"/>
      <point x="706" y="1530" type="line"/>
      <point x="905" y="1530" type="line"/>
      <point x="1158" y="118" type="line"/>
      <point x="1314" y="86" type="line"/>
      <point x="1307" y="0" type="line"/>
      <point x="799" y="0" type="line"/>
      <point x="804" y="86" type="line"/>
      <point x="960" y="115" type="line"/>
      <point x="910" y="436" type="line"/>
      <point x="338" y="436" type="line"/>
      <point x="188" y="116" type="line"/>
      <point x="347" y="86" type="line"/>
      <point x="341" y="0" type="line"/>
      <point x="-130" y="0" type="line"/>
      <point x="-121" y="86" type="line"/>
    </contour>
    <contour>
      <point x="395" y="557" type="line"/>
      <point x="892" y="557" type="line"/>
      <point x="786" y="1246" type="line"/>
      <point x="775" y="1364" type="line"/>
    </contour>
    <contour>
      <point x="826" y="1613" type="curve"/>
      <point x="773" y="1658" type="line"/>
      <point x="1049" y="2000" type="line"/>
      <point x="1173" y="1862" type="line"/>
      <point x="1121" y="1751"/>
      <point x="922" y="1649"/>
    </contour>
  </outline>
</glyph>
<glyph name="Atilde" format="1">
  <advance width="1342"/>
  <unicode hex="00C3"/>
  <outline>
    <contour>
      <point x="-3" y="115" type="line"/>
      <point x="706" y="1530" type="line"/>
      <point x="905" y="1530" type="line"/>
      <point x="1158" y="118" type="line"/>
      <point x="1314" y="86" type="line"/>
      <point x="1307" y="0" type="line"/>
      <point x="799" y="0" type="line"/>
      <point x="804" y="86" type="line"/>
      <point x="960" y="115" type="line"/>
      <point x="910" y="436" type="line"/>
      <point x="338" y="436" type="line"/>
      <point x="188" y="116" type="line"/>
      <point x="347" y="86" type="line"/>
      <point x="341" y="0" type="line"/>
      <point x="-130" y="0" type="line"/>
      <point x="-121" y="86" type="line"/>
    </contour>
    <contour>
      <point x="395" y="557" type="line"/>
      <point x="892" y="557" type="line"/>
      <point x="786" y="1246" type="line"/>
      <point x="775" y="1364" type="line"/>
    </contour>
    <contour>
      <point x="541" y="1717" type="curve"/>
      <point x="494" y="1801" type="line"/>
      <point x="537" y="1887"/>
      <point x="637" y="1970"/>
      <point x="741" y="1970" type="curve" smooth="yes"/>
      <point x="874" y="1970"/>
      <point x="906" y="1830"/>
      <point x="998" y="1830" type="curve" smooth="yes"/>
      <point x="1072" y="1830"/>
      <point x="1114" y="1892"/>
      <point x="1152" y="1940" type="curve"/>
      <point x="1210" y="1849" type="line"/>
      <point x="1176" y="1747"/>
      <point x="1073" y="1668"/>
      <point x="959" y="1668" type="curve" smooth="yes"/>
      <point x="796" y="1668"/>
      <point x="799" y="1806"/>
      <point x="688" y="1808" type="curve" smooth="yes"/>
      <point x="643" y="1809"/>
      <point x="579" y="1757"/>
    </contour>
  </outline>
</glyph>
<glyph name="Adieresis" format="1">
  <advance width="1342"/>
  <unicode hex="00C4"/>
  <outline>
    <contour>
      <point x="-3" y="115" type="line"/>
      <point x="706" y="1530" type="line"/>
      <point x="905" y="1530" type="line"/>
      <point x="1158" y="118" type="line"/>
      <point x="1314" y="86" type="line"/>
      <point x="1307" y="0" type="line"/>
      <point x="799" y="0" type="line"/>
      <point x="804" y="86" type="line"/>
      <point x="960" y="115" type="line"/>
      <point x="910" y="436" type="line"/>
      <point x="338" y="436" type="line"/>
      <point x="188" y="116" type="line"/>
      <point x="347" y="86" type="line"/>
      <point x="341" y="0" type="line"/>
      <point x="-130" y="0" type="line"/>
      <point x="-121" y="86" type="line"/>
    </contour>
    <contour>
      <point x="395" y="557" type="line"/>
      <point x="892" y="557" type="line"/>
      <point x="786" y="1246" type="line"/>
      <point x="775" y="1364" type="line"/>
    </contour>
    <contour>
      <point x="1034" y="1696" type="curve" smooth="yes"/>
      <point x="971" y="1696"/>
      <point x="919" y="1749"/>
      <point x="919" y="1815" type="curve" smooth="yes"/>
      <point x="919" y="1892"/>
      <point x="1001" y="1959"/>
      <point x="1065" y="1959" type="curve" smooth="yes"/>
      <point x="1141" y="1959"/>
      <point x="1189" y="1906"/>
      <point x="1186" y="1843" type="curve" smooth="yes"/>
      <point x="1183" y="1766"/>
      <point x="1114" y="1696"/>
    </contour>
    <contour>
      <point x="615" y="1696" type="curve" smooth="yes"/>
      <point x="552" y="1696"/>
      <point x="499" y="1751"/>
      <point x="502" y="1815" type="curve" smooth="yes"/>
      <point x="505" y="1892"/>
      <point x="580" y="1959"/>
      <point x="645" y="1959" type="curve" smooth="yes"/>
      <point x="722" y="1959"/>
      <point x="769" y="1906"/>
      <point x="767" y="1843" type="curve" smooth="yes"/>
      <point x="764" y="1766"/>
      <point x="693" y="1696"/>
    </contour>
  </outline>
</glyph>
<glyph name="Ccedilla" format="1">
  <advance width="1261"/>
  <unicode hex="00C7"/>
  <outline>
    <contour>
      <point x="333" y="-303" type="line"/>
      <point x="350" y="-312"/>
      <point x="373" y="-317"/>
      <point x="404" y="-317" type="curve" smooth="yes"/>
      <point x="486" y="-317"/>
      <point x="557" y="-265"/>
      <point x="573" y="-117" type="curve" smooth="yes"/>
      <point x="577" y="-71"/>
      <point x="578" y="-40"/>
      <point x="576" y="-15" type="curve"/>
      <point x="231" y="0"/>
      <point x="98" y="324"/>
      <point x="93" y="627" type="curve" smooth="yes"/>
      <point x="83" y="1175"/>
      <point x="431" y="1546"/>
      <point x="829" y="1546" type="curve" smooth="yes"/>
      <point x="1008" y="1546"/>
      <point x="1122" y="1517"/>
      <point x="1184" y="1500" type="curve" smooth="yes"/>
      <point x="1222" y="1489" type="line"/>
      <point x="1156" y="1122" type="line"/>
      <point x="1039" y="1122" type="line"/>
      <point x="1016" y="1382" type="line"/>
      <point x="981" y="1408"/>
      <point x="927" y="1428"/>
      <point x="805" y="1428" type="curve" smooth="yes"/>
      <point x="421" y="1428"/>
      <point x="297" y="946"/>
      <point x="302" y="648" type="curve" smooth="yes"/>
      <point x="307" y="386"/>
      <point x="398" y="101"/>
      <point x="641" y="101" type="curve" smooth="yes"/>
      <point x="734" y="101"/>
      <point x="868" y="131"/>
      <point x="908" y="205" type="curve"/>
      <point x="976" y="402" type="line"/>
      <point x="1097" y="401" type="line"/>
      <point x="1057" y="70" type="line"/>
      <point x="998" y="52"/>
      <point x="871" y="2"/>
      <point x="698" y="-12" type="curve"/>
      <point x="709" y="-56"/>
      <point x="711" y="-118"/>
      <point x="704" y="-183" type="curve" smooth="yes"/>
      <point x="680" y="-408"/>
      <point x="584" y="-462"/>
      <point x="436" y="-462" type="curve" smooth="yes"/>
      <point x="383" y="-462"/>
      <point x="320" y="-450"/>
      <point x="298" y="-434" type="curve"/>
    </contour>
  </outline>
</glyph>
<glyph name="Ecircumflex" format="1">
  <advance width="1219"/>
  <unicode hex="00CA"/>
  <outline>
    <contour>
      <point x="18" y="0" type="line"/>
      <point x="28" y="86" type="line"/>
      <point x="177" y="115" type="line"/>
      <point x="337" y="1406" type="line"/>
      <point x="204" y="1429" type="line"/>
      <point x="216" y="1530" type="line"/>
      <point x="1143" y="1530" type="line"/>
      <point x="1136" y="1220" type="line"/>
      <point x="1030" y="1220" type="line"/>
      <point x="982" y="1408" type="line"/>
      <point x="541" y="1422" type="line"/>
      <point x="469" y="854" type="line"/>
      <point x="916" y="861" type="line"/>
      <point x="904" y="705" type="line"/>
      <point x="457" y="721" type="line"/>
      <point x="374" y="116" type="line"/>
      <point x="925" y="140" type="line"/>
      <point x="1044" y="347" type="line"/>
      <point x="1148" y="316" type="line"/>
      <point x="1059" y="0" type="line"/>
    </contour>
    <contour>
      <point x="483" y="1614" type="line"/>
      <point x="422" y="1672" type="line"/>
      <point x="727" y="2000" type="line"/>
      <point x="904" y="2000" type="line"/>
      <point x="1116" y="1672" type="line"/>
      <point x="1048" y="1613" type="line"/>
      <point x="807" y="1842" type="line"/>
    </contour>
  </outline>
</glyph>
<glyph name="Idieresis" format="1">
  <advance width="706"/>
  <unicode hex="00CF"/>
  <outline>
    <contour>
      <point x="30" y="0" type="line"/>
      <point x="39" y="86" type="line"/>
      <point x="187" y="116" type="line"/>
      <point x="348" y="1406" type="line"/>
      <point x="215" y="1429" type="line"/>
      <point x="227" y="1530" type="line"/>
      <point x="710" y="1530" type="line"/>
      <point x="699" y="1429" type="line"/>
      <point x="546" y="1406" type="line"/>
      <point x="385" y="116" type="line"/>
      <point x="542" y="87" type="line"/>
      <point x="534" y="0" type="line"/>
    </contour>
    <contour>
      <point x="717" y="1696" type="curve" smooth="yes"/>
      <point x="654" y="1696"/>
      <point x="602" y="1749"/>
      <point x="602" y="1815" type="curve" smooth="yes"/>
      <point x="602" y="1892"/>
      <point x="684" y="1959"/>
      <point x="748" y="1959" type="curve" smooth="yes"/>
      <point x="824" y="1959"/>
      <point x="872" y="1906"/>
      <point x="869" y="1843" type="curve" smooth="yes"/>
      <point x="866" y="1766"/>
      <point x="797" y="1696"/>
    </contour>
    <contour>
      <point x="298" y="1696" type="curve" smooth="yes"/>
      <point x="235" y="1696"/>
      <point x="182" y="1751"/>
      <point x="185" y="1815" type="curve" smooth="yes"/>
      <point x="188" y="1892"/>
      <point x="263" y="1959"/>
      <point x="328" y="1959" type="curve" smooth="yes"/>
      <point x="405" y="1959"/>
      <point x="452" y="1906"/>
      <point x="450" y="1843" type="curve" smooth="yes"/>
      <point x="447" y="1766"/>
      <point x="376" y="1696"/>
    </contour>
  </outline>
</glyph>
<glyph name="Ntilde" format="1">
  <advance width="1517"/>
  <unicode hex="00D1"/>
  <outline>
    <contour>
      <point x="34" y="0" type="line"/>
      <point x="42" y="86" type="line"/>
      <point x="178" y="114" type="line"/>
      <point x="347" y="1406" type="line"/>
      <point x="201" y="1429" type="line"/>
      <point x="218" y="1530" type="line"/>
      <point x="557" y="1530" type="line"/>
      <point x="1025" y="418" type="line"/>
      <point x="1096" y="185" type="line"/>
      <point x="1240" y="1407" type="line"/>
      <point x="1090" y="1429" type="line"/>
      <point x="1102" y="1530" type="line"/>
      <point x="1553" y="1530" type="line"/>
      <point x="1543" y="1429" type="line"/>
      <point x="1397" y="1406" type="line"/>
      <point x="1194" y="0" type="line"/>
      <point x="1006" y="0" type="line"/>
      <point x="533" y="1115" type="line"/>
      <point x="472" y="1336" type="line"/>
      <point x="345" y="116" type="line"/>
      <point x="505" y="87" type="line"/>
      <point x="497" y="0" type="line"/>
    </contour>
    <contour>
      <point x="633" y="1717" type="curve"/>
      <point x="586" y="1801" type="line"/>
      <point x="629" y="1887"/>
      <point x="729" y="1970"/>
      <point x="833" y="1970" type="curve" smooth="yes"/>
      <point x="966" y="1970"/>
      <point x="998" y="1830"/>
      <point x="1090" y="1830" type="curve" smooth="yes"/>
      <point x="1164" y="1830"/>
      <point x="1206" y="1892"/>
      <point x="1244" y="1940" type="curve"/>
      <point x="1302" y="1849" type="line"/>
      <point x="1268" y="1747"/>
      <point x="1165" y="1668"/>
      <point x="1051" y="1668" type="curve" smooth="yes"/>
      <point x="888" y="1668"/>
      <point x="891" y="1806"/>
      <point x="780" y="1808" type="curve" smooth="yes"/>
      <point x="735" y="1809"/>
      <point x="671" y="1757"/>
    </contour>
  </outline>
</glyph>
<glyph name="Otilde" format="1">
  <advance width="1386"/>
  <unicode hex="00D5"/>
  <outline>
    <contour>
      <point x="619" y="-20" type="curve" smooth="yes"/>
      <point x="314" y="-20"/>
      <point x="114" y="240"/>
      <point x="107" y="641" type="curve" smooth="yes"/>
      <point x="97" y="1175"/>
      <point x="418" y="1550"/>
      <point x="810" y="1550" type="curve" smooth="yes"/>
      <point x="1135" y="1550"/>
      <point x="1300" y="1245"/>
      <point x="1306" y="892" type="curve" smooth="yes"/>
      <point x="1315" y="371"/>
      <point x="1017" y="-20"/>
    </contour>
    <contour>
      <point x="647" y="100" type="curve" smooth="yes"/>
      <point x="909" y="98"/>
      <point x="1113" y="414"/>
      <point x="1105" y="854" type="curve" smooth="yes"/>
      <point x="1099" y="1220"/>
      <point x="987" y="1425"/>
      <point x="776" y="1425" type="curve" smooth="yes"/>
      <point x="515" y="1425"/>
      <point x="304" y="1128"/>
      <point x="311" y="730" type="curve" smooth="yes"/>
      <point x="318" y="353"/>
      <point x="400" y="102"/>
    </contour>
    <contour>
      <point x="555" y="1717" type="curve"/>
      <point x="508" y="1801" type="line"/>
      <point x="551" y="1887"/>
      <point x="651" y="1970"/>
      <point x="755" y="1970" type="curve" smooth="yes"/>
      <point x="888" y="1970"/>
      <point x="920" y="1830"/>
      <point x="1012" y="1830" type="curve" smooth="yes"/>
      <point x="1086" y="1830"/>
      <point x="1128" y="1892"/>
      <point x="1166" y="1940" type="curve"/>
      <point x="1224" y="1849" type="line"/>
      <point x="1190" y="1747"/>
      <point x="1087" y="1668"/>
      <point x="973" y="1668" type="curve" smooth="yes"/>
      <point x="810" y="1668"/>
      <point x="813" y="1806"/>
      <point x="702" y="1808" type="curve" smooth="yes"/>
      <point x="657" y="1809"/>
      <point x="593" y="1757"/>
    </contour>
  </outline>
</glyph>
<glyph name="Udieresis" format="1">
  <advance width="1379"/>
  <unicode hex="00DC"/>
  <outline>
    <contour>
      <point x="145" y="428" type="curve" smooth="yes"/>
      <point x="144" y="480"/>
      <point x="147" y="534"/>
      <point x="153" y="593" type="curve"/>
      <point x="260" y="1407" type="line"/>
      <point x="127" y="1430" type="line"/>
      <point x="139" y="1530" type="line"/>
      <point x="622" y="1530" type="line"/>
      <point x="611" y="1430" type="line"/>
      <point x="460" y="1405" type="line"/>
      <point x="356" y="610" type="line"/>
      <point x="348" y="537"/>
      <point x="344" y="475"/>
      <point x="345" y="418" type="curve" smooth="yes"/>
      <point x="349" y="202"/>
      <point x="452" y="90"/>
      <point x="627" y="90" type="curve" smooth="yes"/>
      <point x="853" y="90"/>
      <point x="987" y="276"/>
      <point x="1027" y="626" type="curve"/>
      <point x="1130" y="1405" type="line"/>
      <point x="997" y="1429" type="line"/>
      <point x="1008" y="1530" type="line"/>
      <point x="1440" y="1530" type="line"/>
      <point x="1429" y="1429" type="line"/>
      <point x="1305" y="1407" type="line"/>
      <point x="1201" y="627" type="line"/>
      <point x="1140" y="155"/>
      <point x="938" y="-20"/>
      <point x="597" y="-20" type="curve" smooth="yes"/>
      <point x="309" y="-20"/>
      <point x="150" y="152"/>
    </contour>
    <contour>
      <point x="1029" y="1696" type="curve" smooth="yes"/>
      <point x="966" y="1696"/>
      <point x="914" y="1749"/>
      <point x="914" y="1815" type="curve" smooth="yes"/>
      <point x="914" y="1892"/>
      <point x="996" y="1959"/>
      <point x="1060" y="1959" type="curve" smooth="yes"/>
      <point x="1136" y="1959"/>
      <point x="1184" y="1906"/>
      <point x="1181" y="1843" type="curve" smooth="yes"/>
      <point x="1178" y="1766"/>
      <point x="1109" y="1696"/>
    </contour>
    <contour>
      <point x="610" y="1696" type="curve" smooth="yes"/>
      <point x="547" y="1696"/>
      <point x="494" y="1751"/>
      <point x="497" y="1815" type="curve" smooth="yes"/>
      <point x="500" y="1892"/>
      <point x="575" y="1959"/>
      <point x="640" y="1959" type="curve" smooth="yes"/>
      <point x="717" y="1959"/>
      <point x="764" y="1906"/>
      <point x="762" y="1843" type="curve" smooth="yes"/>
      <point x="759" y="1766"/>
      <point x="688" y="1696"/>
    </contour>
  </outline>
</glyph>
<glyph name="Yacute" format="1">
  <advance width="1173"/>
  <unicode hex="00DD"/>
  <outline>
    <contour>
      <point x="243" y="0" type="line"/>
      <point x="251" y="87" type="line"/>
      <point x="447" y="116" type="line"/>
      <point x="508" y="590" type="line"/>
      <point x="144" y="1406" type="line"/>
      <point x="40" y="1429" type="line"/>
      <point x="50" y="1530" type="line"/>
      <point x="539" y="1530" type="line"/>
      <point x="527" y="1429" type="line"/>
      <point x="367" y="1406" type="line"/>
      <point x="595" y="838" type="line"/>
      <point x="631" y="712" type="line"/>
      <point x="703" y="838" type="line"/>
      <point x="1046" y="1406" type="line"/>
      <point x="907" y="1429" type="line"/>
      <point x="918" y="1530" type="line"/>
      <point x="1330" y="1530" type="line"/>
      <point x="1319" y="1429" type="line"/>
      <point x="1220" y="1407" type="line"/>
      <point x="696" y="590" type="line"/>
      <point x="635" y="116" type="line"/>
      <point x="848" y="87" type="line"/>
      <point x="840" y="0" type="line"/>
    </contour>
    <contour>
      <point x="739" y="1613" type="curve"/>
      <point x="686" y="1658" type="line"/>
      <point x="962" y="2000" type="line"/>
      <point x="1086" y="1862" type="line"/>
      <point x="1034" y="1751"/>
      <point x="835" y="1649"/>
    </contour>
  </outline>
</glyph>
<glyph name="germandbls" format="1">
  <advance width="1184"/>
  <unicode hex="00DF"/>
  <outline>
    <contour>
      <point x="73" y="0" type="line"/>
      <point x="202" y="927" type="line"/>
      <point x="278" y="1527"/>
      <point x="560" y="1585"/>
      <point x="775" y="1585" type="curve" smooth="yes"/>
      <point x="956" y="1585"/>
      <point x="1091" y="1487"/>
      <point x="1091" y="1293" type="curve" smooth="yes"/>
      <point x="1091" y="1019"/>
      <point x="833" y="986"/>
      <point x="833" y="841" type="curve" smooth="yes"/>
      <point x="833" y="791"/>
      <point x="873" y="730"/>
      <point x="957" y="626" type="curve"/>
      <point x="1011" y="544"/>
      <point x="1070" y="458"/>
      <point x="1070" y="328" type="curve" smooth="yes"/>
      <point x="1070" y="139"/>
      <point x="868" y="-16"/>
      <point x="645" y="-16" type="curve" smooth="yes"/>
      <point x="558" y="-16"/>
      <point x="468" y="9"/>
      <point x="424" y="31" type="curve"/>
      <point x="450" y="218" type="line"/>
      <point x="484" y="178"/>
      <point x="590" y="115"/>
      <point x="678" y="116" type="curve" smooth="yes"/>
      <point x="777" y="117"/>
      <point x="864" y="144"/>
      <point x="864" y="298" type="curve" smooth="yes"/>
      <point x="864" y="377"/>
      <point x="826" y="459"/>
      <point x="786" y="523" type="curve"/>
      <point x="727" y="593"/>
      <point x="652" y="706"/>
      <point x="652" y="793" type="curve" smooth="yes"/>
      <point x="652" y="888"/>
      <point x="697" y="933"/>
      <point x="756" y="999" type="curve"/>
      <point x="836" y="1080"/>
      <point x="889" y="1173"/>
      <point x="889" y="1287" type="curve" smooth="yes"/>
      <point x="889" y="1385"/>
      <point x="834" y="1464"/>
      <point x="718" y="1464" type="curve" smooth="yes"/>
      <point x="559" y="1464"/>
      <point x="443" y="1303"/>
      <point x="388" y="867" type="curve"/>
      <point x="267" y="0" type="line"/>
    </contour>
  </outline>
</glyph>
<glyph name="agrave" format="1">
  <advance width="1173"/>
  <unicode hex="00E0"/>
  <outline>
    <contour>
      <point x="413" y="-20" type="curve" smooth="yes"/>
      <point x="189" y="-20"/>
      <point x="83" y="162"/>
      <point x="83" y="412" type="curve" smooth="yes"/>
      <point x="83" y="719"/>
      <point x="320" y="1163"/>
      <point x="731" y="1163" type="curve" smooth="yes"/>
      <point x="796" y="1163"/>
      <point x="873" y="1146"/>
      <point x="929" y="1128" type="curve"/>
      <point x="1048" y="1162" type="line"/>
      <point x="917" y="187" type="line" smooth="yes"/>
      <point x="910" y="133"/>
      <point x="931" y="111"/>
      <point x="947" y="111" type="curve" smooth="yes"/>
      <point x="965" y="111"/>
      <point x="988" y="120"/>
      <point x="1035" y="157" type="curve"/>
      <point x="1066" y="104" type="line"/>
      <point x="1053" y="80"/>
      <point x="956" y="-20"/>
      <point x="843" y="-20" type="curve" smooth="yes"/>
      <point x="763" y="-20"/>
      <point x="711" y="18"/>
      <point x="716" y="115" type="curve"/>
      <point x="718" y="136" type="line"/>
      <point x="652" y="56"/>
      <point x="545" y="-20"/>
    </contour>
    <contour>
      <point x="450" y="122" type="curve" smooth="yes"/>
      <point x="574" y="122"/>
      <point x="683" y="218"/>
      <point x="740" y="298" type="curve"/>
      <point x="832" y="1008" type="line"/>
      <point x="796" y="1033"/>
      <point x="750" y="1041"/>
      <point x="700" y="1041" type="curve" smooth="yes"/>
      <point x="414" y="1041"/>
      <point x="288" y="679"/>
      <point x="288" y="436" type="curve" smooth="yes"/>
      <point x="288" y="241"/>
      <point x="350" y="122"/>
    </contour>
    <contour>
      <point x="722" y="1251" type="line"/>
      <point x="639" y="1286"/>
      <point x="400" y="1464"/>
      <point x="336" y="1576" type="curve"/>
      <point x="489" y="1743" type="line"/>
      <point x="777" y="1311" type="line"/>
    </contour>
  </outline>
</glyph>
<glyph name="adieresis" format="1">
  <advance width="1173"/>
  <unicode hex="00E4"/>
  <outline>
    <contour>
      <point x="413" y="-20" type="curve" smooth="yes"/>
      <point x="189" y="-20"/>
      <point x="83" y="162"/>
      <point x="83" y="412" type="curve" smooth="yes"/>
      <point x="83" y="719"/>
      <point x="320" y="1163"/>
      <point x="731" y="1163" type="curve" smooth="yes"/>
      <point x="796" y="1163"/>
      <point x="873" y="1146"/>
      <point x="929" y="1128" type="curve"/>
      <point x="1048" y="1162" type="line"/>
      <point x="917" y="187" type="line" smooth="yes"/>
      <point x="910" y="133"/>
      <point x="931" y="111"/>
      <point x="947" y="111" type="curve" smooth="yes"/>
      <point x="965" y="111"/>
      <point x="988" y="120"/>
      <point x="1035" y="157" type="curve"/>
      <point x="1066" y="104" type="line"/>
      <point x="1053" y="80"/>
      <point x="956" y="-20"/>
      <point x="843" y="-20" type="curve" smooth="yes"/>
      <point x="763" y="-20"/>
      <point x="711" y="18"/>
      <point x="716" y="115" type="curve"/>
      <point x="718" y="136" type="line"/>
      <point x="652" y="56"/>
      <point x="545" y="-20"/>
    </contour>
    <contour>
      <point x="450" y="122" type="curve" smooth="yes"/>
      <point x="574" y="122"/>
      <point x="683" y="218"/>
      <point x="740" y="298" type="curve"/>
      <point x="832" y="1008" type="line"/>
      <point x="796" y="1033"/>
      <point x="750" y="1041"/>
      <point x="700" y="1041" type="curve" smooth="yes"/>
      <point x="414" y="1041"/>
      <point x="288" y="679"/>
      <point x="288" y="436" type="curve" smooth="yes"/>
      <point x="288" y="241"/>
      <point x="350" y="122"/>
    </contour>
    <contour>
      <point x="939" y="1388" type="curve" smooth="yes"/>
      <point x="874" y="1388"/>
      <point x="821" y="1443"/>
      <point x="824" y="1508" type="curve" smooth="yes"/>
      <point x="827" y="1584"/>
      <point x="896" y="1651"/>
      <point x="969" y="1651" type="curve" smooth="yes"/>
      <point x="1045" y="1651"/>
      <point x="1094" y="1598"/>
      <point x="1091" y="1536" type="curve" smooth="yes"/>
      <point x="1088" y="1458"/>
      <point x="1019" y="1388"/>
    </contour>
    <contour>
      <point x="519" y="1388" type="curve" smooth="yes"/>
      <point x="454" y="1388"/>
      <point x="401" y="1443"/>
      <point x="404" y="1508" type="curve" smooth="yes"/>
      <point x="407" y="1584"/>
      <point x="476" y="1651"/>
      <point x="549" y="1651" type="curve" smooth="yes"/>
      <point x="625" y="1651"/>
      <point x="674" y="1598"/>
      <point x="671" y="1536" type="curve" smooth="yes"/>
      <point x="668" y="1458"/>
      <point x="599" y="1388"/>
    </contour>
  </outline>
</glyph>
<glyph name="aring" format="1">
  <advance width="1173"/>
  <unicode hex="00E5"/>
  <outline>
    <contour>
      <point x="413" y="-20" type="curve" smooth="yes"/>
      <point x="189" y="-20"/>
      <point x="83" y="162"/>
      <point x="83" y="412" type="curve" smooth="yes"/>
      <point x="83" y="719"/>
      <point x="320" y="1163"/>
      <point x="731" y="1163" type="curve" smooth="yes"/>
      <point x="796" y="1163"/>
      <point x="873" y="1146"/>
      <point x="929" y="1128" type="curve"/>
      <point x="1048" y="1162" type="line"/>
      <point x="917" y="187" type="line" smooth="yes"/>
      <point x="910" y="133"/>
      <point x="931" y="111"/>
      <point x="947" y="111" type="curve" smooth="yes"/>
      <point x="965" y="111"/>
      <point x="988" y="120"/>
      <point x="1035" y="157" type="curve"/>
      <point x="1066" y="104" type="line"/>
      <point x="1053" y="80"/>
      <point x="956" y="-20"/>
      <point x="843" y="-20" type="curve" smooth="yes"/>
      <point x="763" y="-20"/>
      <point x="711" y="18"/>
      <point x="716" y="115" type="curve"/>
      <point x="718" y="136" type="line"/>
      <point x="652" y="56"/>
      <point x="545" y="-20"/>
    </contour>
    <contour>
      <point x="450" y="122" type="curve" smooth="yes"/>
      <point x="574" y="122"/>
      <point x="683" y="218"/>
      <point x="740" y="298" type="curve"/>
      <point x="832" y="1008" type="line"/>
      <point x="796" y="1033"/>
      <point x="750" y="1041"/>
      <point x="700" y="1041" type="curve" smooth="yes"/>
      <point x="414" y="1041"/>
      <point x="288" y="679"/>
      <point x="288" y="436" type="curve" smooth="yes"/>
      <point x="288" y="241"/>
      <point x="350" y="122"/>
    </contour>
    <contour>
      <point x="736" y="1253" type="curve" smooth="yes"/>
      <point x="534" y="1253"/>
      <point x="440" y="1362"/>
      <point x="459" y="1526" type="curve"/>
      <point x="482" y="1710"/>
      <point x="655" y="1786"/>
      <point x="806" y="1786" type="curve" smooth="yes"/>
      <point x="994" y="1786"/>
      <point x="1097" y="1687"/>
      <point x="1078" y="1521" type="curve" smooth="yes"/>
      <point x="1057" y="1336"/>
      <point x="894" y="1253"/>
    </contour>
    <contour>
      <point x="751" y="1339" type="curve"/>
      <point x="853" y="1338"/>
      <point x="925" y="1380"/>
      <point x="939" y="1514" type="curve" smooth="yes"/>
      <point x="950" y="1622"/>
      <point x="887" y="1697"/>
      <point x="790" y="1698" type="curve" smooth="yes"/>
      <point x="690" y="1699"/>
      <point x="612" y="1653"/>
      <point x="599" y="1526" type="curve" smooth="yes"/>
      <point x="588" y="1424"/>
      <point x="657" y="1342"/>
    </contour>
  </outline>
</glyph>
<glyph name="egrave" format="1">
  <advance width="1051"/>
  <unicode hex="00E8"/>
  <outline>
    <contour>
      <point x="86" y="430" type="curve" smooth="yes"/>
      <point x="96" y="807"/>
      <point x="345" y="1163"/>
      <point x="676" y="1163" type="curve" smooth="yes"/>
      <point x="868" y="1163"/>
      <point x="960" y="1054"/>
      <point x="960" y="913" type="curve" smooth="yes"/>
      <point x="960" y="603"/>
      <point x="485" y="466"/>
      <point x="295" y="460" type="curve"/>
      <point x="281" y="333"/>
      <point x="328" y="119"/>
      <point x="510" y="119" type="curve" smooth="yes"/>
      <point x="610" y="119"/>
      <point x="735" y="158"/>
      <point x="850" y="265" type="curve"/>
      <point x="896" y="182" type="line"/>
      <point x="839" y="103"/>
      <point x="680" y="-20"/>
      <point x="486" y="-20" type="curve" smooth="yes"/>
      <point x="203" y="-20"/>
      <point x="80" y="202"/>
    </contour>
    <contour>
      <point x="300" y="570" type="curve"/>
      <point x="462" y="577"/>
      <point x="755" y="693"/>
      <point x="755" y="896" type="curve" smooth="yes"/>
      <point x="755" y="1001"/>
      <point x="703" y="1046"/>
      <point x="629" y="1046" type="curve" smooth="yes"/>
      <point x="425" y="1046"/>
      <point x="320" y="738"/>
    </contour>
    <contour>
      <point x="643" y="1251" type="line"/>
      <point x="560" y="1286"/>
      <point x="321" y="1464"/>
      <point x="257" y="1576" type="curve"/>
      <point x="410" y="1743" type="line"/>
      <point x="698" y="1311" type="line"/>
    </contour>
  </outline>
</glyph>
<glyph name="edieresis" format="1">
  <advance width="1051"/>
  <unicode hex="00EB"/>
  <outline>
    <contour>
      <point x="86" y="430" type="curve" smooth="yes"/>
      <point x="96" y="807"/>
      <point x="345" y="1163"/>
      <point x="676" y="1163" type="curve" smooth="yes"/>
      <point x="868" y="1163"/>
      <point x="960" y="1054"/>
      <point x="960" y="913" type="curve" smooth="yes"/>
      <point x="960" y="603"/>
      <point x="485" y="466"/>
      <point x="295" y="460" type="curve"/>
      <point x="281" y="333"/>
      <point x="328" y="119"/>
      <point x="510" y="119" type="curve" smooth="yes"/>
      <point x="610" y="119"/>
      <point x="735" y="158"/>
      <point x="850" y="265" type="curve"/>
      <point x="896" y="182" type="line"/>
      <point x="839" y="103"/>
      <point x="680" y="-20"/>
      <point x="486" y="-20" type="curve" smooth="yes"/>
      <point x="203" y="-20"/>
      <point x="80" y="202"/>
    </contour>
    <contour>
      <point x="300" y="570" type="curve"/>
      <point x="462" y="577"/>
      <point x="755" y="693"/>
      <point x="755" y="896" type="curve" smooth="yes"/>
      <point x="755" y="1001"/>
      <point x="703" y="1046"/>
      <point x="629" y="1046" type="curve" smooth="yes"/>
      <point x="425" y="1046"/>
      <point x="320" y="738"/>
    </contour>
    <contour>
      <point x="860" y="1388" type="curve" smooth="yes"/>
      <point x="795" y="1388"/>
      <point x="742" y="1443"/>
      <point x="745" y="1508" type="curve" smooth="yes"/>
      <point x="748" y="1584"/>
      <point x="817" y="1651"/>
      <point x="890" y="1651" type="curve" smooth="yes"/>
      <point x="966" y="1651"/>
      <point x="1015" y="1598"/>
      <point x="1012" y="1536" type="curve" smooth="yes"/>
      <point x="1009" y="1458"/>
      <point x="940" y="1388"/>
    </contour>
    <contour>
      <point x="440" y="1388" type="curve" smooth="yes"/>
      <point x="375" y="1388"/>
      <point x="322" y="1443"/>
      <point x="325" y="1508" type="curve" smooth="yes"/>
      <point x="328" y="1584"/>
      <point x="397" y="1651"/>
      <point x="470" y="1651" type="curve" smooth="yes"/>
      <point x="546" y="1651"/>
      <point x="595" y="1598"/>
      <point x="592" y="1536" type="curve" smooth="yes"/>
      <point x="589" y="1458"/>
      <point x="520" y="1388"/>
    </contour>
  </outline>
</glyph>
<glyph name="igrave" format="1">
  <advance width="641"/>
  <unicode hex="00EC"/>
  <outline>
    <contour>
      <point x="163" y="112" type="curve" smooth="yes"/>
      <point x="175" y="273"/>
      <point x="233" y="596"/>
      <point x="288" y="980" type="curve"/>
      <point x="140" y="1031" type="line"/>
      <point x="158" y="1112" type="line"/>
      <point x="460" y="1163" type="line"/>
      <point x="509" y="1139" type="line"/>
      <point x="370" y="187" type="line" smooth="yes"/>
      <point x="363" y="138"/>
      <point x="371" y="111"/>
      <point x="392" y="111" type="curve" smooth="yes"/>
      <point x="413" y="111"/>
      <point x="442" y="124"/>
      <point x="499" y="178" type="curve"/>
      <point x="531" y="125" type="line"/>
      <point x="512" y="96"/>
      <point x="407" y="-20"/>
      <point x="286" y="-20" type="curve" smooth="yes"/>
      <point x="206" y="-20"/>
      <point x="156" y="15"/>
    </contour>
    <contour>
      <point x="434" y="1251" type="line"/>
      <point x="351" y="1286"/>
      <point x="112" y="1464"/>
      <point x="48" y="1576" type="curve"/>
      <point x="201" y="1743" type="line"/>
      <point x="489" y="1311" type="line"/>
    </contour>
  </outline>
</glyph>
<glyph name="idieresis" format="1">
  <advance width="641"/>
  <unicode hex="00EF"/>
  <outline>
    <contour>
      <point x="163" y="112" type="curve" smooth="yes"/>
      <point x="175" y="273"/>
      <point x="233" y="596"/>
      <point x="288" y="980" type="curve"/>
      <point x="140" y="1031" type="line"/>
      <point x="158" y="1112" type="line"/>
      <point x="460" y="1163" type="line"/>
      <point x="509" y="1139" type="line"/>
      <point x="370" y="187" type="line" smooth="yes"/>
      <point x="363" y="138"/>
      <point x="371" y="111"/>
      <point x="392" y="111" type="curve" smooth="yes"/>
      <point x="413" y="111"/>
      <point x="442" y="124"/>
      <point x="499" y="178" type="curve"/>
      <point x="531" y="125" type="line"/>
      <point x="512" y="96"/>
      <point x="407" y="-20"/>
      <point x="286" y="-20" type="curve" smooth="yes"/>
      <point x="206" y="-20"/>
      <point x="156" y="15"/>
    </contour>
    <contour>
      <point x="651" y="1388" type="curve" smooth="yes"/>
      <point x="586" y="1388"/>
      <point x="533" y="1443"/>
      <point x="536" y="1508" type="curve" smooth="yes"/>
      <point x="539" y="1584"/>
      <point x="608" y="1651"/>
      <point x="681" y="1651" type="curve" smooth="yes"/>
      <point x="757" y="1651"/>
      <point x="806" y="1598"/>
      <point x="803" y="1536" type="curve" smooth="yes"/>
      <point x="800" y="1458"/>
      <point x="731" y="1388"/>
    </contour>
    <contour>
      <point x="231" y="1388" type="curve" smooth="yes"/>
      <point x="166" y="1388"/>
      <point x="113" y="1443"/>
      <point x="116" y="1508" type="curve" smooth="yes"/>
      <point x="119" y="1584"/>
      <point x="188" y="1651"/>
      <point x="261" y="1651" type="curve" smooth="yes"/>
      <point x="337" y="1651"/>
      <point x="386" y="1598"/>
      <point x="383" y="1536" type="curve" smooth="yes"/>
      <point x="380" y="1458"/>
      <point x="311" y="1388"/>
    </contour>
  </outline>
</glyph>
<glyph name="ntilde" format="1">
  <advance width="1258"/>
  <unicode hex="00F1"/>
  <outline>
    <contour>
      <point x="135" y="0" type="line"/>
      <point x="265" y="963" type="line"/>
      <point x="167" y="1022" type="line"/>
      <point x="185" y="1111" type="line"/>
      <point x="427" y="1163" type="line"/>
      <point x="475" y="1139" type="line"/>
      <point x="455" y="927" type="line"/>
      <point x="563" y="1059"/>
      <point x="714" y="1163"/>
      <point x="863" y="1163" type="curve" smooth="yes"/>
      <point x="1001" y="1163"/>
      <point x="1089" y="1087"/>
      <point x="1089" y="861" type="curve" smooth="yes"/>
      <point x="1089" y="761"/>
      <point x="1058" y="617"/>
      <point x="1038" y="505" type="curve" smooth="yes"/>
      <point x="1020" y="403"/>
      <point x="999" y="289"/>
      <point x="993" y="186" type="curve" smooth="yes"/>
      <point x="990" y="138"/>
      <point x="995" y="110"/>
      <point x="1014" y="110" type="curve" smooth="yes"/>
      <point x="1031" y="110"/>
      <point x="1055" y="119"/>
      <point x="1101" y="156" type="curve"/>
      <point x="1132" y="104" type="line"/>
      <point x="1117" y="79"/>
      <point x="1018" y="-21"/>
      <point x="907" y="-21" type="curve" smooth="yes"/>
      <point x="827" y="-21"/>
      <point x="778" y="14"/>
      <point x="784" y="111" type="curve" smooth="yes"/>
      <point x="789" y="205"/>
      <point x="813" y="331"/>
      <point x="833" y="443" type="curve" smooth="yes"/>
      <point x="854" y="560"/>
      <point x="889" y="725"/>
      <point x="889" y="850" type="curve" smooth="yes"/>
      <point x="889" y="994"/>
      <point x="846" y="1005"/>
      <point x="775" y="1005" type="curve" smooth="yes"/>
      <point x="673" y="1005"/>
      <point x="533" y="896"/>
      <point x="432" y="755" type="curve"/>
      <point x="330" y="0" type="line"/>
    </contour>
    <contour>
      <point x="409" y="1397" type="curve"/>
      <point x="362" y="1481" type="line"/>
      <point x="405" y="1567"/>
      <point x="505" y="1650"/>
      <point x="609" y="1650" type="curve" smooth="yes"/>
      <point x="742" y="1650"/>
      <point x="774" y="1510"/>
      <point x="866" y="1510" type="curve" smooth="yes"/>
      <point x="940" y="1510"/>
      <point x="982" y="1572"/>
      <point x="1020" y="1620" type="curve"/>
      <point x="1078" y="1529" type="line"/>
      <point x="1044" y="1427"/>
      <point x="941" y="1348"/>
      <point x="827" y="1348" type="curve" smooth="yes"/>
      <point x="664" y="1348"/>
      <point x="667" y="1486"/>
      <point x="556" y="1488" type="curve" smooth="yes"/>
      <point x="511" y="1489"/>
      <point x="447" y="1437"/>
    </contour>
  </outline>
</glyph>
<glyph name="oacute" format="1">
  <advance width="1143"/>
  <unicode hex="00F3"/>
  <outline>
    <contour>
      <point x="87" y="439" type="curve" smooth="yes"/>
      <point x="81" y="802"/>
      <point x="318" y="1163"/>
      <point x="654" y="1163" type="curve" smooth="yes"/>
      <point x="907" y="1163"/>
      <point x="1046" y="994"/>
      <point x="1051" y="703" type="curve" smooth="yes"/>
      <point x="1057" y="340"/>
      <point x="819" y="-20"/>
      <point x="483" y="-20" type="curve" smooth="yes"/>
      <point x="230" y="-20"/>
      <point x="92" y="148"/>
    </contour>
    <contour>
      <point x="518" y="102" type="curve" smooth="yes"/>
      <point x="746" y="102"/>
      <point x="847" y="445"/>
      <point x="842" y="702" type="curve"/>
      <point x="839" y="913"/>
      <point x="764" y="1041"/>
      <point x="618" y="1041" type="curve" smooth="yes"/>
      <point x="390" y="1041"/>
      <point x="289" y="698"/>
      <point x="294" y="441" type="curve"/>
      <point x="297" y="230"/>
      <point x="372" y="102"/>
    </contour>
    <contour>
      <point x="596" y="1251" type="curve"/>
      <point x="543" y="1312" type="line"/>
      <point x="860" y="1743" type="line"/>
      <point x="1002" y="1576" type="line"/>
      <point x="966" y="1508"/>
      <point x="715" y="1297"/>
    </contour>
  </outline>
</glyph>
<glyph name="odieresis" format="1">
  <advance width="1143"/>
  <unicode hex="00F6"/>
  <outline>
    <contour>
      <point x="87" y="439" type="curve" smooth="yes"/>
      <point x="81" y="802"/>
      <point x="318" y="1163"/>
      <point x="654" y="1163" type="curve" smooth="yes"/>
      <point x="907" y="1163"/>
      <point x="1046" y="994"/>
      <point x="1051" y="703" type="curve" smooth="yes"/>
      <point x="1057" y="340"/>
      <point x="819" y="-20"/>
      <point x="483" y="-20" type="curve" smooth="yes"/>
      <point x="230" y="-20"/>
      <point x="92" y="148"/>
    </contour>
    <contour>
      <point x="518" y="102" type="curve" smooth="yes"/>
      <point x="746" y="102"/>
      <point x="847" y="445"/>
      <point x="842" y="702" type="curve"/>
      <point x="839" y="913"/>
      <point x="764" y="1041"/>
      <point x="618" y="1041" type="curve" smooth="yes"/>
      <point x="390" y="1041"/>
      <point x="289" y="698"/>
      <point x="294" y="441" type="curve"/>
      <point x="297" y="230"/>
      <point x="372" y="102"/>
    </contour>
    <contour>
      <point x="868" y="1388" type="curve" smooth="yes"/>
      <point x="803" y="1388"/>
      <point x="750" y="1443"/>
      <point x="753" y="1508" type="curve" smooth="yes"/>
      <point x="756" y="1584"/>
      <point x="825" y="1651"/>
      <point x="898" y="1651" type="curve" smooth="yes"/>
      <point x="974" y="1651"/>
      <point x="1023" y="1598"/>
      <point x="1020" y="1536" type="curve" smooth="yes"/>
      <point x="1017" y="1458"/>
      <point x="948" y="1388"/>
    </contour>
    <contour>
      <point x="448" y="1388" type="curve" smooth="yes"/>
      <point x="383" y="1388"/>
      <point x="330" y="1443"/>
      <point x="333" y="1508" type="curve" smooth="yes"/>
      <point x="336" y="1584"/>
      <point x="405" y="1651"/>
      <point x="478" y="1651" type="curve" smooth="yes"/>
      <point x="554" y="1651"/>
      <point x="603" y="1598"/>
      <point x="600" y="1536" type="curve" smooth="yes"/>
      <point x="597" y="1458"/>
      <point x="528" y="1388"/>
    </contour>
  </outline>
</glyph>
<glyph name="ugrave" format="1">
  <advance width="1207"/>
  <unicode hex="00F9"/>
  <outline>
    <contour>
      <point x="165" y="255" type="curve" smooth="yes"/>
      <point x="165" y="343"/>
      <point x="184" y="478"/>
      <point x="200" y="597" type="curve" smooth="yes"/>
      <point x="250" y="963" type="line"/>
      <point x="152" y="1022" type="line"/>
      <point x="170" y="1111" type="line"/>
      <point x="412" y="1163" type="line"/>
      <point x="460" y="1139" type="line"/>
      <point x="391" y="589" type="line" smooth="yes"/>
      <point x="376" y="468"/>
      <point x="361" y="387"/>
      <point x="361" y="286" type="curve" smooth="yes"/>
      <point x="361" y="147"/>
      <point x="417" y="117"/>
      <point x="504" y="117" type="curve" smooth="yes"/>
      <point x="596" y="117"/>
      <point x="696" y="179"/>
      <point x="761" y="246" type="curve"/>
      <point x="881" y="1155" type="line"/>
      <point x="1074" y="1155" type="line"/>
      <point x="949" y="189" type="line" smooth="yes"/>
      <point x="942" y="137"/>
      <point x="949" y="113"/>
      <point x="971" y="113" type="curve" smooth="yes"/>
      <point x="992" y="113"/>
      <point x="1018" y="126"/>
      <point x="1077" y="180" type="curve"/>
      <point x="1108" y="127" type="line"/>
      <point x="1091" y="98"/>
      <point x="981" y="-18"/>
      <point x="861" y="-18" type="curve" smooth="yes"/>
      <point x="776" y="-18"/>
      <point x="738" y="36"/>
      <point x="750" y="120" type="curve"/>
      <point x="677" y="49"/>
      <point x="571" y="-20"/>
      <point x="420" y="-20" type="curve" smooth="yes"/>
      <point x="266" y="-20"/>
      <point x="165" y="46"/>
    </contour>
    <contour>
      <point x="674" y="1251" type="line"/>
      <point x="591" y="1286"/>
      <point x="352" y="1464"/>
      <point x="288" y="1576" type="curve"/>
      <point x="441" y="1743" type="line"/>
      <point x="729" y="1311" type="line"/>
    </contour>
  </outline>
</glyph>
<glyph name="Aogonek" format="1">
  <advance width="1342"/>
  <unicode hex="0104"/>
  <outline>
    <contour>
      <point x="-3" y="115" type="line"/>
      <point x="706" y="1530" type="line"/>
      <point x="905" y="1530" type="line"/>
      <point x="1158" y="118" type="line"/>
      <point x="1314" y="86" type="line"/>
      <point x="1307" y="0" type="line"/>
      <point x="1123" y="0" type="line"/>
      <point x="1033" y="-73"/>
      <point x="964" y="-138"/>
      <point x="963" y="-201" type="curve"/>
      <point x="959" y="-266"/>
      <point x="993" y="-287"/>
      <point x="1016" y="-287" type="curve" smooth="yes"/>
      <point x="1052" y="-287"/>
      <point x="1090" y="-272"/>
      <point x="1146" y="-228" type="curve"/>
      <point x="1172" y="-322" type="line"/>
      <point x="1120" y="-368"/>
      <point x="1038" y="-416"/>
      <point x="922" y="-416" type="curve" smooth="yes"/>
      <point x="815" y="-416"/>
      <point x="766" y="-343"/>
      <point x="769" y="-280" type="curve" smooth="yes"/>
      <point x="771" y="-238"/>
      <point x="785" y="-188"/>
      <point x="810" y="-156" type="curve" smooth="yes"/>
      <point x="873" y="-72"/>
      <point x="942" y="-38"/>
      <point x="1007" y="0" type="curve"/>
      <point x="799" y="0" type="line"/>
      <point x="804" y="86" type="line"/>
      <point x="960" y="115" type="line"/>
      <point x="910" y="436" type="line"/>
      <point x="338" y="436" type="line"/>
      <point x="188" y="116" type="line"/>
      <point x="347" y="86" type="line"/>
      <point x="341" y="0" type="line"/>
      <point x="-130" y="0" type="line"/>
      <point x="-121" y="86" type="line"/>
    </contour>
    <contour>
      <point x="395" y="557" type="line"/>
      <point x="892" y="557" type="line"/>
      <point x="786" y="1246" type="line"/>
      <point x="775" y="1364" type="line"/>
    </contour>
  </outline>
</glyph>
<glyph name="aogonek" format="1">
  <advance width="1173"/>
  <unicode hex="0105"/>
  <outline>
    <contour>
      <point x="413" y="-20" type="curve" smooth="yes"/>
      <point x="189" y="-20"/>
      <point x="83" y="162"/>
      <point x="83" y="412" type="curve" smooth="yes"/>
      <point x="83" y="719"/>
      <point x="320" y="1163"/>
      <point x="731" y="1163" type="curve" smooth="yes"/>
      <point x="796" y="1163"/>
      <point x="873" y="1146"/>
      <point x="929" y="1128" type="curve"/>
      <point x="1048" y="1162" type="line"/>
      <point x="917" y="187" type="line" smooth="yes"/>
      <point x="910" y="133"/>
      <point x="931" y="111"/>
      <point x="947" y="111" type="curve" smooth="yes"/>
      <point x="965" y="111"/>
      <point x="988" y="120"/>
      <point x="1035" y="157" type="curve"/>
      <point x="1066" y="104" type="line"/>
      <point x="1059" y="92"/>
      <point x="1032" y="61"/>
      <point x="992" y="33" type="curve"/>
      <point x="883" y="-54"/>
      <point x="793" y="-128"/>
      <point x="791" y="-201" type="curve"/>
      <point x="787" y="-266"/>
      <point x="821" y="-287"/>
      <point x="844" y="-287" type="curve" smooth="yes"/>
      <point x="880" y="-287"/>
      <point x="918" y="-272"/>
      <point x="974" y="-228" type="curve"/>
      <point x="1000" y="-322" type="line"/>
      <point x="948" y="-368"/>
      <point x="866" y="-416"/>
      <point x="750" y="-416" type="curve" smooth="yes"/>
      <point x="643" y="-416"/>
      <point x="594" y="-343"/>
      <point x="597" y="-280" type="curve" smooth="yes"/>
      <point x="599" y="-238"/>
      <point x="613" y="-188"/>
      <point x="638" y="-156" type="curve" smooth="yes"/>
      <point x="692" y="-85"/>
      <point x="749" y="-49"/>
      <point x="805" y="-17" type="curve"/>
      <point x="747" y="-6"/>
      <point x="712" y="34"/>
      <point x="716" y="115" type="curve"/>
      <point x="718" y="136" type="line"/>
      <point x="652" y="56"/>
      <point x="545" y="-20"/>
    </contour>
    <contour>
      <point x="450" y="122" type="curve" smooth="yes"/>
      <point x="574" y="122"/>
      <point x="683" y="218"/>
      <point x="740" y="298" type="curve"/>
      <point x="832" y="1008" type="line"/>
      <point x="796" y="1033"/>
      <point x="750" y="1041"/>
      <point x="700" y="1041" type="curve" smooth="yes"/>
      <point x="414" y="1041"/>
      <point x="288" y="679"/>
      <point x="288" y="436" type="curve" smooth="yes"/>
      <point x="288" y="241"/>
      <point x="350" y="122"/>
    </contour>
  </outline>
</glyph>
<glyph name="Cacute" format="1">
  <advance width="1261"/>
  <unicode hex="0106"/>
  <outline>
    <contour>
      <point x="602" y="-16" type="curve" smooth="yes"/>
      <point x="238" y="-16"/>
      <point x="98" y="317"/>
      <point x="93" y="627" type="curve" smooth="yes"/>
      <point x="83" y="1175"/>
      <point x="431" y="1546"/>
      <point x="829" y="1546" type="curve" smooth="yes"/>
      <point x="1008" y="1546"/>
      <point x="1122" y="1517"/>
      <point x="1184" y="1500" type="curve" smooth="yes"/>
      <point x="1222" y="1489" type="line"/>
      <point x="1156" y="1122" type="line"/>
      <point x="1039" y="1122" type="line"/>
      <point x="1016" y="1382" type="line"/>
      <point x="981" y="1408"/>
      <point x="927" y="1428"/>
      <point x="805" y="1428" type="curve" smooth="yes"/>
      <point x="421" y="1428"/>
      <point x="297" y="946"/>
      <point x="302" y="648" type="curve" smooth="yes"/>
      <point x="307" y="386"/>
      <point x="398" y="101"/>
      <point x="641" y="101" type="curve" smooth="yes"/>
      <point x="734" y="101"/>
      <point x="868" y="131"/>
      <point x="908" y="205" type="curve"/>
      <point x="976" y="402" type="line"/>
      <point x="1097" y="401" type="line"/>
      <point x="1057" y="70" type="line"/>
      <point x="988" y="49"/>
      <point x="824" y="-16"/>
    </contour>
    <contour>
      <point x="806" y="1613" type="curve"/>
      <point x="753" y="1658" type="line"/>
      <point x="1029" y="2000" type="line"/>
      <point x="1153" y="1862" type="line"/>
      <point x="1101" y="1751"/>
      <point x="902" y="1649"/>
    </contour>
  </outline>
</glyph>
<glyph name="Cdotaccent" format="1">
  <advance width="1261"/>
  <unicode hex="010A"/>
  <outline>
    <contour>
      <point x="602" y="-16" type="curve" smooth="yes"/>
      <point x="238" y="-16"/>
      <point x="98" y="317"/>
      <point x="93" y="627" type="curve" smooth="yes"/>
      <point x="83" y="1175"/>
      <point x="431" y="1546"/>
      <point x="829" y="1546" type="curve" smooth="yes"/>
      <point x="1008" y="1546"/>
      <point x="1122" y="1517"/>
      <point x="1184" y="1500" type="curve" smooth="yes"/>
      <point x="1222" y="1489" type="line"/>
      <point x="1156" y="1122" type="line"/>
      <point x="1039" y="1122" type="line"/>
      <point x="1016" y="1382" type="line"/>
      <point x="981" y="1408"/>
      <point x="927" y="1428"/>
      <point x="805" y="1428" type="curve" smooth="yes"/>
      <point x="421" y="1428"/>
      <point x="297" y="946"/>
      <point x="302" y="648" type="curve" smooth="yes"/>
      <point x="307" y="386"/>
      <point x="398" y="101"/>
      <point x="641" y="101" type="curve" smooth="yes"/>
      <point x="734" y="101"/>
      <point x="868" y="131"/>
      <point x="908" y="205" type="curve"/>
      <point x="976" y="402" type="line"/>
      <point x="1097" y="401" type="line"/>
      <point x="1057" y="70" type="line"/>
      <point x="988" y="49"/>
      <point x="824" y="-16"/>
    </contour>
    <contour>
      <point x="806" y="1691" type="curve" smooth="yes"/>
      <point x="741" y="1691"/>
      <point x="688" y="1746"/>
      <point x="691" y="1810" type="curve" smooth="yes"/>
      <point x="694" y="1887"/>
      <point x="771" y="1954"/>
      <point x="835" y="1954" type="curve" smooth="yes"/>
      <point x="911" y="1954"/>
      <point x="961" y="1901"/>
      <point x="958" y="1838" type="curve" smooth="yes"/>
      <point x="955" y="1761"/>
      <point x="884" y="1691"/>
    </contour>
  </outline>
</glyph>
<glyph name="cdotaccent" format="1">
  <advance width="903"/>
  <unicode hex="010B"/>
  <outline>
    <contour>
      <point x="442" y="-20" type="curve" smooth="yes"/>
      <point x="216" y="-20"/>
      <point x="84" y="147"/>
      <point x="84" y="430" type="curve" smooth="yes"/>
      <point x="84" y="737"/>
      <point x="288" y="1163"/>
      <point x="673" y="1163" type="curve" smooth="yes"/>
      <point x="745" y="1163"/>
      <point x="836" y="1144"/>
      <point x="893" y="1115" type="curve"/>
      <point x="835" y="921" type="line"/>
      <point x="773" y="975"/>
      <point x="699" y="1016"/>
      <point x="627" y="1016" type="curve" smooth="yes"/>
      <point x="427" y="1016"/>
      <point x="293" y="820"/>
      <point x="293" y="460" type="curve" smooth="yes"/>
      <point x="293" y="222"/>
      <point x="374" y="119"/>
      <point x="498" y="119" type="curve" smooth="yes"/>
      <point x="595" y="119"/>
      <point x="656" y="153"/>
      <point x="766" y="232" type="curve"/>
      <point x="805" y="151" type="line"/>
      <point x="756" y="95"/>
      <point x="631" y="-20"/>
    </contour>
    <contour>
      <point x="662" y="1388" type="curve" smooth="yes"/>
      <point x="597" y="1388"/>
      <point x="544" y="1443"/>
      <point x="547" y="1508" type="curve" smooth="yes"/>
      <point x="550" y="1585"/>
      <point x="627" y="1651"/>
      <point x="691" y="1651" type="curve" smooth="yes"/>
      <point x="768" y="1651"/>
      <point x="816" y="1598"/>
      <point x="813" y="1536" type="curve" smooth="yes"/>
      <point x="810" y="1458"/>
      <point x="740" y="1388"/>
    </contour>
  </outline>
</glyph>
<glyph name="Ccaron" format="1">
  <advance width="1261"/>
  <unicode hex="010C"/>
  <outline>
    <contour>
      <point x="602" y="-16" type="curve" smooth="yes"/>
      <point x="238" y="-16"/>
      <point x="98" y="317"/>
      <point x="93" y="627" type="curve" smooth="yes"/>
      <point x="83" y="1175"/>
      <point x="431" y="1546"/>
      <point x="829" y="1546" type="curve" smooth="yes"/>
      <point x="1008" y="1546"/>
      <point x="1122" y="1517"/>
      <point x="1184" y="1500" type="curve" smooth="yes"/>
      <point x="1222" y="1489" type="line"/>
      <point x="1156" y="1122" type="line"/>
      <point x="1039" y="1122" type="line"/>
      <point x="1016" y="1382" type="line"/>
      <point x="981" y="1408"/>
      <point x="927" y="1428"/>
      <point x="805" y="1428" type="curve" smooth="yes"/>
      <point x="421" y="1428"/>
      <point x="297" y="946"/>
      <point x="302" y="648" type="curve" smooth="yes"/>
      <point x="307" y="386"/>
      <point x="398" y="101"/>
      <point x="641" y="101" type="curve" smooth="yes"/>
      <point x="734" y="101"/>
      <point x="868" y="131"/>
      <point x="908" y="205" type="curve"/>
      <point x="976" y="402" type="line"/>
      <point x="1097" y="401" type="line"/>
      <point x="1057" y="70" type="line"/>
      <point x="988" y="49"/>
      <point x="824" y="-16"/>
    </contour>
    <contour>
      <point x="707" y="1614" type="line"/>
      <point x="485" y="1942" type="line"/>
      <point x="550" y="2000" type="line"/>
      <point x="798" y="1765" type="line"/>
      <point x="1115" y="2000" type="line"/>
      <point x="1177" y="1943" type="line"/>
      <point x="882" y="1614" type="line"/>
    </contour>
  </outline>
</glyph>
<glyph name="Dcaron" format="1">
  <advance width="1429"/>
  <unicode hex="010E"/>
  <outline>
    <contour>
      <point x="19" y="0" type="line"/>
      <point x="28" y="86" type="line"/>
      <point x="176" y="116" type="line"/>
      <point x="338" y="1406" type="line"/>
      <point x="205" y="1429" type="line"/>
      <point x="217" y="1530" type="line"/>
      <point x="513" y="1530" type="line"/>
      <point x="600" y="1531"/>
      <point x="686" y="1546"/>
      <point x="779" y="1546" type="curve" smooth="yes"/>
      <point x="1186" y="1546"/>
      <point x="1350" y="1293"/>
      <point x="1356" y="922" type="curve"/>
      <point x="1366" y="393"/>
      <point x="1045" y="-28"/>
      <point x="575" y="-16" type="curve" smooth="yes"/>
      <point x="547" y="-15"/>
      <point x="493" y="-12"/>
      <point x="462" y="-9" type="curve" smooth="yes"/>
      <point x="417" y="-5"/>
      <point x="320" y="0"/>
      <point x="264" y="0" type="curve" smooth="yes"/>
    </contour>
    <contour>
      <point x="376" y="132" type="line"/>
      <point x="436" y="112"/>
      <point x="562" y="102"/>
      <point x="627" y="101" type="curve"/>
      <point x="1010" y="129"/>
      <point x="1159" y="532"/>
      <point x="1153" y="906" type="curve" smooth="yes"/>
      <point x="1146" y="1289"/>
      <point x="1024" y="1430"/>
      <point x="720" y="1430" type="curve" smooth="yes"/>
      <point x="666" y="1430"/>
      <point x="576" y="1421"/>
      <point x="535" y="1411" type="curve"/>
    </contour>
    <contour>
      <point x="703" y="1614" type="line"/>
      <point x="481" y="1942" type="line"/>
      <point x="546" y="2000" type="line"/>
      <point x="794" y="1765" type="line"/>
      <point x="1111" y="2000" type="line"/>
      <point x="1173" y="1943" type="line"/>
      <point x="878" y="1614" type="line"/>
    </contour>
  </outline>
</glyph>
<glyph name="dcaron" format="1">
  <advance width="1433"/>
  <unicode hex="010F"/>
  <outline>
    <contour>
      <point x="1298" y="1015" type="curve"/>
      <point x="1238" y="1045" type="line"/>
      <point x="1232" y="1070" type="line"/>
      <point x="1252" y="1153"/>
      <point x="1271" y="1253"/>
      <point x="1283" y="1361" type="curve" smooth="yes"/>
      <point x="1291" y="1436"/>
      <point x="1272" y="1532"/>
      <point x="1252" y="1562" type="curve"/>
      <point x="1271" y="1604" type="line"/>
      <point x="1428" y="1650" type="line"/>
      <point x="1462" y="1613"/>
      <point x="1466" y="1517"/>
      <point x="1456" y="1421" type="curve" smooth="yes"/>
      <point x="1437" y="1244"/>
      <point x="1364" y="1095"/>
    </contour>
    <contour>
      <point x="413" y="-20" type="curve" smooth="yes"/>
      <point x="189" y="-20"/>
      <point x="83" y="162"/>
      <point x="83" y="412" type="curve" smooth="yes"/>
      <point x="83" y="719"/>
      <point x="320" y="1163"/>
      <point x="731" y="1163" type="curve" smooth="yes"/>
      <point x="775" y="1163"/>
      <point x="824" y="1155"/>
      <point x="869" y="1145" type="curve"/>
      <point x="920" y="1482" type="line"/>
      <point x="797" y="1525" type="line"/>
      <point x="818" y="1608" type="line"/>
      <point x="1082" y="1650" type="line"/>
      <point x="1135" y="1623" type="line"/>
      <point x="927" y="187" type="line" smooth="yes"/>
      <point x="921" y="139"/>
      <point x="929" y="111"/>
      <point x="948" y="111" type="curve" smooth="yes"/>
      <point x="965" y="111"/>
      <point x="988" y="120"/>
      <point x="1035" y="157" type="curve"/>
      <point x="1066" y="105" type="line"/>
      <point x="1050" y="80"/>
      <point x="955" y="-20"/>
      <point x="844" y="-20" type="curve" smooth="yes"/>
      <point x="765" y="-20"/>
      <point x="720" y="18"/>
      <point x="724" y="115" type="curve"/>
      <point x="724" y="142" type="line"/>
      <point x="658" y="60"/>
      <point x="548" y="-20"/>
    </contour>
    <contour>
      <point x="446" y="122" type="curve" smooth="yes"/>
      <point x="566" y="122"/>
      <point x="682" y="220"/>
      <point x="740" y="300" type="curve"/>
      <point x="846" y="997" type="line"/>
      <point x="808" y="1030"/>
      <point x="757" y="1041"/>
      <point x="700" y="1041" type="curve" smooth="yes"/>
      <point x="414" y="1041"/>
      <point x="288" y="669"/>
      <point x="288" y="426" type="curve" smooth="yes"/>
      <point x="288" y="231"/>
      <point x="349" y="122"/>
    </contour>
  </outline>
</glyph>
<glyph name="Dcroat" format="1">
  <advance width="1427"/>
  <unicode hex="0110"/>
  <outline>
    <contour>
      <point x="19" y="2" type="line"/>
      <point x="28" y="88" type="line"/>
      <point x="176" y="118" type="line"/>
      <point x="252" y="722" type="line"/>
      <point x="102" y="722" type="line"/>
      <point x="118" y="852" type="line"/>
      <point x="268" y="852" type="line"/>
      <point x="338" y="1408" type="line"/>
      <point x="205" y="1431" type="line"/>
      <point x="217" y="1532" type="line"/>
      <point x="513" y="1532" type="line"/>
      <point x="600" y="1533"/>
      <point x="686" y="1548"/>
      <point x="779" y="1548" type="curve" smooth="yes"/>
      <point x="1186" y="1548"/>
      <point x="1350" y="1295"/>
      <point x="1356" y="924" type="curve"/>
      <point x="1366" y="395"/>
      <point x="1045" y="-26"/>
      <point x="575" y="-14" type="curve" smooth="yes"/>
      <point x="547" y="-13"/>
      <point x="493" y="-10"/>
      <point x="462" y="-7" type="curve" smooth="yes"/>
      <point x="417" y="-3"/>
      <point x="320" y="2"/>
      <point x="264" y="2" type="curve" smooth="yes"/>
    </contour>
    <contour>
      <point x="376" y="134" type="line"/>
      <point x="436" y="114"/>
      <point x="562" y="104"/>
      <point x="627" y="103" type="curve"/>
      <point x="1010" y="131"/>
      <point x="1159" y="534"/>
      <point x="1153" y="908" type="curve" smooth="yes"/>
      <point x="1146" y="1291"/>
      <point x="1024" y="1432"/>
      <point x="720" y="1432" type="curve" smooth="yes"/>
      <point x="666" y="1432"/>
      <point x="576" y="1423"/>
      <point x="535" y="1413" type="curve"/>
      <point x="465" y="852" type="line"/>
      <point x="857" y="852" type="line"/>
      <point x="841" y="722" type="line"/>
      <point x="449" y="722" type="line"/>
    </contour>
  </outline>
</glyph>
<glyph name="dcroat" format="1">
  <advance width="1179"/>
  <unicode hex="0111"/>
  <outline>
    <contour>
      <point x="413" y="-20" type="curve" smooth="yes"/>
      <point x="189" y="-20"/>
      <point x="83" y="162"/>
      <point x="83" y="412" type="curve" smooth="yes"/>
      <point x="83" y="719"/>
      <point x="320" y="1163"/>
      <point x="731" y="1163" type="curve" smooth="yes"/>
      <point x="775" y="1163"/>
      <point x="824" y="1155"/>
      <point x="869" y="1145" type="curve"/>
      <point x="886" y="1262" type="line"/>
      <point x="637" y="1262" type="line"/>
      <point x="653" y="1392" type="line"/>
      <point x="906" y="1392" type="line"/>
      <point x="920" y="1482" type="line"/>
      <point x="797" y="1525" type="line"/>
      <point x="818" y="1608" type="line"/>
      <point x="1082" y="1650" type="line"/>
      <point x="1135" y="1623" type="line"/>
      <point x="1101" y="1392" type="line"/>
      <point x="1235" y="1392" type="line"/>
      <point x="1219" y="1262" type="line"/>
      <point x="1082" y="1262" type="line"/>
      <point x="927" y="187" type="line" smooth="yes"/>
      <point x="921" y="139"/>
      <point x="929" y="111"/>
      <point x="948" y="111" type="curve" smooth="yes"/>
      <point x="965" y="111"/>
      <point x="988" y="120"/>
      <point x="1035" y="157" type="curve"/>
      <point x="1066" y="105" type="line"/>
      <point x="1050" y="80"/>
      <point x="955" y="-20"/>
      <point x="844" y="-20" type="curve" smooth="yes"/>
      <point x="765" y="-20"/>
      <point x="720" y="18"/>
      <point x="724" y="115" type="curve"/>
      <point x="724" y="142" type="line"/>
      <point x="658" y="60"/>
      <point x="548" y="-20"/>
    </contour>
    <contour>
      <point x="446" y="122" type="curve" smooth="yes"/>
      <point x="566" y="122"/>
      <point x="682" y="220"/>
      <point x="740" y="300" type="curve"/>
      <point x="846" y="997" type="line"/>
      <point x="808" y="1030"/>
      <point x="757" y="1041"/>
      <point x="700" y="1041" type="curve" smooth="yes"/>
      <point x="414" y="1041"/>
      <point x="288" y="669"/>
      <point x="288" y="426" type="curve" smooth="yes"/>
      <point x="288" y="231"/>
      <point x="349" y="122"/>
    </contour>
  </outline>
</glyph>
<glyph name="ebreve" format="1">
  <advance width="1051"/>
  <unicode hex="0115"/>
  <outline>
    <contour>
      <point x="86" y="430" type="curve" smooth="yes"/>
      <point x="96" y="807"/>
      <point x="345" y="1163"/>
      <point x="676" y="1163" type="curve" smooth="yes"/>
      <point x="868" y="1163"/>
      <point x="960" y="1054"/>
      <point x="960" y="913" type="curve" smooth="yes"/>
      <point x="960" y="603"/>
      <point x="485" y="466"/>
      <point x="295" y="460" type="curve"/>
      <point x="281" y="333"/>
      <point x="328" y="119"/>
      <point x="510" y="119" type="curve" smooth="yes"/>
      <point x="610" y="119"/>
      <point x="735" y="158"/>
      <point x="850" y="265" type="curve"/>
      <point x="896" y="182" type="line"/>
      <point x="839" y="103"/>
      <point x="680" y="-20"/>
      <point x="486" y="-20" type="curve" smooth="yes"/>
      <point x="203" y="-20"/>
      <point x="80" y="202"/>
    </contour>
    <contour>
      <point x="300" y="570" type="curve"/>
      <point x="462" y="577"/>
      <point x="755" y="693"/>
      <point x="755" y="896" type="curve" smooth="yes"/>
      <point x="755" y="1001"/>
      <point x="703" y="1046"/>
      <point x="629" y="1046" type="curve" smooth="yes"/>
      <point x="425" y="1046"/>
      <point x="320" y="738"/>
    </contour>
    <contour>
      <point x="647" y="1300" type="curve" smooth="yes"/>
      <point x="461" y="1300"/>
      <point x="358" y="1473"/>
      <point x="358" y="1632" type="curve" smooth="yes"/>
      <point x="358" y="1638"/>
      <point x="358" y="1645"/>
      <point x="359" y="1651" type="curve"/>
      <point x="464" y="1651" type="line"/>
      <point x="465" y="1642"/>
      <point x="466" y="1631"/>
      <point x="468" y="1620" type="curve" smooth="yes"/>
      <point x="483" y="1551"/>
      <point x="526" y="1447"/>
      <point x="652" y="1447" type="curve" smooth="yes"/>
      <point x="799" y="1447"/>
      <point x="851" y="1591"/>
      <point x="874" y="1651" type="curve"/>
      <point x="976" y="1651" type="line"/>
      <point x="976" y="1640"/>
      <point x="975" y="1629"/>
      <point x="973" y="1618" type="curve" smooth="yes"/>
      <point x="951" y="1463"/>
      <point x="815" y="1300"/>
    </contour>
  </outline>
</glyph>
<glyph name="Edotaccent" format="1">
  <advance width="1219"/>
  <unicode hex="0116"/>
  <outline>
    <contour>
      <point x="18" y="0" type="line"/>
      <point x="28" y="86" type="line"/>
      <point x="177" y="115" type="line"/>
      <point x="337" y="1406" type="line"/>
      <point x="204" y="1429" type="line"/>
      <point x="216" y="1530" type="line"/>
      <point x="1143" y="1530" type="line"/>
      <point x="1136" y="1220" type="line"/>
      <point x="1030" y="1220" type="line"/>
      <point x="982" y="1408" type="line"/>
      <point x="541" y="1422" type="line"/>
      <point x="469" y="854" type="line"/>
      <point x="916" y="861" type="line"/>
      <point x="904" y="705" type="line"/>
      <point x="457" y="721" type="line"/>
      <point x="374" y="116" type="line"/>
      <point x="925" y="140" type="line"/>
      <point x="1044" y="347" type="line"/>
      <point x="1148" y="316" type="line"/>
      <point x="1059" y="0" type="line"/>
    </contour>
    <contour>
      <point x="763" y="1691" type="curve" smooth="yes"/>
      <point x="698" y="1691"/>
      <point x="645" y="1746"/>
      <point x="648" y="1810" type="curve" smooth="yes"/>
      <point x="651" y="1887"/>
      <point x="728" y="1954"/>
      <point x="792" y="1954" type="curve" smooth="yes"/>
      <point x="868" y="1954"/>
      <point x="918" y="1901"/>
      <point x="915" y="1838" type="curve" smooth="yes"/>
      <point x="912" y="1761"/>
      <point x="841" y="1691"/>
    </contour>
  </outline>
</glyph>
<glyph name="edotaccent" format="1">
  <advance width="1051"/>
  <unicode hex="0117"/>
  <outline>
    <contour>
      <point x="86" y="430" type="curve" smooth="yes"/>
      <point x="96" y="807"/>
      <point x="345" y="1163"/>
      <point x="676" y="1163" type="curve" smooth="yes"/>
      <point x="868" y="1163"/>
      <point x="960" y="1054"/>
      <point x="960" y="913" type="curve" smooth="yes"/>
      <point x="960" y="603"/>
      <point x="485" y="466"/>
      <point x="295" y="460" type="curve"/>
      <point x="281" y="333"/>
      <point x="328" y="119"/>
      <point x="510" y="119" type="curve" smooth="yes"/>
      <point x="610" y="119"/>
      <point x="735" y="158"/>
      <point x="850" y="265" type="curve"/>
      <point x="896" y="182" type="line"/>
      <point x="839" y="103"/>
      <point x="680" y="-20"/>
      <point x="486" y="-20" type="curve" smooth="yes"/>
      <point x="203" y="-20"/>
      <point x="80" y="202"/>
    </contour>
    <contour>
      <point x="300" y="570" type="curve"/>
      <point x="462" y="577"/>
      <point x="755" y="693"/>
      <point x="755" y="896" type="curve" smooth="yes"/>
      <point x="755" y="1001"/>
      <point x="703" y="1046"/>
      <point x="629" y="1046" type="curve" smooth="yes"/>
      <point x="425" y="1046"/>
      <point x="320" y="738"/>
    </contour>
    <contour>
      <point x="655" y="1388" type="curve" smooth="yes"/>
      <point x="590" y="1388"/>
      <point x="537" y="1443"/>
      <point x="540" y="1508" type="curve" smooth="yes"/>
      <point x="543" y="1585"/>
      <point x="620" y="1651"/>
      <point x="684" y="1651" type="curve" smooth="yes"/>
      <point x="761" y="1651"/>
      <point x="809" y="1598"/>
      <point x="806" y="1536" type="curve" smooth="yes"/>
      <point x="803" y="1458"/>
      <point x="733" y="1388"/>
    </contour>
  </outline>
</glyph>
<glyph name="Eogonek" format="1">
  <advance width="1219"/>
  <unicode hex="0118"/>
  <outline>
    <contour>
      <point x="18" y="0" type="line"/>
      <point x="28" y="86" type="line"/>
      <point x="177" y="115" type="line"/>
      <point x="337" y="1406" type="line"/>
      <point x="204" y="1429" type="line"/>
      <point x="216" y="1530" type="line"/>
      <point x="1143" y="1530" type="line"/>
      <point x="1136" y="1220" type="line"/>
      <point x="1030" y="1220" type="line"/>
      <point x="982" y="1408" type="line"/>
      <point x="541" y="1422" type="line"/>
      <point x="469" y="854" type="line"/>
      <point x="916" y="861" type="line"/>
      <point x="904" y="705" type="line"/>
      <point x="457" y="721" type="line"/>
      <point x="374" y="116" type="line"/>
      <point x="925" y="140" type="line"/>
      <point x="1044" y="347" type="line"/>
      <point x="1148" y="316" type="line"/>
      <point x="1059" y="0" type="line"/>
      <point x="956" y="0" type="line"/>
      <point x="866" y="-73"/>
      <point x="797" y="-138"/>
      <point x="796" y="-201" type="curve"/>
      <point x="792" y="-266"/>
      <point x="826" y="-287"/>
      <point x="849" y="-287" type="curve" smooth="yes"/>
      <point x="885" y="-287"/>
      <point x="923" y="-272"/>
      <point x="979" y="-228" type="curve"/>
      <point x="1005" y="-322" type="line"/>
      <point x="953" y="-368"/>
      <point x="871" y="-416"/>
      <point x="755" y="-416" type="curve" smooth="yes"/>
      <point x="648" y="-416"/>
      <point x="599" y="-343"/>
      <point x="602" y="-280" type="curve" smooth="yes"/>
      <point x="604" y="-238"/>
      <point x="618" y="-188"/>
      <point x="643" y="-156" type="curve" smooth="yes"/>
      <point x="706" y="-72"/>
      <point x="775" y="-38"/>
      <point x="840" y="0" type="curve"/>
    </contour>
  </outline>
</glyph>
<glyph name="ecaron" format="1">
  <advance width="1051"/>
  <unicode hex="011B"/>
  <outline>
    <contour>
      <point x="86" y="430" type="curve" smooth="yes"/>
      <point x="96" y="807"/>
      <point x="345" y="1163"/>
      <point x="676" y="1163" type="curve" smooth="yes"/>
      <point x="868" y="1163"/>
      <point x="960" y="1054"/>
      <point x="960" y="913" type="curve" smooth="yes"/>
      <point x="960" y="603"/>
      <point x="485" y="466"/>
      <point x="295" y="460" type="curve"/>
      <point x="281" y="333"/>
      <point x="328" y="119"/>
      <point x="510" y="119" type="curve" smooth="yes"/>
      <point x="610" y="119"/>
      <point x="735" y="158"/>
      <point x="850" y="265" type="curve"/>
      <point x="896" y="182" type="line"/>
      <point x="839" y="103"/>
      <point x="680" y="-20"/>
      <point x="486" y="-20" type="curve" smooth="yes"/>
      <point x="203" y="-20"/>
      <point x="80" y="202"/>
    </contour>
    <contour>
      <point x="300" y="570" type="curve"/>
      <point x="462" y="577"/>
      <point x="755" y="693"/>
      <point x="755" y="896" type="curve" smooth="yes"/>
      <point x="755" y="1001"/>
      <point x="703" y="1046"/>
      <point x="629" y="1046" type="curve" smooth="yes"/>
      <point x="425" y="1046"/>
      <point x="320" y="738"/>
    </contour>
    <contour>
      <point x="551" y="1255" type="line"/>
      <point x="328" y="1592" type="line"/>
      <point x="395" y="1650" type="line"/>
      <point x="643" y="1406" type="line"/>
      <point x="736" y="1485"/>
      <point x="868" y="1573"/>
      <point x="960" y="1650" type="curve"/>
      <point x="1022" y="1593" type="line"/>
      <point x="727" y="1255" type="line"/>
    </contour>
  </outline>
</glyph>
<glyph name="Gcircumflex" format="1">
  <advance width="1342"/>
  <unicode hex="011C"/>
  <outline>
    <contour>
      <point x="601" y="-16" type="curve" smooth="yes"/>
      <point x="247" y="-16"/>
      <point x="107" y="317"/>
      <point x="102" y="627" type="curve" smooth="yes"/>
      <point x="92" y="1175"/>
      <point x="440" y="1546"/>
      <point x="838" y="1546" type="curve" smooth="yes"/>
      <point x="1042" y="1546"/>
      <point x="1167" y="1511"/>
      <point x="1239" y="1490" type="curve" smooth="yes"/>
      <point x="1277" y="1479" type="line"/>
      <point x="1220" y="1183" type="line"/>
      <point x="1093" y="1183" type="line"/>
      <point x="1071" y="1364" type="line"/>
      <point x="1030" y="1400"/>
      <point x="965" y="1428"/>
      <point x="814" y="1428" type="curve" smooth="yes"/>
      <point x="430" y="1428"/>
      <point x="305" y="946"/>
      <point x="310" y="648" type="curve" smooth="yes"/>
      <point x="315" y="386"/>
      <point x="410" y="101"/>
      <point x="660" y="101" type="curve" smooth="yes"/>
      <point x="752" y="101"/>
      <point x="876" y="115"/>
      <point x="952" y="195" type="curve"/>
      <point x="1009" y="590" type="line"/>
      <point x="775" y="607" type="line"/>
      <point x="788" y="723" type="line"/>
      <point x="1230" y="723" type="line"/>
      <point x="1140" y="94" type="line"/>
      <point x="1101" y="90"/>
      <point x="1067" y="77"/>
      <point x="1013" y="61" type="curve" smooth="yes"/>
      <point x="912" y="31"/>
      <point x="761" y="-16"/>
    </contour>
    <contour>
      <point x="559" y="1614" type="line"/>
      <point x="498" y="1672" type="line"/>
      <point x="803" y="2000" type="line"/>
      <point x="980" y="2000" type="line"/>
      <point x="1192" y="1672" type="line"/>
      <point x="1124" y="1613" type="line"/>
      <point x="883" y="1842" type="line"/>
    </contour>
  </outline>
</glyph>
<glyph name="gcommaaccent" format="1">
  <advance width="1153"/>
  <unicode hex="0123"/>
  <outline>
    <contour>
      <point x="701" y="1296" type="line"/>
      <point x="611" y="1315"/>
      <point x="559" y="1418"/>
      <point x="569" y="1520" type="curve" smooth="yes"/>
      <point x="585" y="1671"/>
      <point x="721" y="1787"/>
      <point x="800" y="1805" type="curve"/>
      <point x="840" y="1765" type="line"/>
      <point x="837" y="1739" type="line"/>
      <point x="787" y="1700"/>
      <point x="766" y="1660"/>
      <point x="759" y="1588" type="curve" smooth="yes"/>
      <point x="754" y="1541"/>
      <point x="788" y="1479"/>
      <point x="831" y="1470" type="curve"/>
      <point x="825" y="1416" type="line"/>
    </contour>
    <contour>
      <point x="169" y="-288" type="line"/>
      <point x="225" y="-314"/>
      <point x="333" y="-350"/>
      <point x="436" y="-350" type="curve" smooth="yes"/>
      <point x="606" y="-350"/>
      <point x="644" y="-311"/>
      <point x="671" y="-145" type="curve" smooth="yes"/>
      <point x="716" y="133" type="line"/>
      <point x="650" y="54"/>
      <point x="543" y="-20"/>
      <point x="413" y="-20" type="curve" smooth="yes"/>
      <point x="189" y="-20"/>
      <point x="83" y="162"/>
      <point x="83" y="412" type="curve" smooth="yes"/>
      <point x="83" y="719"/>
      <point x="320" y="1163"/>
      <point x="731" y="1163" type="curve" smooth="yes"/>
      <point x="813" y="1163"/>
      <point x="893" y="1142"/>
      <point x="948" y="1121" type="curve"/>
      <point x="1068" y="1163" type="line"/>
      <point x="875" y="-77" type="line" smooth="yes"/>
      <point x="826" y="-393"/>
      <point x="535" y="-508"/>
      <point x="338" y="-508" type="curve" smooth="yes"/>
      <point x="250" y="-508"/>
      <point x="159" y="-490"/>
      <point x="119" y="-473" type="curve"/>
    </contour>
    <contour>
      <point x="446" y="122" type="curve" smooth="yes"/>
      <point x="567" y="122"/>
      <point x="684" y="222"/>
      <point x="742" y="302" type="curve"/>
      <point x="843" y="1000" type="line"/>
      <point x="805" y="1031"/>
      <point x="755" y="1041"/>
      <point x="700" y="1041" type="curve" smooth="yes"/>
      <point x="414" y="1041"/>
      <point x="288" y="669"/>
      <point x="288" y="426" type="curve" smooth="yes"/>
      <point x="288" y="231"/>
      <point x="349" y="122"/>
    </contour>
  </outline>
</glyph>
<glyph name="Hcircumflex" format="1">
  <advance width="1533"/>
  <unicode hex="0124"/>
  <outline>
    <contour>
      <point x="30" y="0" type="line"/>
      <point x="39" y="86" type="line"/>
      <point x="187" y="116" type="line"/>
      <point x="348" y="1406" type="line"/>
      <point x="215" y="1429" type="line"/>
      <point x="227" y="1530" type="line"/>
      <point x="710" y="1530" type="line"/>
      <point x="699" y="1429" type="line"/>
      <point x="546" y="1406" type="line"/>
      <point x="475" y="844" type="line"/>
      <point x="1130" y="844" type="line"/>
      <point x="1200" y="1406" type="line"/>
      <point x="1050" y="1429" type="line"/>
      <point x="1060" y="1530" type="line"/>
      <point x="1547" y="1530" type="line"/>
      <point x="1535" y="1429" type="line"/>
      <point x="1397" y="1406" type="line"/>
      <point x="1237" y="117" type="line"/>
      <point x="1388" y="86" type="line"/>
      <point x="1379" y="0" type="line"/>
      <point x="869" y="0" type="line"/>
      <point x="877" y="87" type="line"/>
      <point x="1040" y="117" type="line"/>
      <point x="1114" y="714" type="line"/>
      <point x="459" y="714" type="line"/>
      <point x="385" y="116" type="line"/>
      <point x="542" y="87" type="line"/>
      <point x="534" y="0" type="line"/>
    </contour>
    <contour>
      <point x="612" y="1614" type="line"/>
      <point x="551" y="1672" type="line"/>
      <point x="856" y="2000" type="line"/>
      <point x="1033" y="2000" type="line"/>
      <point x="1245" y="1672" type="line"/>
      <point x="1177" y="1613" type="line"/>
      <point x="936" y="1842" type="line"/>
    </contour>
  </outline>
</glyph>
<glyph name="Itilde" format="1">
  <advance width="706"/>
  <unicode hex="0128"/>
  <outline>
    <contour>
      <point x="30" y="0" type="line"/>
      <point x="39" y="86" type="line"/>
      <point x="187" y="116" type="line"/>
      <point x="348" y="1406" type="line"/>
      <point x="215" y="1429" type="line"/>
      <point x="227" y="1530" type="line"/>
      <point x="710" y="1530" type="line"/>
      <point x="699" y="1429" type="line"/>
      <point x="546" y="1406" type="line"/>
      <point x="385" y="116" type="line"/>
      <point x="542" y="87" type="line"/>
      <point x="534" y="0" type="line"/>
    </contour>
    <contour>
      <point x="224" y="1717" type="curve"/>
      <point x="177" y="1801" type="line"/>
      <point x="220" y="1887"/>
      <point x="320" y="1970"/>
      <point x="424" y="1970" type="curve" smooth="yes"/>
      <point x="557" y="1970"/>
      <point x="589" y="1830"/>
      <point x="681" y="1830" type="curve" smooth="yes"/>
      <point x="755" y="1830"/>
      <point x="797" y="1892"/>
      <point x="835" y="1940" type="curve"/>
      <point x="893" y="1849" type="line"/>
      <point x="859" y="1747"/>
      <point x="756" y="1668"/>
      <point x="642" y="1668" type="curve" smooth="yes"/>
      <point x="479" y="1668"/>
      <point x="482" y="1806"/>
      <point x="371" y="1808" type="curve" smooth="yes"/>
      <point x="326" y="1809"/>
      <point x="262" y="1757"/>
    </contour>
  </outline>
</glyph>
<glyph name="Ibreve" format="1">
  <advance width="706"/>
  <unicode hex="012C"/>
  <outline>
    <contour>
      <point x="30" y="0" type="line"/>
      <point x="39" y="86" type="line"/>
      <point x="187" y="116" type="line"/>
      <point x="348" y="1406" type="line"/>
      <point x="215" y="1429" type="line"/>
      <point x="227" y="1530" type="line"/>
      <point x="710" y="1530" type="line"/>
      <point x="699" y="1429" type="line"/>
      <point x="546" y="1406" type="line"/>
      <point x="385" y="116" type="line"/>
      <point x="542" y="87" type="line"/>
      <point x="534" y="0" type="line"/>
    </contour>
    <contour>
      <point x="511" y="1628" type="curve" smooth="yes"/>
      <point x="325" y="1628"/>
      <point x="222" y="1801"/>
      <point x="222" y="1960" type="curve" smooth="yes"/>
      <point x="222" y="1966"/>
      <point x="222" y="1973"/>
      <point x="223" y="1979" type="curve"/>
      <point x="328" y="1979" type="line"/>
      <point x="329" y="1970"/>
      <point x="330" y="1959"/>
      <point x="332" y="1948" type="curve" smooth="yes"/>
      <point x="347" y="1879"/>
      <point x="390" y="1775"/>
      <point x="516" y="1775" type="curve" smooth="yes"/>
      <point x="663" y="1775"/>
      <point x="715" y="1919"/>
      <point x="738" y="1979" type="curve"/>
      <point x="840" y="1979" type="line"/>
      <point x="840" y="1968"/>
      <point x="839" y="1957"/>
      <point x="837" y="1946" type="curve" smooth="yes"/>
      <point x="815" y="1791"/>
      <point x="679" y="1628"/>
    </contour>
  </outline>
</glyph>
<glyph name="Iogonek" format="1">
  <advance width="706"/>
  <unicode hex="012E"/>
  <outline>
    <contour>
      <point x="30" y="0" type="line"/>
      <point x="39" y="86" type="line"/>
      <point x="187" y="116" type="line"/>
      <point x="348" y="1406" type="line"/>
      <point x="215" y="1429" type="line"/>
      <point x="227" y="1530" type="line"/>
      <point x="710" y="1530" type="line"/>
      <point x="699" y="1429" type="line"/>
      <point x="546" y="1406" type="line"/>
      <point x="385" y="116" type="line"/>
      <point x="542" y="87" type="line"/>
      <point x="534" y="0" type="line"/>
      <point x="344" y="0" type="line"/>
      <point x="254" y="-73"/>
      <point x="185" y="-138"/>
      <point x="184" y="-201" type="curve"/>
      <point x="180" y="-266"/>
      <point x="214" y="-287"/>
      <point x="237" y="-287" type="curve" smooth="yes"/>
      <point x="273" y="-287"/>
      <point x="311" y="-272"/>
      <point x="367" y="-228" type="curve"/>
      <point x="393" y="-322" type="line"/>
      <point x="341" y="-368"/>
      <point x="259" y="-416"/>
      <point x="143" y="-416" type="curve" smooth="yes"/>
      <point x="36" y="-416"/>
      <point x="-13" y="-343"/>
      <point x="-10" y="-280" type="curve" smooth="yes"/>
      <point x="-8" y="-238"/>
      <point x="6" y="-188"/>
      <point x="31" y="-156" type="curve" smooth="yes"/>
      <point x="94" y="-72"/>
      <point x="163" y="-38"/>
      <point x="228" y="0" type="curve"/>
    </contour>
  </outline>
</glyph>
<glyph name="dotlessi" format="1">
  <advance width="641"/>
  <unicode hex="0131"/>
  <outline>
    <contour>
      <point x="163" y="112" type="curve" smooth="yes"/>
      <point x="175" y="273"/>
      <point x="233" y="596"/>
      <point x="288" y="980" type="curve"/>
      <point x="140" y="1031" type="line"/>
      <point x="158" y="1112" type="line"/>
      <point x="460" y="1163" type="line"/>
      <point x="509" y="1139" type="line"/>
      <point x="370" y="187" type="line" smooth="yes"/>
      <point x="363" y="138"/>
      <point x="371" y="111"/>
      <point x="392" y="111" type="curve" smooth="yes"/>
      <point x="413" y="111"/>
      <point x="442" y="124"/>
      <point x="499" y="178" type="curve"/>
      <point x="531" y="125" type="line"/>
      <point x="512" y="96"/>
      <point x="407" y="-20"/>
      <point x="286" y="-20" type="curve" smooth="yes"/>
      <point x="206" y="-20"/>
      <point x="156" y="15"/>
    </contour>
  </outline>
</glyph>
<glyph name="jcircumflex" format="1">
  <advance width="647"/>
  <unicode hex="0135"/>
  <outline>
    <contour>
      <point x="188" y="65" type="curve" smooth="yes"/>
      <point x="286" y="980" type="line"/>
      <point x="130" y="1031" type="line"/>
      <point x="148" y="1112" type="line"/>
      <point x="459" y="1163" type="line"/>
      <point x="507" y="1139" type="line"/>
      <point x="377" y="0" type="line" smooth="yes"/>
      <point x="338" y="-340"/>
      <point x="159" y="-518"/>
      <point x="-69" y="-518" type="curve" smooth="yes"/>
      <point x="-132" y="-518"/>
      <point x="-187" y="-505"/>
      <point x="-209" y="-481" type="curve"/>
      <point x="-174" y="-400" type="line"/>
      <point x="-156" y="-408"/>
      <point x="-115" y="-412"/>
      <point x="-104" y="-412" type="curve" smooth="yes"/>
      <point x="90" y="-412"/>
      <point x="162" y="-176"/>
    </contour>
    <contour>
      <point x="33" y="1219" type="line"/>
      <point x="-24" y="1276" type="line"/>
      <point x="303" y="1650" type="line"/>
      <point x="481" y="1650" type="line"/>
      <point x="671" y="1276" type="line"/>
      <point x="597" y="1218" type="line"/>
      <point x="366" y="1492" type="line"/>
    </contour>
  </outline>
</glyph>
<glyph name="Kcommaaccent" format="1">
  <advance width="1351"/>
  <unicode hex="0136"/>
  <outline>
    <contour>
      <point x="20" y="0" type="line"/>
      <point x="29" y="86" type="line"/>
      <point x="177" y="116" type="line"/>
      <point x="338" y="1406" type="line"/>
      <point x="205" y="1429" type="line"/>
      <point x="217" y="1530" type="line"/>
      <point x="700" y="1530" type="line"/>
      <point x="689" y="1429" type="line"/>
      <point x="536" y="1406" type="line"/>
      <point x="446" y="688" type="line"/>
      <point x="1057" y="1406" type="line"/>
      <point x="940" y="1429" type="line"/>
      <point x="952" y="1530" type="line"/>
      <point x="1385" y="1530" type="line"/>
      <point x="1374" y="1429" type="line"/>
      <point x="1251" y="1407" type="line"/>
      <point x="724" y="828" type="line"/>
      <point x="795" y="713"/>
      <point x="914" y="514"/>
      <point x="966" y="423" type="curve" smooth="yes"/>
      <point x="1079" y="221"/>
      <point x="1125" y="163"/>
      <point x="1167" y="138" type="curve"/>
      <point x="1297" y="93" type="line"/>
      <point x="1283" y="0" type="line"/>
      <point x="1012" y="0" type="line"/>
      <point x="960" y="7"/>
      <point x="853" y="236"/>
      <point x="789" y="358" type="curve" smooth="yes"/>
      <point x="739" y="453"/>
      <point x="657" y="603"/>
      <point x="604" y="697" type="curve"/>
      <point x="422" y="498" type="line"/>
      <point x="375" y="116" type="line"/>
      <point x="532" y="87" type="line"/>
      <point x="524" y="0" type="line"/>
    </contour>
    <contour>
      <point x="656" y="-49" type="line"/>
      <point x="746" y="-68"/>
      <point x="798" y="-171"/>
      <point x="788" y="-273" type="curve" smooth="yes"/>
      <point x="772" y="-424"/>
      <point x="636" y="-540"/>
      <point x="557" y="-558" type="curve"/>
      <point x="517" y="-518" type="line"/>
      <point x="520" y="-492" type="line"/>
      <point x="570" y="-453"/>
      <point x="591" y="-413"/>
      <point x="598" y="-341" type="curve" smooth="yes"/>
      <point x="603" y="-294"/>
      <point x="569" y="-232"/>
      <point x="526" y="-223" type="curve"/>
      <point x="532" y="-169" type="line"/>
    </contour>
  </outline>
</glyph>
<glyph name="kgreenlandic" format="1">
  <advance width="1070"/>
  <unicode hex="0138"/>
  <outline>
    <contour>
      <point x="138" y="0" type="line"/>
      <point x="264" y="982" type="line"/>
      <point x="148" y="1025" type="line"/>
      <point x="169" y="1109" type="line"/>
      <point x="428" y="1151" type="line"/>
      <point x="479" y="1124" type="line"/>
      <point x="330" y="0" type="line"/>
    </contour>
    <contour>
      <point x="669" y="88" type="curve" smooth="yes"/>
      <point x="421" y="582" type="line"/>
      <point x="862" y="1130" type="line"/>
      <point x="1093" y="1130" type="line"/>
      <point x="604" y="584" type="line"/>
      <point x="823" y="206" type="line" smooth="yes"/>
      <point x="856" y="149"/>
      <point x="899" y="106"/>
      <point x="929" y="106" type="curve" smooth="yes"/>
      <point x="945" y="106"/>
      <point x="966" y="113"/>
      <point x="1000" y="125" type="curve"/>
      <point x="1030" y="79" type="line"/>
      <point x="998" y="35"/>
      <point x="905" y="-19"/>
      <point x="812" y="-19" type="curve" smooth="yes"/>
      <point x="758" y="-19"/>
      <point x="709" y="8"/>
    </contour>
  </outline>
</glyph>
<glyph name="lacute" format="1">
  <advance width="606"/>
  <unicode hex="013A"/>
  <outline>
    <contour>
      <point x="142" y="115" type="curve"/>
      <point x="148" y="192" type="line"/>
      <point x="314" y="1355" type="line"/>
      <point x="191" y="1398" type="line"/>
      <point x="212" y="1481" type="line"/>
      <point x="474" y="1523" type="line"/>
      <point x="522" y="1496" type="line"/>
      <point x="338" y="187" type="line"/>
      <point x="336" y="139"/>
      <point x="340" y="111"/>
      <point x="359" y="111" type="curve" smooth="yes"/>
      <point x="371" y="111"/>
      <point x="389" y="115"/>
      <point x="427" y="137" type="curve"/>
      <point x="458" y="85" type="line"/>
      <point x="443" y="64"/>
      <point x="356" y="-20"/>
      <point x="257" y="-20" type="curve" smooth="yes"/>
      <point x="177" y="-20"/>
      <point x="138" y="18"/>
    </contour>
    <contour>
      <point x="436" y="1613" type="curve"/>
      <point x="383" y="1658" type="line"/>
      <point x="659" y="2000" type="line"/>
      <point x="783" y="1862" type="line"/>
      <point x="731" y="1751"/>
      <point x="532" y="1649"/>
    </contour>
  </outline>
</glyph>
<glyph name="Lcommaaccent" format="1">
  <advance width="1168"/>
  <unicode hex="013B"/>
  <outline>
    <contour>
      <point x="21" y="0" type="line"/>
      <point x="29" y="87" type="line"/>
      <point x="177" y="116" type="line"/>
      <point x="338" y="1406" type="line"/>
      <point x="205" y="1429" type="line"/>
      <point x="217" y="1530" type="line"/>
      <point x="735" y="1530" type="line"/>
      <point x="724" y="1429" type="line"/>
      <point x="536" y="1406" type="line"/>
      <point x="375" y="116" type="line"/>
      <point x="843" y="127" type="line"/>
      <point x="979" y="454" type="line"/>
      <point x="1096" y="431" type="line"/>
      <point x="1000" y="0" type="line"/>
    </contour>
    <contour>
      <point x="555" y="-49" type="line"/>
      <point x="645" y="-68"/>
      <point x="697" y="-171"/>
      <point x="687" y="-273" type="curve" smooth="yes"/>
      <point x="671" y="-424"/>
      <point x="535" y="-540"/>
      <point x="456" y="-558" type="curve"/>
      <point x="416" y="-518" type="line"/>
      <point x="419" y="-492" type="line"/>
      <point x="469" y="-453"/>
      <point x="490" y="-413"/>
      <point x="497" y="-341" type="curve" smooth="yes"/>
      <point x="502" y="-294"/>
      <point x="468" y="-232"/>
      <point x="425" y="-223" type="curve"/>
      <point x="431" y="-169" type="line"/>
    </contour>
  </outline>
</glyph>
<glyph name="Lcaron" format="1">
  <advance width="1168"/>
  <unicode hex="013D"/>
  <outline>
    <contour>
      <point x="21" y="0" type="line"/>
      <point x="29" y="87" type="line"/>
      <point x="177" y="116" type="line"/>
      <point x="338" y="1406" type="line"/>
      <point x="205" y="1429" type="line"/>
      <point x="217" y="1530" type="line"/>
      <point x="735" y="1530" type="line"/>
      <point x="724" y="1429" type="line"/>
      <point x="536" y="1406" type="line"/>
      <point x="375" y="116" type="line"/>
      <point x="843" y="127" type="line"/>
      <point x="979" y="454" type="line"/>
      <point x="1096" y="431" type="line"/>
      <point x="1000" y="0" type="line"/>
    </contour>
    <contour>
      <point x="964" y="1015" type="curve"/>
      <point x="904" y="1045" type="line"/>
      <point x="898" y="1070" type="line"/>
      <point x="918" y="1153"/>
      <point x="937" y="1253"/>
      <point x="949" y="1361" type="curve" smooth="yes"/>
      <point x="957" y="1436"/>
      <point x="938" y="1532"/>
      <point x="918" y="1562" type="curve"/>
      <point x="937" y="1604" type="line"/>
      <point x="1094" y="1650" type="line"/>
      <point x="1128" y="1613"/>
      <point x="1132" y="1517"/>
      <point x="1122" y="1421" type="curve" smooth="yes"/>
      <point x="1103" y="1244"/>
      <point x="1030" y="1095"/>
    </contour>
  </outline>
</glyph>
<glyph name="Ldot" format="1">
  <advance width="1168"/>
  <unicode hex="013F"/>
  <outline>
    <contour>
      <point x="21" y="0" type="line"/>
      <point x="29" y="87" type="line"/>
      <point x="177" y="116" type="line"/>
      <point x="338" y="1406" type="line"/>
      <point x="205" y="1429" type="line"/>
      <point x="217" y="1530" type="line"/>
      <point x="735" y="1530" type="line"/>
      <point x="724" y="1429" type="line"/>
      <point x="536" y="1406" type="line"/>
      <point x="375" y="116" type="line"/>
      <point x="843" y="127" type="line"/>
      <point x="979" y="454" type="line"/>
      <point x="1096" y="431" type="line"/>
      <point x="1000" y="0" type="line"/>
    </contour>
    <contour>
      <point x="861" y="876" type="curve" smooth="yes"/>
      <point x="872" y="959"/>
      <point x="944" y="1023"/>
      <point x="1019" y="1023" type="curve" smooth="yes"/>
      <point x="1114" y="1023"/>
      <point x="1148" y="966"/>
      <point x="1139" y="898" type="curve" smooth="yes"/>
      <point x="1127" y="809"/>
      <point x="1050" y="751"/>
      <point x="971" y="751" type="curve" smooth="yes"/>
      <point x="900" y="751"/>
      <point x="851" y="798"/>
    </contour>
  </outline>
</glyph>
<glyph name="Lslash" format="1">
  <advance width="1167"/>
  <unicode hex="0141"/>
  <outline>
    <contour>
      <point x="21" y="2" type="line"/>
      <point x="29" y="89" type="line"/>
      <point x="177" y="118" type="line"/>
      <point x="231" y="550" type="line"/>
      <point x="71" y="483" type="line"/>
      <point x="35" y="601" type="line"/>
      <point x="249" y="693" type="line"/>
      <point x="338" y="1408" type="line"/>
      <point x="205" y="1431" type="line"/>
      <point x="217" y="1532" type="line"/>
      <point x="735" y="1532" type="line"/>
      <point x="724" y="1431" type="line"/>
      <point x="536" y="1408" type="line"/>
      <point x="458" y="783" type="line"/>
      <point x="860" y="957" type="line"/>
      <point x="895" y="830" type="line"/>
      <point x="440" y="638" type="line"/>
      <point x="375" y="118" type="line"/>
      <point x="843" y="129" type="line"/>
      <point x="979" y="456" type="line"/>
      <point x="1096" y="433" type="line"/>
      <point x="1000" y="2" type="line"/>
    </contour>
  </outline>
</glyph>
<glyph name="Ncaron" format="1">
  <advance width="1517"/>
  <unicode hex="0147"/>
  <outline>
    <contour>
      <point x="34" y="0" type="line"/>
      <point x="42" y="86" type="line"/>
      <point x="178" y="114" type="line"/>
      <point x="347" y="1406" type="line"/>
      <point x="201" y="1429" type="line"/>
      <point x="218" y="1530" type="line"/>
      <point x="557" y="1530" type="line"/>
      <point x="1025" y="418" type="line"/>
      <point x="1096" y="185" type="line"/>
      <point x="1240" y="1407" type="line"/>
      <point x="1090" y="1429" type="line"/>
      <point x="1102" y="1530" type="line"/>
      <point x="1553" y="1530" type="line"/>
      <point x="1543" y="1429" type="line"/>
      <point x="1397" y="1406" type="line"/>
      <point x="1194" y="0" type="line"/>
      <point x="1006" y="0" type="line"/>
      <point x="533" y="1115" type="line"/>
      <point x="472" y="1336" type="line"/>
      <point x="345" y="116" type="line"/>
      <point x="505" y="87" type="line"/>
      <point x="497" y="0" type="line"/>
    </contour>
    <contour>
      <point x="819" y="1614" type="line"/>
      <point x="597" y="1942" type="line"/>
      <point x="662" y="2000" type="line"/>
      <point x="910" y="1765" type="line"/>
      <point x="1227" y="2000" type="line"/>
      <point x="1289" y="1943" type="line"/>
      <point x="994" y="1614" type="line"/>
    </contour>
  </outline>
</glyph>
<glyph name="omacron" format="1">
  <advance width="1143"/>
  <unicode hex="014D"/>
  <outline>
    <contour>
      <point x="87" y="439" type="curve" smooth="yes"/>
      <point x="81" y="802"/>
      <point x="318" y="1163"/>
      <point x="654" y="1163" type="curve" smooth="yes"/>
      <point x="907" y="1163"/>
      <point x="1046" y="994"/>
      <point x="1051" y="703" type="curve" smooth="yes"/>
      <point x="1057" y="340"/>
      <point x="819" y="-20"/>
      <point x="483" y="-20" type="curve" smooth="yes"/>
      <point x="230" y="-20"/>
      <point x="92" y="148"/>
    </contour>
    <contour>
      <point x="518" y="102" type="curve" smooth="yes"/>
      <point x="746" y="102"/>
      <point x="847" y="445"/>
      <point x="842" y="702" type="curve"/>
      <point x="839" y="913"/>
      <point x="764" y="1041"/>
      <point x="618" y="1041" type="curve" smooth="yes"/>
      <point x="390" y="1041"/>
      <point x="289" y="698"/>
      <point x="294" y="441" type="curve"/>
      <point x="297" y="230"/>
      <point x="372" y="102"/>
    </contour>
    <contour>
      <point x="378" y="1425" type="line"/>
      <point x="382" y="1574" type="line"/>
      <point x="892" y="1574" type="line"/>
      <point x="887" y="1425" type="line"/>
    </contour>
  </outline>
</glyph>
<glyph name="Obreve" format="1">
  <advance width="1386"/>
  <unicode hex="014E"/>
  <outline>
    <contour>
      <point x="619" y="-20" type="curve" smooth="yes"/>
      <point x="314" y="-20"/>
      <point x="114" y="240"/>
      <point x="107" y="641" type="curve" smooth="yes"/>
      <point x="97" y="1175"/>
      <point x="418" y="1550"/>
      <point x="810" y="1550" type="curve" smooth="yes"/>
      <point x="1135" y="1550"/>
      <point x="1300" y="1245"/>
      <point x="1306" y="892" type="curve" smooth="yes"/>
      <point x="1315" y="371"/>
      <point x="1017" y="-20"/>
    </contour>
    <contour>
      <point x="647" y="100" type="curve" smooth="yes"/>
      <point x="909" y="98"/>
      <point x="1113" y="414"/>
      <point x="1105" y="854" type="curve" smooth="yes"/>
      <point x="1099" y="1220"/>
      <point x="987" y="1425"/>
      <point x="776" y="1425" type="curve" smooth="yes"/>
      <point x="515" y="1425"/>
      <point x="304" y="1128"/>
      <point x="311" y="730" type="curve" smooth="yes"/>
      <point x="318" y="353"/>
      <point x="400" y="102"/>
    </contour>
    <contour>
      <point x="842" y="1628" type="curve" smooth="yes"/>
      <point x="656" y="1628"/>
      <point x="553" y="1801"/>
      <point x="553" y="1960" type="curve" smooth="yes"/>
      <point x="553" y="1966"/>
      <point x="553" y="1973"/>
      <point x="554" y="1979" type="curve"/>
      <point x="659" y="1979" type="line"/>
      <point x="660" y="1970"/>
      <point x="661" y="1959"/>
      <point x="663" y="1948" type="curve" smooth="yes"/>
      <point x="678" y="1879"/>
      <point x="721" y="1775"/>
      <point x="847" y="1775" type="curve" smooth="yes"/>
      <point x="994" y="1775"/>
      <point x="1046" y="1919"/>
      <point x="1069" y="1979" type="curve"/>
      <point x="1171" y="1979" type="line"/>
      <point x="1171" y="1968"/>
      <point x="1170" y="1957"/>
      <point x="1168" y="1946" type="curve" smooth="yes"/>
      <point x="1146" y="1791"/>
      <point x="1010" y="1628"/>
    </contour>
  </outline>
</glyph>
<glyph name="obreve" format="1">
  <advance width="1143"/>
  <unicode hex="014F"/>
  <outline>
    <contour>
      <point x="87" y="439" type="curve" smooth="yes"/>
      <point x="81" y="802"/>
      <point x="318" y="1163"/>
      <point x="654" y="1163" type="curve" smooth="yes"/>
      <point x="907" y="1163"/>
      <point x="1046" y="994"/>
      <point x="1051" y="703" type="curve" smooth="yes"/>
      <point x="1057" y="340"/>
      <point x="819" y="-20"/>
      <point x="483" y="-20" type="curve" smooth="yes"/>
      <point x="230" y="-20"/>
      <point x="92" y="148"/>
    </contour>
    <contour>
      <point x="518" y="102" type="curve" smooth="yes"/>
      <point x="746" y="102"/>
      <point x="847" y="445"/>
      <point x="842" y="702" type="curve"/>
      <point x="839" y="913"/>
      <point x="764" y="1041"/>
      <point x="618" y="1041" type="curve" smooth="yes"/>
      <point x="390" y="1041"/>
      <point x="289" y="698"/>
      <point x="294" y="441" type="curve"/>
      <point x="297" y="230"/>
      <point x="372" y="102"/>
    </contour>
    <contour>
      <point x="655" y="1300" type="curve" smooth="yes"/>
      <point x="469" y="1300"/>
      <point x="366" y="1473"/>
      <point x="366" y="1632" type="curve" smooth="yes"/>
      <point x="366" y="1638"/>
      <point x="366" y="1645"/>
      <point x="367" y="1651" type="curve"/>
      <point x="472" y="1651" type="line"/>
      <point x="473" y="1642"/>
      <point x="474" y="1631"/>
      <point x="476" y="1620" type="curve" smooth="yes"/>
      <point x="491" y="1551"/>
      <point x="534" y="1447"/>
      <point x="660" y="1447" type="curve" smooth="yes"/>
      <point x="807" y="1447"/>
      <point x="859" y="1591"/>
      <point x="882" y="1651" type="curve"/>
      <point x="984" y="1651" type="line"/>
      <point x="984" y="1640"/>
      <point x="983" y="1629"/>
      <point x="981" y="1618" type="curve" smooth="yes"/>
      <point x="959" y="1463"/>
      <point x="823" y="1300"/>
    </contour>
  </outline>
</glyph>
<glyph name="ohungarumlaut" format="1">
  <advance width="1143"/>
  <unicode hex="0151"/>
  <outline>
    <contour>
      <point x="87" y="439" type="curve" smooth="yes"/>
      <point x="81" y="802"/>
      <point x="318" y="1163"/>
      <point x="654" y="1163" type="curve" smooth="yes"/>
      <point x="907" y="1163"/>
      <point x="1046" y="994"/>
      <point x="1051" y="703" type="curve" smooth="yes"/>
      <point x="1057" y="340"/>
      <point x="819" y="-20"/>
      <point x="483" y="-20" type="curve" smooth="yes"/>
      <point x="230" y="-20"/>
      <point x="92" y="148"/>
    </contour>
    <contour>
      <point x="518" y="102" type="curve" smooth="yes"/>
      <point x="746" y="102"/>
      <point x="847" y="445"/>
      <point x="842" y="702" type="curve"/>
      <point x="839" y="913"/>
      <point x="764" y="1041"/>
      <point x="618" y="1041" type="curve" smooth="yes"/>
      <point x="390" y="1041"/>
      <point x="289" y="698"/>
      <point x="294" y="441" type="curve"/>
      <point x="297" y="230"/>
      <point x="372" y="102"/>
    </contour>
    <contour>
      <point x="857" y="1252" type="curve"/>
      <point x="792" y="1296" type="line"/>
      <point x="1039" y="1712" type="line"/>
      <point x="1184" y="1594" type="line"/>
      <point x="1157" y="1489"/>
      <point x="966" y="1289"/>
    </contour>
    <contour>
      <point x="431" y="1252" type="curve"/>
      <point x="367" y="1296" type="line"/>
      <point x="604" y="1712" type="line"/>
      <point x="749" y="1595" type="line"/>
      <point x="714" y="1475"/>
      <point x="545" y="1306"/>
    </contour>
  </outline>
</glyph>
<glyph name="rcommaaccent" format="1">
  <advance width="836"/>
  <unicode hex="0157"/>
  <outline>
    <contour>
      <point x="135" y="0" type="line"/>
      <point x="257" y="962" type="line"/>
      <point x="157" y="1022" type="line"/>
      <point x="175" y="1111" type="line"/>
      <point x="417" y="1163" type="line"/>
      <point x="465" y="1139" type="line"/>
      <point x="444" y="912" type="line"/>
      <point x="484" y="991"/>
      <point x="615" y="1162"/>
      <point x="806" y="1162" type="curve" smooth="yes"/>
      <point x="826" y="1162"/>
      <point x="856" y="1160"/>
      <point x="867" y="1149" type="curve"/>
      <point x="823" y="941" type="line"/>
      <point x="803" y="951"/>
      <point x="769" y="955"/>
      <point x="720" y="955" type="curve" smooth="yes"/>
      <point x="624" y="955"/>
      <point x="497" y="897"/>
      <point x="419" y="716" type="curve"/>
      <point x="330" y="0" type="line"/>
    </contour>
    <contour>
      <point x="203" y="-51" type="line"/>
      <point x="293" y="-70"/>
      <point x="345" y="-173"/>
      <point x="335" y="-275" type="curve" smooth="yes"/>
      <point x="319" y="-426"/>
      <point x="183" y="-542"/>
      <point x="104" y="-560" type="curve"/>
      <point x="64" y="-520" type="line"/>
      <point x="67" y="-494" type="line"/>
      <point x="117" y="-455"/>
      <point x="138" y="-415"/>
      <point x="145" y="-343" type="curve" smooth="yes"/>
      <point x="150" y="-296"/>
      <point x="116" y="-234"/>
      <point x="73" y="-225" type="curve"/>
      <point x="79" y="-171" type="line"/>
    </contour>
  </outline>
</glyph>
<glyph name="sacute" format="1">
  <advance width="885"/>
  <unicode hex="015B"/>
  <outline>
    <contour>
      <point x="50" y="39" type="curve"/>
      <point x="86" y="190" type="line"/>
      <point x="129" y="161"/>
      <point x="233" y="115"/>
      <point x="354" y="115" type="curve" smooth="yes"/>
      <point x="439" y="115"/>
      <point x="553" y="127"/>
      <point x="553" y="259" type="curve" smooth="yes"/>
      <point x="553" y="370"/>
      <point x="464" y="437"/>
      <point x="377" y="502" type="curve" smooth="yes"/>
      <point x="307" y="554"/>
      <point x="168" y="677"/>
      <point x="168" y="839" type="curve" smooth="yes"/>
      <point x="168" y="1038"/>
      <point x="350" y="1163"/>
      <point x="553" y="1163" type="curve" smooth="yes"/>
      <point x="660" y="1163"/>
      <point x="776" y="1141"/>
      <point x="809" y="1126" type="curve"/>
      <point x="771" y="959" type="line"/>
      <point x="760" y="976"/>
      <point x="670" y="1034"/>
      <point x="544" y="1034" type="curve" smooth="yes"/>
      <point x="460" y="1034"/>
      <point x="371" y="1006"/>
      <point x="358" y="899" type="curve" smooth="yes"/>
      <point x="345" y="794"/>
      <point x="429" y="713"/>
      <point x="516" y="645" type="curve" smooth="yes"/>
      <point x="619" y="564"/>
      <point x="740" y="465"/>
      <point x="740" y="297" type="curve" smooth="yes"/>
      <point x="740" y="91"/>
      <point x="553" y="-20"/>
      <point x="344" y="-20" type="curve" smooth="yes"/>
      <point x="223" y="-20"/>
      <point x="85" y="9"/>
    </contour>
    <contour>
      <point x="489" y="1251" type="curve"/>
      <point x="436" y="1312" type="line"/>
      <point x="753" y="1743" type="line"/>
      <point x="895" y="1576" type="line"/>
      <point x="859" y="1508"/>
      <point x="608" y="1297"/>
    </contour>
  </outline>
</glyph>
<glyph name="Utilde" format="1">
  <advance width="1379"/>
  <unicode hex="0168"/>
  <outline>
    <contour>
      <point x="145" y="428" type="curve" smooth="yes"/>
      <point x="144" y="480"/>
      <point x="147" y="534"/>
      <point x="153" y="593" type="curve"/>
      <point x="260" y="1407" type="line"/>
      <point x="127" y="1430" type="line"/>
      <point x="139" y="1530" type="line"/>
      <point x="622" y="1530" type="line"/>
      <point x="611" y="1430" type="line"/>
      <point x="460" y="1405" type="line"/>
      <point x="356" y="610" type="line"/>
      <point x="348" y="537"/>
      <point x="344" y="475"/>
      <point x="345" y="418" type="curve" smooth="yes"/>
      <point x="349" y="202"/>
      <point x="452" y="90"/>
      <point x="627" y="90" type="curve" smooth="yes"/>
      <point x="853" y="90"/>
      <point x="987" y="276"/>
      <point x="1027" y="626" type="curve"/>
      <point x="1130" y="1405" type="line"/>
      <point x="997" y="1429" type="line"/>
      <point x="1008" y="1530" type="line"/>
      <point x="1440" y="1530" type="line"/>
      <point x="1429" y="1429" type="line"/>
      <point x="1305" y="1407" type="line"/>
      <point x="1201" y="627" type="line"/>
      <point x="1140" y="155"/>
      <point x="938" y="-20"/>
      <point x="597" y="-20" type="curve" smooth="yes"/>
      <point x="309" y="-20"/>
      <point x="150" y="152"/>
    </contour>
    <contour>
      <point x="536" y="1717" type="curve"/>
      <point x="489" y="1801" type="line"/>
      <point x="532" y="1887"/>
      <point x="632" y="1970"/>
      <point x="736" y="1970" type="curve" smooth="yes"/>
      <point x="869" y="1970"/>
      <point x="901" y="1830"/>
      <point x="993" y="1830" type="curve" smooth="yes"/>
      <point x="1067" y="1830"/>
      <point x="1109" y="1892"/>
      <point x="1147" y="1940" type="curve"/>
      <point x="1205" y="1849" type="line"/>
      <point x="1171" y="1747"/>
      <point x="1068" y="1668"/>
      <point x="954" y="1668" type="curve" smooth="yes"/>
      <point x="791" y="1668"/>
      <point x="794" y="1806"/>
      <point x="683" y="1808" type="curve" smooth="yes"/>
      <point x="638" y="1809"/>
      <point x="574" y="1757"/>
    </contour>
  </outline>
</glyph>
<glyph name="utilde" format="1">
  <advance width="1207"/>
  <unicode hex="0169"/>
  <outline>
    <contour>
      <point x="165" y="255" type="curve" smooth="yes"/>
      <point x="165" y="343"/>
      <point x="184" y="478"/>
      <point x="200" y="597" type="curve" smooth="yes"/>
      <point x="250" y="963" type="line"/>
      <point x="152" y="1022" type="line"/>
      <point x="170" y="1111" type="line"/>
      <point x="412" y="1163" type="line"/>
      <point x="460" y="1139" type="line"/>
      <point x="391" y="589" type="line" smooth="yes"/>
      <point x="376" y="468"/>
      <point x="361" y="387"/>
      <point x="361" y="286" type="curve" smooth="yes"/>
      <point x="361" y="147"/>
      <point x="417" y="117"/>
      <point x="504" y="117" type="curve" smooth="yes"/>
      <point x="596" y="117"/>
      <point x="696" y="179"/>
      <point x="761" y="246" type="curve"/>
      <point x="881" y="1155" type="line"/>
      <point x="1074" y="1155" type="line"/>
      <point x="949" y="189" type="line" smooth="yes"/>
      <point x="942" y="137"/>
      <point x="949" y="113"/>
      <point x="971" y="113" type="curve" smooth="yes"/>
      <point x="992" y="113"/>
      <point x="1018" y="126"/>
      <point x="1077" y="180" type="curve"/>
      <point x="1108" y="127" type="line"/>
      <point x="1091" y="98"/>
      <point x="981" y="-18"/>
      <point x="861" y="-18" type="curve" smooth="yes"/>
      <point x="776" y="-18"/>
      <point x="738" y="36"/>
      <point x="750" y="120" type="curve"/>
      <point x="677" y="49"/>
      <point x="571" y="-20"/>
      <point x="420" y="-20" type="curve" smooth="yes"/>
      <point x="266" y="-20"/>
      <point x="165" y="46"/>
    </contour>
    <contour>
      <point x="379" y="1397" type="curve"/>
      <point x="332" y="1481" type="line"/>
      <point x="375" y="1567"/>
      <point x="475" y="1650"/>
      <point x="579" y="1650" type="curve" smooth="yes"/>
      <point x="712" y="1650"/>
      <point x="744" y="1510"/>
      <point x="836" y="1510" type="curve" smooth="yes"/>
      <point x="910" y="1510"/>
      <point x="952" y="1572"/>
      <point x="990" y="1620" type="curve"/>
      <point x="1048" y="1529" type="line"/>
      <point x="1014" y="1427"/>
      <point x="911" y="1348"/>
      <point x="797" y="1348" type="curve" smooth="yes"/>
      <point x="634" y="1348"/>
      <point x="637" y="1486"/>
      <point x="526" y="1488" type="curve" smooth="yes"/>
      <point x="481" y="1489"/>
      <point x="417" y="1437"/>
    </contour>
  </outline>
</glyph>
<glyph name="Ubreve" format="1">
  <advance width="1379"/>
  <unicode hex="016C"/>
  <outline>
    <contour>
      <point x="145" y="428" type="curve" smooth="yes"/>
      <point x="144" y="480"/>
      <point x="147" y="534"/>
      <point x="153" y="593" type="curve"/>
      <point x="260" y="1407" type="line"/>
      <point x="127" y="1430" type="line"/>
      <point x="139" y="1530" type="line"/>
      <point x="622" y="1530" type="line"/>
      <point x="611" y="1430" type="line"/>
      <point x="460" y="1405" type="line"/>
      <point x="356" y="610" type="line"/>
      <point x="348" y="537"/>
      <point x="344" y="475"/>
      <point x="345" y="418" type="curve" smooth="yes"/>
      <point x="349" y="202"/>
      <point x="452" y="90"/>
      <point x="627" y="90" type="curve" smooth="yes"/>
      <point x="853" y="90"/>
      <point x="987" y="276"/>
      <point x="1027" y="626" type="curve"/>
      <point x="1130" y="1405" type="line"/>
      <point x="997" y="1429" type="line"/>
      <point x="1008" y="1530" type="line"/>
      <point x="1440" y="1530" type="line"/>
      <point x="1429" y="1429" type="line"/>
      <point x="1305" y="1407" type="line"/>
      <point x="1201" y="627" type="line"/>
      <point x="1140" y="155"/>
      <point x="938" y="-20"/>
      <point x="597" y="-20" type="curve" smooth="yes"/>
      <point x="309" y="-20"/>
      <point x="150" y="152"/>
    </contour>
    <contour>
      <point x="823" y="1628" type="curve" smooth="yes"/>
      <point x="637" y="1628"/>
      <point x="534" y="1801"/>
      <point x="534" y="1960" type="curve" smooth="yes"/>
      <point x="534" y="1966"/>
      <point x="534" y="1973"/>
      <point x="535" y="1979" type="curve"/>
      <point x="640" y="1979" type="line"/>
      <point x="641" y="1970"/>
      <point x="642" y="1959"/>
      <point x="644" y="1948" type="curve" smooth="yes"/>
      <point x="659" y="1879"/>
      <point x="702" y="1775"/>
      <point x="828" y="1775" type="curve" smooth="yes"/>
      <point x="975" y="1775"/>
      <point x="1027" y="1919"/>
      <point x="1050" y="1979" type="curve"/>
      <point x="1152" y="1979" type="line"/>
      <point x="1152" y="1968"/>
      <point x="1151" y="1957"/>
      <point x="1149" y="1946" type="curve" smooth="yes"/>
      <point x="1127" y="1791"/>
      <point x="991" y="1628"/>
    </contour>
  </outline>
</glyph>
<glyph name="Uring" format="1">
  <advance width="1379"/>
  <unicode hex="016E"/>
  <outline>
    <contour>
      <point x="145" y="428" type="curve" smooth="yes"/>
      <point x="144" y="480"/>
      <point x="147" y="534"/>
      <point x="153" y="593" type="curve"/>
      <point x="260" y="1407" type="line"/>
      <point x="127" y="1430" type="line"/>
      <point x="139" y="1530" type="line"/>
      <point x="622" y="1530" type="line"/>
      <point x="611" y="1430" type="line"/>
      <point x="460" y="1405" type="line"/>
      <point x="356" y="610" type="line"/>
      <point x="348" y="537"/>
      <point x="344" y="475"/>
      <point x="345" y="418" type="curve" smooth="yes"/>
      <point x="349" y="202"/>
      <point x="452" y="90"/>
      <point x="627" y="90" type="curve" smooth="yes"/>
      <point x="853" y="90"/>
      <point x="987" y="276"/>
      <point x="1027" y="626" type="curve"/>
      <point x="1130" y="1405" type="line"/>
      <point x="997" y="1429" type="line"/>
      <point x="1008" y="1530" type="line"/>
      <point x="1440" y="1530" type="line"/>
      <point x="1429" y="1429" type="line"/>
      <point x="1305" y="1407" type="line"/>
      <point x="1201" y="627" type="line"/>
      <point x="1140" y="155"/>
      <point x="938" y="-20"/>
      <point x="597" y="-20" type="curve" smooth="yes"/>
      <point x="309" y="-20"/>
      <point x="150" y="152"/>
    </contour>
    <contour>
      <point x="803" y="1467" type="curve" smooth="yes"/>
      <point x="601" y="1467"/>
      <point x="505" y="1576"/>
      <point x="525" y="1740" type="curve" smooth="yes"/>
      <point x="548" y="1924"/>
      <point x="721" y="2000"/>
      <point x="872" y="2000" type="curve" smooth="yes"/>
      <point x="1060" y="2000"/>
      <point x="1163" y="1900"/>
      <point x="1145" y="1735" type="curve"/>
      <point x="1123" y="1550"/>
      <point x="961" y="1467"/>
    </contour>
    <contour>
      <point x="818" y="1553" type="curve" smooth="yes"/>
      <point x="919" y="1551"/>
      <point x="991" y="1593"/>
      <point x="1005" y="1728" type="curve" smooth="yes"/>
      <point x="1016" y="1836"/>
      <point x="953" y="1911"/>
      <point x="856" y="1912" type="curve" smooth="yes"/>
      <point x="756" y="1913"/>
      <point x="679" y="1866"/>
      <point x="665" y="1740" type="curve"/>
      <point x="655" y="1639"/>
      <point x="723" y="1555"/>
    </contour>
  </outline>
</glyph>
<glyph name="Uogonek" format="1">
  <advance width="1379"/>
  <unicode hex="0172"/>
  <outline>
    <contour>
      <point x="145" y="428" type="curve" smooth="yes"/>
      <point x="144" y="480"/>
      <point x="147" y="534"/>
      <point x="153" y="593" type="curve"/>
      <point x="260" y="1407" type="line"/>
      <point x="127" y="1430" type="line"/>
      <point x="139" y="1530" type="line"/>
      <point x="622" y="1530" type="line"/>
      <point x="611" y="1430" type="line"/>
      <point x="460" y="1405" type="line"/>
      <point x="356" y="610" type="line"/>
      <point x="348" y="537"/>
      <point x="344" y="475"/>
      <point x="345" y="418" type="curve" smooth="yes"/>
      <point x="349" y="202"/>
      <point x="452" y="90"/>
      <point x="627" y="90" type="curve" smooth="yes"/>
      <point x="853" y="90"/>
      <point x="987" y="276"/>
      <point x="1027" y="626" type="curve"/>
      <point x="1130" y="1405" type="line"/>
      <point x="997" y="1429" type="line"/>
      <point x="1008" y="1530" type="line"/>
      <point x="1440" y="1530" type="line"/>
      <point x="1429" y="1429" type="line"/>
      <point x="1305" y="1407" type="line"/>
      <point x="1201" y="627" type="line"/>
      <point x="1149" y="225"/>
      <point x="995" y="38"/>
      <point x="740" y="-8" type="curve"/>
      <point x="671" y="-81"/>
      <point x="615" y="-156"/>
      <point x="613" y="-201" type="curve" smooth="yes"/>
      <point x="610" y="-266"/>
      <point x="643" y="-287"/>
      <point x="666" y="-287" type="curve" smooth="yes"/>
      <point x="702" y="-287"/>
      <point x="740" y="-272"/>
      <point x="796" y="-228" type="curve"/>
      <point x="822" y="-322" type="line"/>
      <point x="770" y="-368"/>
      <point x="688" y="-416"/>
      <point x="572" y="-416" type="curve" smooth="yes"/>
      <point x="465" y="-416"/>
      <point x="416" y="-343"/>
      <point x="419" y="-280" type="curve" smooth="yes"/>
      <point x="421" y="-238"/>
      <point x="435" y="-188"/>
      <point x="460" y="-156" type="curve" smooth="yes"/>
      <point x="512" y="-87"/>
      <point x="568" y="-51"/>
      <point x="622" y="-19" type="curve"/>
      <point x="614" y="-19"/>
      <point x="605" y="-20"/>
      <point x="597" y="-20" type="curve" smooth="yes"/>
      <point x="309" y="-20"/>
      <point x="150" y="152"/>
    </contour>
  </outline>
</glyph>
<glyph name="Ycircumflex" format="1">
  <advance width="1173"/>
  <unicode hex="0176"/>
  <outline>
    <contour>
      <point x="243" y="0" type="line"/>
      <point x="251" y="87" type="line"/>
      <point x="447" y="116" type="line"/>
      <point x="508" y="590" type="line"/>
      <point x="144" y="1406" type="line"/>
      <point x="40" y="1429" type="line"/>
      <point x="50" y="1530" type="line"/>
      <point x="539" y="1530" type="line"/>
      <point x="527" y="1429" type="line"/>
      <point x="367" y="1406" type="line"/>
      <point x="595" y="838" type="line"/>
      <point x="631" y="712" type="line"/>
      <point x="703" y="838" type="line"/>
      <point x="1046" y="1406" type="line"/>
      <point x="907" y="1429" type="line"/>
      <point x="918" y="1530" type="line"/>
      <point x="1330" y="1530" type="line"/>
      <point x="1319" y="1429" type="line"/>
      <point x="1220" y="1407" type="line"/>
      <point x="696" y="590" type="line"/>
      <point x="635" y="116" type="line"/>
      <point x="848" y="87" type="line"/>
      <point x="840" y="0" type="line"/>
    </contour>
    <contour>
      <point x="459" y="1614" type="line"/>
      <point x="398" y="1672" type="line"/>
      <point x="703" y="2000" type="line"/>
      <point x="880" y="2000" type="line"/>
      <point x="1092" y="1672" type="line"/>
      <point x="1024" y="1613" type="line"/>
      <point x="783" y="1842" type="line"/>
    </contour>
  </outline>
</glyph>
<glyph name="Zacute" format="1">
  <advance width="1213"/>
  <unicode hex="0179"/>
  <outline>
    <contour>
      <point x="46" y="0" type="line"/>
      <point x="19" y="89" type="line"/>
      <point x="828" y="1217" type="line"/>
      <point x="997" y="1416" type="line"/>
      <point x="421" y="1409" type="line"/>
      <point x="326" y="1162" type="line"/>
      <point x="208" y="1186" type="line"/>
      <point x="264" y="1530" type="line"/>
      <point x="1202" y="1530" type="line"/>
      <point x="1227" y="1444" type="line"/>
      <point x="416" y="303" type="line"/>
      <point x="263" y="107" type="line"/>
      <point x="904" y="132" type="line"/>
      <point x="1029" y="384" type="line"/>
      <point x="1150" y="353" type="line"/>
      <point x="1057" y="0" type="line"/>
    </contour>
    <contour>
      <point x="751" y="1613" type="curve"/>
      <point x="698" y="1658" type="line"/>
      <point x="974" y="2000" type="line"/>
      <point x="1098" y="1862" type="line"/>
      <point x="1046" y="1751"/>
      <point x="847" y="1649"/>
    </contour>
  </outline>
</glyph>
<glyph name="Zdotaccent" format="1">
  <advance width="1213"/>
  <unicode hex="017B"/>
  <outline>
    <contour>
      <point x="46" y="0" type="line"/>
      <point x="19" y="89" type="line"/>
      <point x="828" y="1217" type="line"/>
      <point x="997" y="1416" type="line"/>
      <point x="421" y="1409" type="line"/>
      <point x="326" y="1162" type="line"/>
      <point x="208" y="1186" type="line"/>
      <point x="264" y="1530" type="line"/>
      <point x="1202" y="1530" type="line"/>
      <point x="1227" y="1444" type="line"/>
      <point x="416" y="303" type="line"/>
      <point x="263" y="107" type="line"/>
      <point x="904" y="132" type="line"/>
      <point x="1029" y="384" type="line"/>
      <point x="1150" y="353" type="line"/>
      <point x="1057" y="0" type="line"/>
    </contour>
    <contour>
      <point x="751" y="1691" type="curve" smooth="yes"/>
      <point x="686" y="1691"/>
      <point x="633" y="1746"/>
      <point x="636" y="1810" type="curve" smooth="yes"/>
      <point x="639" y="1887"/>
      <point x="716" y="1954"/>
      <point x="780" y="1954" type="curve" smooth="yes"/>
      <point x="856" y="1954"/>
      <point x="906" y="1901"/>
      <point x="903" y="1838" type="curve" smooth="yes"/>
      <point x="900" y="1761"/>
      <point x="829" y="1691"/>
    </contour>
  </outline>
</glyph>
<glyph name="Zcaron" format="1">
  <advance width="1213"/>
  <unicode hex="017D"/>
  <outline>
    <contour>
      <point x="46" y="0" type="line"/>
      <point x="19" y="89" type="line"/>
      <point x="828" y="1217" type="line"/>
      <point x="997" y="1416" type="line"/>
      <point x="421" y="1409" type="line"/>
      <point x="326" y="1162" type="line"/>
      <point x="208" y="1186" type="line"/>
      <point x="264" y="1530" type="line"/>
      <point x="1202" y="1530" type="line"/>
      <point x="1227" y="1444" type="line"/>
      <point x="416" y="303" type="line"/>
      <point x="263" y="107" type="line"/>
      <point x="904" y="132" type="line"/>
      <point x="1029" y="384" type="line"/>
      <point x="1150" y="353" type="line"/>
      <point x="1057" y="0" type="line"/>
    </contour>
    <contour>
      <point x="652" y="1614" type="line"/>
      <point x="430" y="1942" type="line"/>
      <point x="495" y="2000" type="line"/>
      <point x="743" y="1765" type="line"/>
      <point x="1060" y="2000" type="line"/>
      <point x="1122" y="1943" type="line"/>
      <point x="827" y="1614" type="line"/>
    </contour>
  </outline>
</glyph>
<glyph name="zcaron" format="1">
  <advance width="1058"/>
  <unicode hex="017E"/>
  <outline>
    <contour>
      <point x="3" y="39" type="line"/>
      <point x="645" y="827" type="line"/>
      <point x="783" y="979" type="line"/>
      <point x="399" y="980" type="line" smooth="yes"/>
      <point x="306" y="980"/>
      <point x="229" y="909"/>
      <point x="215" y="819" type="curve"/>
      <point x="152" y="819" type="line"/>
      <point x="153" y="912"/>
      <point x="175" y="1105"/>
      <point x="232" y="1143" type="curve" smooth="yes"/>
      <point x="249" y="1154"/>
      <point x="283" y="1163"/>
      <point x="332" y="1163" type="curve" smooth="yes"/>
      <point x="481" y="1163"/>
      <point x="742" y="1128"/>
      <point x="862" y="1128" type="curve" smooth="yes"/>
      <point x="889" y="1128"/>
      <point x="944" y="1138"/>
      <point x="974" y="1163" type="curve"/>
      <point x="1032" y="1103" type="line"/>
      <point x="382" y="296" type="line"/>
      <point x="254" y="153" type="line"/>
      <point x="666" y="153" type="line" smooth="yes"/>
      <point x="759" y="153"/>
      <point x="840" y="225"/>
      <point x="854" y="315" type="curve"/>
      <point x="916" y="315" type="line"/>
      <point x="915" y="222"/>
      <point x="890" y="35"/>
      <point x="833" y="-3" type="curve" smooth="yes"/>
      <point x="816" y="-14"/>
      <point x="782" y="-23"/>
      <point x="733" y="-23" type="curve" smooth="yes"/>
      <point x="584" y="-23"/>
      <point x="293" y="10"/>
      <point x="173" y="10" type="curve" smooth="yes"/>
      <point x="151" y="10"/>
      <point x="115" y="5"/>
      <point x="88" y="-10" type="curve"/>
      <point x="71" y="-23" type="line"/>
    </contour>
    <contour>
      <point x="516" y="1255" type="line"/>
      <point x="293" y="1592" type="line"/>
      <point x="360" y="1650" type="line"/>
      <point x="608" y="1406" type="line"/>
      <point x="701" y="1485"/>
      <point x="833" y="1573"/>
      <point x="925" y="1650" type="curve"/>
      <point x="987" y="1593" type="line"/>
      <point x="692" y="1255" type="line"/>
    </contour>
  </outline>
</glyph>
<glyph name="dotlessj" format="1">
  <advance width="647"/>
  <unicode hex="0237"/>
  <outline>
    <contour>
      <point x="188" y="65" type="curve" smooth="yes"/>
      <point x="286" y="980" type="line"/>
      <point x="130" y="1031" type="line"/>
      <point x="148" y="1112" type="line"/>
      <point x="459" y="1163" type="line"/>
      <point x="507" y="1139" type="line"/>
      <point x="377" y="0" type="line" smooth="yes"/>
      <point x="338" y="-340"/>
      <point x="159" y="-518"/>
      <point x="-69" y="-518" type="curve" smooth="yes"/>
      <point x="-132" y="-518"/>
      <point x="-187" y="-505"/>
      <point x="-209" y="-481" type="curve"/>
      <point x="-174" y="-400" type="line"/>
      <point x="-156" y="-408"/>
      <point x="-115" y="-412"/>
      <point x="-104" y="-412" type="curve" smooth="yes"/>
      <point x="90" y="-412"/>
      <point x="162" y="-176"/>
    </contour>
  </outline>
</glyph>
<glyph name="dotaccent" format="1">
  <advance width="388"/>
  <unicode hex="02D9"/>
  <outline>
    <contour>
      <point x="176" y="1388" type="curve" smooth="yes"/>
      <point x="111" y="1388"/>
      <point x="58" y="1443"/>
      <point x="61" y="1508" type="curve" smooth="yes"/>
      <point x="64" y="1585"/>
      <point x="141" y="1651"/>
      <point x="205" y="1651" type="curve" smooth="yes"/>
      <point x="282" y="1651"/>
      <point x="330" y="1598"/>
      <point x="327" y="1536" type="curve" smooth="yes"/>
      <point x="324" y="1458"/>
      <point x="254" y="1388"/>
    </contour>
  </outline>
</glyph>
<glyph name="ring" format="1">
  <advance width="722"/>
  <unicode hex="02DA"/>
  <outline>
    <contour>
      <point x="369" y="1253" type="curve" smooth="yes"/>
      <point x="167" y="1253"/>
      <point x="73" y="1362"/>
      <point x="92" y="1526" type="curve"/>
      <point x="115" y="1710"/>
      <point x="288" y="1786"/>
      <point x="439" y="1786" type="curve" smooth="yes"/>
      <point x="627" y="1786"/>
      <point x="730" y="1687"/>
      <point x="711" y="1521" type="curve" smooth="yes"/>
      <point x="690" y="1336"/>
      <point x="527" y="1253"/>
    </contour>
    <contour>
      <point x="384" y="1339" type="curve"/>
      <point x="486" y="1338"/>
      <point x="558" y="1380"/>
      <point x="572" y="1514" type="curve" smooth="yes"/>
      <point x="583" y="1622"/>
      <point x="520" y="1697"/>
      <point x="423" y="1698" type="curve" smooth="yes"/>
      <point x="323" y="1699"/>
      <point x="245" y="1653"/>
      <point x="232" y="1526" type="curve" smooth="yes"/>
      <point x="221" y="1424"/>
      <point x="290" y="1342"/>
    </contour>
  </outline>
</glyph>
<glyph name="hungarumlaut" format="1">
  <advance width="917"/>
  <unicode hex="02DD"/>
  <outline>
    <contour>
      <point x="540" y="1252" type="curve"/>
      <point x="475" y="1296" type="line"/>
      <point x="722" y="1712" type="line"/>
      <point x="867" y="1594" type="line"/>
      <point x="840" y="1489"/>
      <point x="649" y="1289"/>
    </contour>
    <contour>
      <point x="114" y="1252" type="curve"/>
      <point x="50" y="1296" type="line"/>
      <point x="287" y="1712" type="line"/>
      <point x="432" y="1595" type="line"/>
      <point x="397" y="1475"/>
      <point x="228" y="1306"/>
    </contour>
  </outline>
</glyph>
<glyph name="uni03BC" format="1">
  <advance width="1364"/>
  <unicode hex="03BC"/>
  <outline>
    <contour>
      <point x="364" y="11" type="curve"/>
      <point x="306" y="-372" type="line"/>
      <point x="121" y="-372" type="line"/>
      <point x="229" y="358" type="line"/>
      <point x="254" y="547"/>
      <point x="293" y="734"/>
      <point x="311" y="943" type="curve"/>
      <point x="313" y="991"/>
      <point x="309" y="1019"/>
      <point x="290" y="1019" type="curve" smooth="yes"/>
      <point x="277" y="1019"/>
      <point x="259" y="1014"/>
      <point x="222" y="993" type="curve"/>
      <point x="192" y="1045" type="line"/>
      <point x="206" y="1066"/>
      <point x="297" y="1150"/>
      <point x="399" y="1150" type="curve" smooth="yes"/>
      <point x="477" y="1150"/>
      <point x="520" y="1118"/>
      <point x="515" y="1021" type="curve"/>
      <point x="508" y="915"/>
      <point x="489" y="798"/>
      <point x="471" y="681" type="curve" smooth="yes"/>
      <point x="452" y="563"/>
      <point x="427" y="441"/>
      <point x="427" y="315" type="curve" smooth="yes"/>
      <point x="427" y="166"/>
      <point x="474" y="117"/>
      <point x="562" y="117" type="curve" smooth="yes"/>
      <point x="665" y="117"/>
      <point x="785" y="213"/>
      <point x="848" y="278" type="curve"/>
      <point x="960" y="1140" type="line"/>
      <point x="1154" y="1140" type="line"/>
      <point x="1032" y="189" type="line" smooth="yes"/>
      <point x="1025" y="137"/>
      <point x="1032" y="113"/>
      <point x="1053" y="113" type="curve" smooth="yes"/>
      <point x="1066" y="113"/>
      <point x="1084" y="118"/>
      <point x="1120" y="140" type="curve"/>
      <point x="1152" y="87" type="line"/>
      <point x="1137" y="66"/>
      <point x="1044" y="-18"/>
      <point x="944" y="-18" type="curve" smooth="yes"/>
      <point x="864" y="-18"/>
      <point x="815" y="5"/>
      <point x="827" y="118" type="curve"/>
      <point x="752" y="47"/>
      <point x="644" y="-20"/>
      <point x="487" y="-20" type="curve"/>
      <point x="442" y="-19"/>
      <point x="400" y="-8"/>
    </contour>
  </outline>
</glyph>
<glyph name="pi" format="1">
  <advance width="1621"/>
  <unicode hex="03C0"/>
  <outline>
    <contour>
      <point x="160" y="96" type="line"/>
      <point x="430" y="170"/>
      <point x="430" y="335"/>
      <point x="465" y="489" type="curve" smooth="yes"/>
      <point x="572" y="964" type="line"/>
      <point x="509" y="964" type="line"/>
      <point x="443" y="965"/>
      <point x="354" y="904"/>
      <point x="325" y="841" type="curve"/>
      <point x="199" y="858" type="line"/>
      <point x="198" y="877"/>
      <point x="203" y="921"/>
      <point x="225" y="956" type="curve" smooth="yes"/>
      <point x="296" y="1072"/>
      <point x="425" y="1119"/>
      <point x="561" y="1119" type="curve" smooth="yes"/>
      <point x="1227" y="1119" type="line" smooth="yes"/>
      <point x="1295" y="1119"/>
      <point x="1350" y="1133"/>
      <point x="1391" y="1214" type="curve"/>
      <point x="1519" y="1214" type="line"/>
      <point x="1489" y="1024"/>
      <point x="1354" y="963"/>
      <point x="1185" y="963" type="curve" smooth="yes"/>
      <point x="1168" y="963" type="line"/>
      <point x="1076" y="252"/>
      <point x="1076" y="240"/>
      <point x="1076" y="231" type="curve" smooth="yes"/>
      <point x="1076" y="172"/>
      <point x="1104" y="138"/>
      <point x="1130" y="137" type="curve" smooth="yes"/>
      <point x="1197" y="135"/>
      <point x="1274" y="198"/>
      <point x="1300" y="289" type="curve"/>
      <point x="1434" y="289" type="line"/>
      <point x="1398" y="151"/>
      <point x="1262" y="-24"/>
      <point x="1061" y="-24" type="curve" smooth="yes"/>
      <point x="943" y="-24"/>
      <point x="891" y="56"/>
      <point x="891" y="162" type="curve" smooth="yes"/>
      <point x="891" y="241"/>
      <point x="907" y="405"/>
      <point x="1000" y="963" type="curve"/>
      <point x="723" y="964" type="line"/>
      <point x="638" y="430" type="line" smooth="yes"/>
      <point x="584" y="94"/>
      <point x="452" y="0"/>
      <point x="277" y="-28" type="curve"/>
    </contour>
  </outline>
</glyph>
